<mxfile host="65bd71144e">
    <diagram name="dapr-solution" id="2b6s6jXuNhxfNd5UY_0z">
        <mxGraphModel dx="1100" dy="596" grid="1" gridSize="10" guides="1" tooltips="1" connect="1" arrows="1" fold="1" page="1" pageScale="1" pageWidth="850" pageHeight="1100" math="0" shadow="0">
            <root>
                <mxCell id="J34aP4NqLfEWSbsF6mjq-0"/>
                <mxCell id="J34aP4NqLfEWSbsF6mjq-1" parent="J34aP4NqLfEWSbsF6mjq-0"/>
                <mxCell id="phJ6EIUej6O-Tx5Qxw3U-54" value="" style="rounded=0;whiteSpace=wrap;html=1;dashed=1;sketch=0;fillColor=#FFFFFF;strokeColor=none;" parent="J34aP4NqLfEWSbsF6mjq-1" vertex="1">
                    <mxGeometry y="460" width="640" height="410" as="geometry"/>
                </mxCell>
                <mxCell id="phJ6EIUej6O-Tx5Qxw3U-52" value="" style="rounded=1;whiteSpace=wrap;html=1;sketch=0;dashed=1;strokeColor=#666666;fontColor=#333333;fillColor=#FAFAFA;arcSize=0;strokeWidth=3;" parent="J34aP4NqLfEWSbsF6mjq-1" vertex="1">
                    <mxGeometry x="50" y="540" width="520" height="140" as="geometry"/>
                </mxCell>
                <mxCell id="J34aP4NqLfEWSbsF6mjq-15" value="&amp;nbsp; &amp;nbsp; &amp;nbsp; &amp;nbsp; &amp;nbsp; &amp;nbsp; Engine" style="html=1;sketch=1;strokeColor=#6c8ebf;fontStyle=1;labelBackgroundColor=none;fillColor=#F0F4FF;" parent="J34aP4NqLfEWSbsF6mjq-1" vertex="1">
                    <mxGeometry x="338.55" y="580" width="145" height="60" as="geometry"/>
                </mxCell>
                <mxCell id="38" value="" style="shape=image;verticalLabelPosition=bottom;labelBackgroundColor=#ffffff;verticalAlign=top;aspect=fixed;imageAspect=0;image=data:image/png,iVBORw0KGgoAAAANSUhEUgAABAAAAAQACAYAAAB/HSuDAAAAAXNSR0IArs4c6QAAAIRlWElmTU0AKgAAAAgABQESAAMAAAABAAEAAAEaAAUAAAABAAAASgEbAAUAAAABAAAAUgEoAAMAAAABAAIAAIdpAAQAAAABAAAAWgAAAAAAAABIAAAAAQAAAEgAAAABAAOgAQADAAAAAQABAACgAgAEAAAAAQAABACgAwAEAAAAAQAABAAAAAAAIOeHHgAAAAlwSFlzAAALEwAACxMBAJqcGAAAAVlpVFh0WE1MOmNvbS5hZG9iZS54bXAAAAAAADx4OnhtcG1ldGEgeG1sbnM6eD0iYWRvYmU6bnM6bWV0YS8iIHg6eG1wdGs9IlhNUCBDb3JlIDUuNC4wIj4KICAgPHJkZjpSREYgeG1sbnM6cmRmPSJodHRwOi8vd3d3LnczLm9yZy8xOTk5LzAyLzIyLXJkZi1zeW50YXgtbnMjIj4KICAgICAgPHJkZjpEZXNjcmlwdGlvbiByZGY6YWJvdXQ9IiIKICAgICAgICAgICAgeG1sbnM6dGlmZj0iaHR0cDovL25zLmFkb2JlLmNvbS90aWZmLzEuMC8iPgogICAgICAgICA8dGlmZjpPcmllbnRhdGlvbj4xPC90aWZmOk9yaWVudGF0aW9uPgogICAgICA8L3JkZjpEZXNjcmlwdGlvbj4KICAgPC9yZGY6UkRGPgo8L3g6eG1wbWV0YT4KTMInWQAAQABJREFUeAHs3V1sXVe56P0xVxwnNi3Oh0NehLbs3iDBBTESAnTgyK6gSZqC4t5wwcWJe3EuSIG4dweJKu4Votolzm6cXmyJODcICaQ4RxWEVqj22eLw0Z1khYq2L3kPdqCQDzsfi6M4rmOv+T7P9EriOF72+phzjjHH/FtK63jNNcd4fmOuFY+x5vMMY/hCAAEEEEAAAQQQQAABBBBAAAHvBQLvIyRAqwJ7X53u0w4sFsLuwATd8q1+9cifLdF3S//Rv3cs+zvfIoAAAggggAACCCDgm0BJAiouC+rWvb+HJpzaUA6m9LEz39kxrv/nC4EkBFgASEI1R+fc+9rlbrPQ0l0umL5K2H0mkMl9aHbliIFQEUAAAQQQQAABBBCIVyAwF+R3al0kGNcTF8ry/5aFqTPf+viU/p0vBBoRYAGgEbUcPqfvyM0tm1sWeqKJfhh2m0LQwyQ/hxcCISOAAAIIIIAAAgjYF9DFgXJYNEEwpQsDcwstxfEXtupiAV8IrCnAAsCaPPl88KHJvtyuH8ofuVC68qlB1AgggAACCCCAAAIIuC8gv7Nfkt/ZNcWgyKKA++Nlq4csANiSd6hdvY1/sbyhr2AKPWEQ9vHJvkODQ1cQQAABBBBAAAEEEGhUQO4UCMJgvGzKxQ2FxXHSBxqF9Od5LAD4M5Y1R6Kf8LduWuwLQtNXNmE/n+7XTMeBCCCAAAIIIIAAAghkVkDvEiiYYCwMzPj8hxvGSRvI7FA23HEWABqmy9YTnxq5JrfxB/1SoK+fT/izNXb0FgEEEEAAAQQQQACBRAT0DoGyGS0H4fibz39M0wf48lyABQCPB3j38Zl+PuX3eIAJDQEEEEAAAQQQQACBmASW3x3wxsHOsZhOy2kcE2ABwLEBabY7Ouk35bJ80i+f9hvT0ez5eD4CCCCAAAIIIIAAAgjkTqBkwnDMFApjLAb4NfYsAHgwnntfne6T23YGmPR7MJiEgAACCCCAAAIIIICAWwLRYkAhDEbPfGfHuFtdozf1CrAAUK+YI8dr5f5yuWVAbtUZkEHscqRbdAMBBBBAAAEEEEAAAQQ8FdA0AZl7jBYKC6PsKJDNQWYBIGPjJsX8ZMIfDEi3ezPWdbqLAAIIIIAAAggggAAC/ghMhCYcleKBo/6E5H8kLABkYIz10/6wvHFQXmAD0l3y+jMwZnQRAQQQQAABBBBAAIGcCJTkA8rRoHB3mLsC3B9xFgAcHqMot79gBqWL+x3uJl1DAAEEEEAAAQQQQAABBFTgdKFshqkV4O7FwAKAg2Ojt/kbEwzJ4JDb7+D40CUEEEAAAQQQQAABBBCoLqC1AowJh0gPqG5k6xEWAGzJr2i378jNLa2tC/ppv/7hNv8VPvwVAQQQQAABBBBAAAEEMidQkh4Pz8+3DI+/sPVW5nrvYYdZALA8qEz8LQ8AzSOAAAIIIIAAAggggEDSAiwEJC1c4/lZAKgRKu7Dom38FjcMmSA4EPe5OR8CCCCAAAIIIIAAAggg4KRAGJ4sbFgcomCgndFhASBl92Wf+B9OuWmaQwABBBBAAAEEEEAAAQRcEXiJ1ID0h4IFgJTMl038yfFPyZxmEEAAAQQQQAABBBBAwGkBUgNSHh4WAFIA33NsejAMzJA0RXG/FLxpAgEEEEAAAQQQQAABBDIlUApCM/Srb+8YzlSvM9hZFgASHLTdx2f6wzAcFmS280vQmVMjgAACCCCAAAIIIIBA9gV0+8AgCAbfONg5lv1o3IyABYAExuWpkWs9gQl09ao3gdNzSgQQQAABBBBAAAEEEEDAZ4GJ0ISDbz7/saLPQdqIjQWAGNU1z39T6+KQXKyHYjwtp0IAAQQQQAABBBBAAAEEcicgH6oe/XB+w9D4C1tv5S74hAJmASAmWPnUf6DyqT95/jGZchoEEEAAAQQQQAABBBDIvUCpcjfAaO4lYgBgAaBJRG73bxKQpyOAAAIIIIAAAggggAAC6wuQFrC+0bpHFNY9ggOqCuwemR6ST/3PywHk+ldV4gEEEEAAAQQQQAABBBBAoGmBXp176Rys6TPl+ATcAdDA4O99dbqvvMEMm9DsauDpPAUBBBBAAAEEEEAAAQQQQKBRgcBcKCyawTPf2THe6Cny+jwWAOoYeYr81YHFoQgggAACCCCAAAIIIIBAggIUCawflwWAGs2iXP8gGOVT/xrBOAwBBBBAAAEEEEAAAQQQSFpA7gYIw3CALQNrg6YGQA1O93P9ueW/Bi0OQQABBBBAAAEEEEAAAQRSEpA5GrUBarfmDoA1rPa+drm7HLaM8an/Gkg8hAACCCCAAAIIIIAAAgi4ITBRKCwMnPnWx6fc6I57veAOgCpjsvv4TH+53FJk8l8FiB8jgAACCCCAAAIIIIAAAm4J9OocTudybnXLnd5wB8CKsdBCf60b7w6bIDiw4iH+igACCCCAAAIIIIAAAgggkAWBMDw5f3fj4PgLW29lobtp9ZEFgGXSFPpbhsG3CCCAAAIIIIAAAggggECWBSgQ+MjosQBQIYluEwnDUflrxyNK/AABBBBAAAEEEEAAAQQQQCCLAiW5u3vgjYOdY1nsfNx9pgaAiO4ZmRk2YXhKvmXyH/cVxvkQQAABBBBAAAEEEEAAAXsCHTrXi+Z89vrgTMu5vgMgyvdvXdCVoF5nRoSOIIAAAggggAACCCCAAAIIJCEwMT/f0p/nugC5vQNA8/1bNy2My1XF5D+JlxbnRAABBBBAAAEEEEAAAQTcEujVOaDOBd3qVnq9yeUdAHtfne4rF4x+8s8t/+lda7SEAAIIIIAAAggggAACCLggUCqUTf+Z7+wYd6EzafYhd3cAyGrPgEz+3xJkJv9pXmm0hQACCCCAAAIIIIAAAgi4IdChc0KdG7rRnfR6kas7AHYfuzYqFSAPpMdLSwgggAACCCCAAAIIIIAAAs4KhOHJN779sQFn+xdzx3KzAMDkP+Yrh9MhgAACCCCAAAIIIIAAAj4I5GgRwPsFgKjSvxb7C80uH65NYkAAAQQQQAABBBBAAAEEEIhZIDAX5j9s6fN9hwCvFwCY/Mf8ouB0CCCAAAIIIIAAAggggICvAjlYBPC2COD9bf745N/XlydxIYAAAggggAACCCCAAALxCcjc0fdtAr28A0An/4EJxuVKoNJ/fC8HzoQAAggggAACCCCAAAII5EGgFJqw783nP1b0LVjvFgCY/Pt2iRIPAggggAACCCCAAAIIIJC6gJeLAF4tADD5T/1FQYMIIIAAAggggAACCCCAgK8C3i0CeLMAwOTf19cccSGAAAIIIIAAAggggAAC1gS8WgTwYgGAyb+1FwMNI4AAAggggAACCCCAAAK+C3izCJD5BQAm/76/1ogPAQQQQAABBBBAAAEEELAu4MUiQKYXAJj8W38R0AEEEEAAAQQQQAABBBBAIC8CmV8EyOwCAJP/vLzGiBMBBBBAAAEEEEAAAQQQcEYg04sABWcY6+hI35GbW4IgGJWndNTxNA5FAAEEEEAAAQQQQAABBBBAoBmBDp2L6py0mZPYem7m7gBQ6NZNC+MmNLtsodEuAggggAACCCCAAAIIIIBAjgUCc2H+w5a+8Re23sqSQubuAGDyn6XLi74igAACCCCAAAIIIIAAAh4KyAfS0dw0Y6FlagFg97Fro3zyn7ErjO4igAACCCCAAAIIIIAAAj4KyCJANEfNUGyZSQGIYIPgQIZs6SoCCCCAAAIIIIAAAggggIDvAmF48o1vf2wgC2Fm4g4Aqfg/YJj8Z+F6oo8IIIAAAggggAACCCCAQL4EZK4azVkzELXzdwDsfXW6r1wwb2XAki4igAACCCCAAAIIIIAAAgjkVKBQNk+e+c6OcZfDd3oBQFZRegITKCDb/bl8FdE3BBBAAAEEEEAAAQQQQACBUmjCvjef/1jRVQpnUwB0uz/dX1HgmPy7evXQLwQQQAABBBBAAAEEEEAAgXsCHTqH1bnsvR+49n9nFwBaWxfGqPjv2uVCfxBAAAEEEEAAAQQQQAABBKoK6PaAOpd19MvJBYA9IzPD4tXrqBndQgABBBBAAAEEEEAAAQQQQKCaQG9lTlvtcWs/d64GwO7jM/0mDE9ZE6FhBBBAAAEEEEAAAQQQQAABBJoVCIJn3zjY6dTdAE4tAFD0r9krjOcjgAACCCCAAAIIIIAAAgg4IuBcUUBnUgAo+ufIJUo3EEAAAQQQQAABBBBAAAEE4hBwriigMwsArRvvDlP0L45rjHMggAACCCCAAAIIIIAAAgg4IaBFAXWu68iXEykA5P07cjXQDQQQQAABBBBAAAEEEEAAgfgFHKkHYH0BYO9rl7vL5ZaiCHfEr8wZEUAAAQQQQAABBBBAAAEEELAuUCoUFnrOfOvjUzZ7Yj0FoBy2aFVEJv82rwLaRgABBBBAAAEEEEAAAQQQSFKgQz74Hk2ygVrObXUBYPfI9BB5/7UME8cggAACCCCAAAIIIIAAAghkXKA3mgNbDMJaCkBly7/zFmOnaQQQQAABBBBAAAEEEEAAAQRSFQhN+Nk3n/+YpsGn/mXlDoBlW/6lHjANIoAAAggggAACCCCAAAIIIGBLIAiCUZ0T22jfygLAptZFbv23Mdq0iQACCCCAAAIIIIAAAgggYFdAtgaM5sQWepF6CsDeV6f7ygXzloVYaRIBBBBAAAEEEEAAAQQQQAABJwQKZfPkme/sGE+zM6nfAVDeYIbTDJC2EEAAAQQQQAABBBBAAAEEEHBNwMbcONUFAKr+u3bJ0R8EEEAAAQQQQAABBBBAAAErApIKkPauAKmlAFD138olRaMIIIAAAggggAACCCCAAAIOC6S5K0BqdwAEJuDWf4cvOrqGAAIIIIAAAggggAACCCCQvkCac+VUFgDk0/8BYexNn5IWEUAAAQQQQAABBBBAAAEEEHBaoLcyZ068k4mnAOj+hq2tC1MSSUfi0dAAAggggAACCCCAAAIIIIAAAtkTKM3Pt3SPv7D1VpJdT/wOgMr+hkz+kxxFzo0AAggggAACCCCAAAIIIJBlgY7K3DnRGBK9A4DCf4mOHSdHAAEEEEAAAQQQQAABBBDwSCDpgoCJ3gGQZjEDj8acUBBAAAEEEEAAAQQQQAABBHIokPQcOrEFgN3HZ/plvCj8l8OLlpARQAABBBBAAAEEEEAAAQQaEuitzKUbevJ6T0psASAMQ7b9W0+fxxFAAAEEEEAAAQQQQAABBBBYJpDkXDqRBYA9x6YHpbhA17IY+BYBBBBAAAEEEEAAAQQQQAABBNYR0Lm0zqnXOayhh2MvAsi2fw2NA09CAAEEEEAAAQQQQAABBBBA4J5AItsCxn4HQGvrgq5UsO3fvWHj/wgggAACCCCAAAIIIIAAAgjUJ9BRmVvX96x1jo71DgA+/V9Hm4cRQAABBBBAAAEEEEAAAQQQqE0g9rsAYr0DgE//axtFjkIAAQQQQAABBBBAAAEEEEBgHYHY7wKI7Q6Ava9d7i6XWybXCYCHEUAAAQQQQAABBBBAAAEEEECgRoFCYeGJM9/6+FSNh695WGx3AJQXNwyt2RIPIoAAAggggAACCCCAAAIIIIBAXQJxzrVjuQOgkvt/s64oOBgBBBBAAAEEEEAAAQQQQAABBNYVmJ9v2Tr+wtZb6x64zgGx3AGQRHXCdfrNwwgggAACCCCAAAIIIIAAAgjkQiCuOXfTdwBQ+T8X1xtBIoAAAggggAACCCCAAAII2BOIZUeApu8AoPK/vSuAlhFAAAEEEEAAAQQQQAABBHIhEMuOAE0vAAj1YC64CRIBBBBAAAEEEEAAAQQQQAABewJNz72bWgB4auTagMTeYS9+WkYAAQQQQAABBBBAAAEEEEAgFwIdlTl4w8E2tQBgTDDUcMs8EQEEEEAAAQQQQAABBBBAAAEE6hBobg7e8ALA3len+6SCYFcdPeVQBBBAAAEEEEAAAQQQQAABBBBoUEDn4DoXb/DppuEFgHKB3P9G0XkeAggggAACCCCAAAIIIIAAAo0INDMXb2gbwL2vXe4ul1smG+ksz0EAAQQQQAABBBBAAAEEEEAAgcYFCoWFJ8586+NT9Z6hoTsAwvLGpqsP1ttRjkcAAQQQQAABBBBAAAEEEEAAAWManZM3tgBgwgHQEUAAAQQQQAABBBBAAAEEEEAgfYGwwTl53QsAbP2X/uDSIgIIIIAAAggggAACCCCAAALLBBraErDuBYDABAPLGuVbBBBAAAEEEEAAAQQQQAABBBBIWaCRuXldRQAp/pfyiNIcAggggAACCCCAAAIIIIAAAlUE6i0GWNcdAFL5f6BKu/wYAQQQQAABBBBAAAEEEEAAAQRSFKh3jl7XAkBozECKsdAUAggggAACCCCAAAIIIIAAAghUEah3jl7zAsDeV6f7JF+gq0q7/BgBBBBAAAEEEEAAAQQQQAABBFIU0Dm6ztVrbbKl1gPLgW79V1fJgFpPzXEIlISgaMJwygTBVBCaW/KnCAsCCCCAAAIIIIAAAlkVCAPTI3+2yO+43fI7brfE0SN/OuQPXwjEKrA0VzfjtZy05gUAuWj7azkhxyBQg8CEHDMu11SxENwtnvnWx6dqeA6HIIAAAggggAACCCCQJYHxlZ2NiqqHG3tkUUAXA/rkT+/KY/g7AnUL1DFXr+kj/d3HZ/rlIj1Vd0d4AgJLAiW5fsZMoTD2xsHOMVAQQAABBBBAAAEEEEBgSSCaa5XL/ZUPXLlDgAujMYEgeLaWuVZtdwAsXZCNdYRn5VWASX9eR564EUAAAQQQQAABBGoWqEzaog/JWAyomY0DVwronN2YdT9sre0OgJHpW3IyVqNWIvP3RwSkCuUlY8Khu/Mbx8Zf2KrXDV8IIIAAAggggAACCCBQh0DfkZtbNrbelQldMCQTNgqx12GX40NLbzy/Y8t68a+7AMDt/+sR8nhFYKJQNkNnvrNjHBEEEEAAAQQQQAABBBCIR0ArvJcLZkjORr2AeEj9PUsNaQDrbgMo1dj7/BUishgEdOL/pKw29TH5j0GTUyCAAAIIIIAAAgggsExAf8fW37X1d2758cSyh/gWgYcEapm7r3sHwFMj01NyELedPETLX+7d6v/m8x8bRQMBBBBAAAEEEEAAAQTSEXhq5NoAqQHpWGetFZ2jvfn8ju61+r3mAoBcXD2BCc6vdQIey6XAS/PzLcPk+Ody7AkaAQQQQAABBBBAwLKA1ghobV0YlG4cttwVmndMIDThZ+VD2mK1bq25C4BM/qXwBF8IVAQCcyEMw4G1LiisEEAAAQQQQAABBBBAIFmBygdxQ/KB7VgQBKMmNLuSbZGzZ0WgEAZ90teqCwBr1wAIDAsAWRnp5Pv50hsHd/Qw+U8emhYQQAABBBBAAAEEEKhFQH8319/R5diXajmeY/wXCAtmYK0oq6YAVG4rubnWk3ksFwIlKTjST4G/XIw1QSKAAAIIIIAAAghkVKCyW8CYdJ/t2zM6hnF1W9K1t1ZL1656B0DrpsW+uDrAeTIqILf8y8XTzeQ/o+NHtxFAAAEEEEAAAQRyI6C/s+vv7kZ+h89N0AS6qsBac/mqCwC1bCGwamv80A+BMDyptxNVWznyI0iiQAABBBBAAAEEEEDAHwH93T1KCZDf5f2JikjqFVhrLl91AaBsQvL/65X25Hi5YF5449sfG/AkHMJAAAEEEEAAAQQQQCBXAvq7vP5On6ugCfa+wFpz+VVrAOx97XJ3udwyef8MfJMbAdk24jkpJjKam4AJFAEEEEAAAQQQQAABTwVkl4AB2dnthKfhEdYaAoXCwhNnvvXxqZWHrHoHwGJ5Q9/KA/m7/wJM/v0fYyJEAAEEEEAAAQQQyI+AfrCnv+PnJ2IivSdQbU6/6gJAwRR0Kwm+ciTA5D9Hg02oCCCAAAIIIIAAArkRYBEgN0P9UKDV5vSrLgCEQdj30LP5i9cCTP69Hl6CQwABBBBAAAEEEMi5AIsA+bsAqs3pH1kA6Dtyc4sJza78EeUzYi0OQs5/PseeqBFAAAEEEEAAAQTyI6C/81MYMD/jrXP6aG6/IuRHFgA2tyxw+/8KJG//KtuD/OrbO4a9jY/AEEAAAQQQQAABBBBA4L5A9Ls/WwTe9/D9m9Xm9o8sAJQLps93COITgcBcYKs/rgQEEEAAAQQQQAABBPIlEM0BZC6Qr6jzGe1qc/tHFgCEhjsA/L8+SvMftvT5HyYRIoAAAggggAACCCCAwEqBylygtPLn/N07gUfm9o8sAIQsAHg36isDKpRN//gLW2+t/Dl/RwABBBBAAAEEEEAAAf8FdC6gcwL/I813hKvN7R9aANAiAYExXflm8j76l858Z8e491ESIAIIIIAAAggggAACCFQVqMwJXqp6AA9kXkDn9isLAT60ALBakYDMR00ADwQ07//5HUMPfsB3CCCAAAIIIIAAAgggkFeBaG5APQCvh3/lHP+hBYDVigR4rZGz4MIwHMhZyISLAAIIIIAAAggggAACawgwR1gDx4OHVs7xH1oAMGHY7UGMhLC6wEuy92dx9Yf4KQIIIIAAAggggAACCORRoDJHIBXA18FfMcd/eAGgEDxSJdBXhzzFJcUfLs3PtwznKWZiRQABBBBAAAEEEEAAgdoEdK6gc4bajuaoTAkEQffy/j68ABCaXcsf5HtfBMIhqv77MpbEgQACCCCAAAIIIIBAvAJLc4VwKN6zcjZHBHqX9+P+AsDe1y53L3+A770RmJDbeka9iYZAEEAAAQQQQAABBBBAIHaBypxhIvYTc0LrAsvn+vcXAMxCS7f1ntGB2AVkf8+h2E/KCRFAAAEEEEAAAQQQQMA7AeYO3g3pUkDL5vr3FwBWVgf0NPS8hTVR2d8zb3ETLwIIIIAAAggggAACCNQpUJk7cBdAnW6uH758rn9/AcD1TtO/+gVYwavfjGcggAACCCCAAAIIIJBnAeYQfo/+8gWAPr9DzVd0WsWTT//zNeZEiwACCCCAAAIIIIBAswI6h2BHgGYVnXt+370ePVgACMyWez/k/z4IUMXTh1EkBgQQQAABBBBAAAEE0hdgLpG+eYItLpvrP1gAYAvABMVTP3Xp7vzGsdRbpUEEEEAAAQQQQAABBBDIvEBlLlHKfCAEsCSwbK7/YAEAHH8EwnBsaS9Pf0IiEgQQQAABBBBAAAEEEEhHIJpLyJwindZoJU2BaAFg76vTfWk2SlsJCxQKvFgTJub0CCCAAAIIIIAAAgh4LcCcwqvhvTfn5w4Ar4Y1Cqb0xsFOFgD8G1ciQgABBBBAAAEEEEAgNYHKnII0gNTE02koWgBYLITd6TRHK4kLcKtO4sQ0gAACCCCAAAIIIIBALgSYW3gzzPfm/NECQGCCbm8iy3sg3KqT9yuA+BFAAAEEEEAAAQQQiEeAuUU8jg6c5d6cnxQABwYjzi5w+3+cmpwLAQQQQAABBBBAAIH8CjC38G/s7y0A9PgXWi4jmshl1ASNAAIIIIAAAggggAACSQkwx0hKNt3zRnP+ewsAW9Jtm9YSEhhP6LycFgEEEEAAAQQQQAABBPIpMJ7PsL2LOprz31sA8C66XAYUBMVcxk3QCCCAAAIIIIAAAgggkIwAc4xkXC2dlQUAS/BJNFsI7rIAkAQs50QAAQQQQAABBBBAIKcCzDH8Gvh7CwA9foWVy2hKZ7718alcRk7QCCCAAAIIIIAAAgggkIhAZY5RSuTknDRNgWjOf28BoCPNlmkrEQE+/U+ElZMigAACCCCAAAIIIJB7AeYa2b8Eojn/vQWA7IeT9wjCcCrvBMSPAAIIIIAAAggggAACCQgw10gA1c4pWQCw4x5/q0EwFf9JOSMCCCCAAAIIIIAAAgjkXoC5hjeXAAsAngxlEJpbnoRCGAgggAACCCCAAAIIIOCQAHMNhwajya6wANAkoCtPlxcleTmuDAb9QAABBBBAAAEEEEDAIwHmGv4MJgsA/owlkSCAAAIIIIAAAggggAACCCBQVYAFgKo0PIAAAggggAACCCCAAAIIIICAPwIsAPgzlkSCAAIIIIAAAggggAACCCCAQFWBwt7XLndXfZQHEEAAAQQQQAABBBBAAAEEEEDAC4HCmW99fMqLSAgCAQQQQAABBBBAAAEEEEAAAQSqCpACUJWGBxBAAAEEEEAAAQQQQAABBBDwR4AFAH/GkkgQQAABBBBAAAEEEEAAAQQQqCrAAkBVGh5AAAEEEEAAAQQQQAABBBBAwB8BFgD8GUsiQQABBBBAAAEEEEAAAQQQQKCqAAsAVWl4AAEEEEAAAQQQQAABBBBAAAF/BFgA8GcsiQQBBBBAAAEEEEAAAQQQQACBqgIsAFSl4QEEEEAAAQQQQAABBBBAAAEE/BFgAcCfsSQSBBBAAAEEEEAAAQQQQAABBKoKsABQlYYHEEAAgXQEQvO1vtDs7U6nNVpBAAEE0hfY+9rl7r2vTvel3zItIoAAAggsF2ABYLkG3yOAAAJWBMp9xhQmQ7NvODT9W6x0gUYRQACBBAT6jtzcsmdkZrhcbpksF0xfAk1wSgQQQACBOgRYAKgDi0MRQACBhAUOGTM/FZpnBhNuh9MjgAACiQvsOTY92Nq6IO9poby38YUAAggg4IJAiwudoA8IIIAAAvcFOowJj8jdAANyV8BgYF4fv/8I3yCAAAIZENBb/csbzHAYml0Z6C5dRAABBHIlwAJAroabYBFAIEMC8otz+S1ZCDgt/5eFgDNTGeo7XUUAgRwKaJ6/3Oo/XDZmvwlzCEDICCCAQAYEWADIwCDRRQQQyLXAfrkTYL8sBLxkTOtwYMZu5VqD4BFAwDkBzfOXW/0Hy2Vz2LnO0SEEEEAAgYcEqAHwEAd/QQABBJwVkF+s54tLqQHO9pGOIYBAzgSeGrk2sLF1oShhM/nP2dgTLgIIZFOAOwCyOW70GgEE8inQJWGfqNQHGKI+QD4vAqJGwAWBKM+/YIakL70u9Ic+IIAAAgjUJsACQG1OHIUAAgi4JCC/cGt9gKdPSsFAWQg4M+VS5+gLAgj4KxDl+S9uGCoH5oC/URIZAggg4K8AKQD+ji2RIYCA9wKB/AJe0LSAIe9DJUAEELAusHtkekiK/BVNoO89fCGAAAIIZFGAOwCyOGr0GQEEEHggINsGmsNLaQGh7Bbwy7EHD/EdAggg0LzA7uMz/WEYDsuZupo/G2dAAAEEELApwAKATX3aRgABBOITkF/Mg1OyEDAhp5SFgF9oUS6+EEAAgYYFpMBfT2CCYROGvUHDZ+GJCCCAAAIuCbAA4NJo0BcEEECgeYFeOcX5pfoAm2QhgG0DmyflDAjkSyDa1m/jXfnEn1v98zXyRIsAAnkQoAZAHkaZGBFAIIcC+ov7/FRonhnMYfCEjAACDQrsOTY92Nq6MEWef4OAPA0BBBBwXIA7ABwfILqHAAIINCEg9QHCI5IWIIsAhQG2DWxCkqci4LmAbuu3WDCjIXn+no804SGAQN4FWADI+xVA/AggkAcBqQ+g2wZqfYCyLAScmcpD0MSIAALrC0Tb+pVbRsvGkOe/PhdHIIAAApkXYAEg80NIAAgggEDNAr1yJ8CkLAS8ZEzrMPUBanbjQAS8E4jy/FsXBstlc9i74AgIAQQQQKCqADUAqtLwAAIIIOCtgPzCr/UB9g14GyGBIYBAVQGp7j8Q5fnLFqJVD+IBBBBAAAEvBbgDwMthJSgEEEBgXQGpD2BOVOoDyG4Br4+v+wwOQACBTAtonn95g5Ft/cyuTAdC5xFAAAEEGhZgAaBhOp6IAAIIeCEgE4GoPsBp+b8sBJyZ8iIqgkAAgfsClTz/Ycnz3y+Tf74QQAABBHIswAJAjgef0BFAAIFlAvulPkCf3BEge39TH2CZC98ikFmBZXn+uh2o3vXDFwIIIIBAzgWoAZDzC4DwEUAAgWUCOkHQ+gBF6gMsU+FbBDIooHn+G1sXitJ1zfNn8p/BMaTLCCCAQBIC3AGQhCrnRAABBLIt0CXd1/oAA3JXwBD1AbI9mPQ+XwJRnn/BDEnUvfmKnGgRQAABBGoRYAGgFiWOQQABBPIpIBMIrQ/w9EljNkl9gLFb+WQgagTcF4hu9994d7gcmAPu95YeIoAAAgjYEiAFwJY87SKAAAKZEQhkQhFtGziUmS7TUQRyJLB7ZHoo2tYv0NcqXwgggAACCFQX4A6A6jY8ggACCCDwQCCqD7CUFhDK3QC/HHvwEN8hgIANgd3HZ/rDMByWtrtstE+bCCCAAALZE2ABIHtjRo8RQAABmwIy0QhOyULAhHRCFgJ+oUXG+EIAgRQFpMBfT2CCYROGvUGK7dIUAggggED2BVgAyP4YEgECCCBgQ6BXGj0vCwFHZdtAKRRIfQAbg0Cb+RLQPP9NrYtDoQkP5StyokUAAQQQiEuAGgBxSXIeBBBAIJ8CMhHR+gDPDOYzfKJGIB2BPcemBzXPn8l/Ot60ggACCPgqwB0Avo4scSGAAALpCUh9gPCI3A0giwCFAbYNTA+elvwX0G39FgtmNCTP3//BJkIEEEAgBQEWAFJApgkEEEAgJwJSH0C3Ddx3Wv4v9QHOTOUkbsJEIHaBva9d7i6XW4bLxuwnzz92Xk6IAAII5FaABYDcDj2BI4AAAokJ7Jc7AfbLQsBLUh9gmPoAiTlzYg8FNM9fbvUfLJfNYQ/DIyQEEEAAAcsC1ACwPAA0jwACCHgsIBMYrQ+wb8DjGAkNgdgEpLr/gOb5ywmZ/MemyokQQAABBJYLcAfAcg2+RwABBBCIW0DqA5gTlfoAkhbw+njcDXA+BLIuoHn+5Q1GtvUzu7IeC/1HAAEEEHBbgAUAt8eH3iGAAAK+CMjERusDPH1SCgbKtoHUB/BlYImjcYEoz39xw1A5MAdk8s8XAggggAACiQuwAJA4MQ0ggAACCDwQCA4YE/TLHQHD1Ad4oMJ3+RJYluc/aAKjd8nwhQACCCCAQCoC1ABIhZlGEEAAAQSWCeiER3Kc54vUB1imwre5ENA8/42tC8Wl1wCT/1wMOkEigAACDglwB4BDg0FXEEAAgZwJdEm8Wh9gQP4v9QF+oZMivhDwUkAm/j2BCeTOF9PrZYAEhQACCCCQCQEWADIxTHQSAQQQ8FpAJ0Tnl+oDbJKFgLFbXkdLcLkSiG7333hXJv6a/sIXAggggAACdgVIAbDrT+sIIIAAAvcFdIIUbRs4dP9HfINAhgV2j0wPRdv6BUz+MzyMdB0BBBDwSoA7ALwaToJBAAEEMi8Q1QdYSgsI5W6AX45lPiICyJ3A7uMz/WEY6u3+XbkLnoARQAABBJwWYAHA6eGhcwgggEBuBWTiFJyShYAJ2T5wgG0Dc3sdZCrwaFu/csuoCcPeIFM9p7MIIIAAAnkRYAEgLyNNnAgggEA2BXqNKUzKQsBR2TZwiPoA2RxE33utef6bWheHyuXwkO+xEh8CCCCAQLYFqAGQ7fGj9wgggEBeBGRipfUBnhnMS8DEmQ2BPcemBzXPPzRM/rMxYvQSAQQQyLcAdwDke/yJHgEEEMiSgNQHCI8s1QcoSH2A18ez1Hn66pfA3len+8obzHAYml1+RUY0CCCAAAI+C7AA4PPoEhsCCCDgp4BMuMpvyULAafm/LAScmfIzTKJyUaCS5z9cNma/CV3sIX1CAAEEEECgugALANVteAQBBBBAwG2B/VIfYL8sBLwk9QGGqQ/g9mBlvXea5y+3+g+Wy+Zw1mOh/wgggAAC+RWgBkB+x57IEUAAAV8EZEKm9QH2DfgSEHG4JfDUyLUBzfOXXjH5d2to6A0CCCCAQJ0C3AFQJxiHI4AAAgg4KSD1AcyJSn0A2S2A+gBOjlLGOhXl+RfMkHS7N2Ndp7sIIIAAAgisKsACwKos/BABBBBAIKMCMlHT+gBPn5SCgbIQcGYqo3HQbYsCUZ7/4oahcmAOWOwGTSOAAAIIIBC7AAsAsZNyQgQQQAAB+wKBTNyCfrkjYJj6APZHIys9WJbnP2gCo3eV8IUAAggggIBXAtQA8Go4CQYBBBBAYJmATuAOS32AotwR0L/s53yLwCMCu4/P9G9sXSjKA3LNMPl/BIgfIIAAAgh4IcAdAF4MI0EggAACCKwh0CV3A5ySuwEm5BjZNvAXOsnjC4FIQAr89QQmGDZh2BtgggACCCCAgOcCLAB4PsCEhwACCCBwX6BXvju/VB9gkywEjN26/wjf5E4gut1/491hWRw6kLvgCRgBBBBAILcCpADkdugJHAEEEMirgE74om0Dh/IqkPe4d49MD0Xb+gVM/vN+LRA/AgggkDcB7gDI24gTLwIIIICACkT1ASrbBg6wbWA+Lgrd1m+xYEYlWkkL4QsBBBBAAIH8CbAAkL8xJ2IEEEAAgQcCMhHUbQO1PkBZFgLOTD14iO98EYi29Su3jJaNIc/fl0ElDgQQQACBhgRYAGiIjSchgAACCHgm0GtMYVIWAo7KtoFD1AfwY3Q1z39T6+JQuRwe8iMiokAAAQQQQKA5AWoANOfHsxFAAAEE/BKQiWJUH2DAr7DyF41U9x/QPP/QMPnP3+gTMQIIIIBANQHuAKgmw88RQAABBPIqoPUBTsjdAINyV4DsFvD6eF4hshi35vmXNxjZ1s/symL/6TMCCCCAAAJJCrAAkKQu50YAAQQQyLKATCCj+gCn5f+yEEB9AJcHs5LnPyx5/vtl8s8XAggggAACCKwiwALAKij8CAEEEEAAgWUC++VOgP1yR8BLUh9gmPoAy2Qc+Fbz/OVW/8Fy2Rx2oDt0AQEEEEAAAacFqAHg9PDQOQQQQAABhwRkgjlflIWAAYf6lOuuaJ7/xtaFoiAw+c/1lUDwCCCAAAK1CnAHQK1SHIcAAggggMDS/vFaH2BA7gqQ3QKoD2Djoojy/AtmSNrutdE+bSKAAAIIIJBVARYAsjpy9BsBBBBAwKaATDy1PsDTJ40JZSHgzJTNzuSl7SjPf3HDUDkwB/ISM3EigAACCCAQpwApAHFqci4EEEAAgZwJBDIRLWhawFDOAk893N0j00PlckvRBGrOFwIIIIAAAgg0IsAdAI2o8RwEEEAAAQQeCOi2gYeX0gJC2S3gl2MPHuK7ZgV2H5/pD8NwWM7T1ey5eD4CCCCAAAJ5F2ABIO9XAPEjgAACCMQlIBPU4JQsBEzICWUh4BdanI6vBgWkwF9PYIJhE4a9QYPn4GkIIIAAAggg8LAACwAPe/A3BBBAAAEEmhXolROcl4WAo7JtoNQHGLvV7Anz9Hzd1m9T6+JQaMJDeYqbWBFAAAEEEEhDgBoAaSjTBgIIIIBAHgVkAjs/FZpnBvMYfCMx7zk2PdjauiBmTP4b8eM5CCCAAAIIrCfAHQDrCfE4AggggAACjQtIfYDwiNwNIIsAhQG2DVwdUrf1WyyY0ZA8/9WB+CkCCCCAAAIxCbAAEBMkp0EAAQQQQGANAakPoNsGan2AsiwEnJla49jcPBRt61duGS0bQ55/bkadQBFAAAEEbAqwAGBTn7YRQAABBPImIPUBCpOyEPCS1AcYzmt9AM3zl1v9B8tlczhvFwDxIoAAAgggYFOAGgA29WkbAQQQQCCvAjLx1foA+wbyBiDV/Qc0z1/iZvKft8EnXgQQQAAB6wLcAWB9COgAAggggEBOBaQ+gDlRqQ8g2wa+Pu6zg+b5lzcY2dbP7PI5TmJDAAEEEEDAZQEWAFweHfqGAAIIIJAHAZkQR/UBTsv/ZSHgzJRPQVfy/Iclz3+/TP75QgABBBBAAAGLAiwAWMSnaQQQQAABBJYJ7Jf6AH1yR8CwD/UBluX56zaIercDXwgggAACCCBgWYAaAJYHgOYRQAABBBBYJqATZa0PUMxyfQDN89/YulBcioXJ/7Lx5VsEEEAAAQSsCnAHgFV+GkcAAQQQQGBVgS75qdYHGJC7AoayUh8gyvMvmCHpe6/84QsBBBBAAAEEHBNgAcCxAaE7CCCAAAIILBOQibTWB3j6pDGbpD7A2K1ljznzbXS7/8a7w+XAHHCmU3QEAQQQQAABBB4RIAXgERJ+gAACCCCAgGsCgUyso20Dh1zr2e6R6aFoW79A+8gXAggggAACCLgswB0ALo8OfUMAAQQQQOCBQFQfYCktIJS7AX459uCh9L/bfXymPwzDYWm5K/3WaREBBBBAAAEEGhFgAaARNZ6DAAIIIICAPQGZcAenZCFgQtIDBtLeNrCyrd+oCcPewJ4BLSOAAAIIIIBAAwIsADSAxlMQQAABBBBwQKBXCgROykLAUdk2UAoFJlsfQPP8N7UuDpXL4SEHYqcLCCCAAAIIINCAADUAGkDjKQgggAACCDgkIBNyrQ/wzGBSfdpzbHpQ8/xDw+Q/KWPOiwACCCCAQBoC3AGQhjJtIIAAAgggkKyA1AcIj8jdALIIUJC0gNfH42hOt/VbLJjRkDz/ODg5BwIIIIAAAtYFWACwPgR0AAEEEEAAgdgEpD6Abhu477T8XwoFnplq5MyVPP/hsjH7yfNvRJDnIIAAAggg4KYACwBujgu9QgABBBBAoBmB/XInwH5ZCHhJ6gMM11ofQPP85Vb/wXLZHG6mcZ6LAAIIIIAAAm4KUAPAzXGhVwgggAACCMQhIBN5rQ+wb2C9kz01cm1A8/zlOCb/62HxOAIIIIAAAhkV4A6AjA4c3UYAAQQQQKBGAakPYE5U6gNIWsDD9QE0z7+8wQyb0Oyq8XwchgACCCCAAAIZFWABIKMDR7cRQAABBBCoU0Am+Fof4OmTUjBw6OnXTpjy4oahcmAOyOSfLwQQQAABBBDIgQApADkYZEJEAAEEEEDgnkApKB/4Hx/54Hf/3y9+9LuFD//vgXs/5/8IIIAAAggg4L8ACwD+jzERIoAAAgggEAmMbrp259Nbi6V/23x559//9493vn3kq6UrZ392Bx4EEEAAAQQQyIcACwD5GGeiRAABBBDIscAfW2bN57ZcuHrwscm2m8GC1gSIvhbu/LPj4ukX284d+/rV21feu/dj/o8AAggggAACngqwAODpwBIWAggggAACpWDRfOPxP1/9Ysc75t0Nczuridy+dnHnuePPmj/95PmrC3P/rHYYP0cAAQQQQACBjAuwAJDxAaT7CCCAAAIIrCbwYvvfSl3bzt55vfVm1Yn/yufdeP/XO3/3wy/dmXzzldLKx/g7AggggAACCGRfgAWA7I8hESCAAAIIIHBf4H9t/Kf5xLazpVfa/tExb8K2+w/U+E24eLftg//4947f/uDzpdLkH2p8FochgAACCCCAQBYEWADIwijRRwQQQAABBNYRuFT40Hyh452ZvR99zyzP81/naVUf1voAfzzx38y54/0zc7f+XvU4HkAAAQQQQACB7AiwAJCdsaKnCCCAAAIIPCKgef4HH/vLzKe2Fs07LbOdjxzQ5A9uX3m/8+0ffcVcHPv+DPUBmsTk6QgggAACCFgWYAHA8gDQPAIIIIAAAo0KHG27PKd5/qObpmOf+K/s05VzP+/U+gAf/ObHcysf4+8IIIAAAgggkA0BFgCyMU70EgEEEEAAgfsCmuf/ya3nZ77X/tfNjeT53z9Rnd9ofYDJX728+Q+vPDlDfYA68TgcAQQQQAABBwRYAHBgEOgCAggggAACtQhonr/k+Ed5/h8U5hP/1L9anz4sXe7U+gDyh/oA1ZD4OQIIIIAAAg4KsADg4KDQJQQQQAABBJYLaJ6/buunef7y6b+1if/yPun3chdAVB9Atw2kPsBKHf6OAAIIIICAewIsALg3JvQIAQQQQACB+wKjm67d6dp6bk639bv/Q8e+0W0Df//yl+eunP3ZHce6RncQQAABBBBAYJkACwDLMPgWAQQQQAABVwQ0z/9zWy5cPfjYZNt8UN7sSr+q9aO8ML/54ukX284d+/pV6gNUU+LnCCCAAAII2BVgAcCuP60jgAACCCDwkIDm+X/j8T9flVx/8+6GuZ0PPZiBv9y+dnGn1gf400+evzp36+8Z6DFdRAABBBBAID8CLfkJlUgRQAABBBBwV0Dz/P+17R+lf2u7vPGuCTM38V8pe+P9X++8eXFi9hP/5bm7//Jf/3tHy+aPrjyEvyOAAAIIIIBAygLcAZAyOM0hgAACCCCwUmCs9cbsp7cWS5rnL5P/9pWPZ/Xv4eJCu9YHePvIV0sz774xm9U46DcCCCCAAAK+CLAA4MtIEgcCCCCAQOYE/tgyG+X5f/Pxi+03gwVni/w1C7tw558d7/30u+1aH+D2lfeaPR3PRwABBBBAAIEGBVgAaBCOpyGAAAIIINCogN7ur3n+X+x4J5N5/o3GrfUBzh1/NqoPwLaBjSryPAQQQAABBBoXYAGgcTueiQACCCCAQN0CR9suz3VtO3vn9dabmc/zrzv4yhO0PsDvfvilOx/85sdzjZ6D5yGAAAIIIIBA/QIsANRvxjMQQAABBBCoW0C39fvEtrOl77X/dfO8CdvqPoFnTwgX77ZN/urlzb/9wedLbBvo2eASDgIIIICAswIsADg7NHQMAQQQQMAHAd3W7wsd78zotn4+5/k3OlZaH0C3DTx3vH+GbQMbVeR5CCCAAAII1CbAAkBtThyFAAIIIIBAXQKa53/wsb/MfGpr0bzTMttZ15NzePDtK+93vv2jr5iLY9+foT5ADi8AQkYAAQQQSEWABYBUmGkEAQQQQCBPAqObrt3p2npubnTTNBP/Ogf+yrmfd/7+5S/PXTn7szt1PpXDEUAAAQQQQGAdARYA1gHiYQQQQAABBGoV0Dz/T249P3Pwscm2+aC8udbncdzDAuWF+c0XT7/Y9odXnpyhPsDDNvwNAQQQQACBZgRYAGhGj+cigAACCCAgAprnLzn+UZ7/B4V5PvWP6ar4sHS5U+sDyB/qA8RkymkQQAABBPItwAJAvsef6BFAAAEEmhDQPP8X2/9W0jx/+fSfiX8Tlms9Ve4CiOoDTL75Son6AGtJ8RgCCCCAAAJrC7AAsLYPjyKAAAIIILCqgOb5f3prsfRK2z86Vj2AH8Yu8MF//HvH20e+WqI+QOy0nBABBBBAICcCLADkZKAJEwEEEEAgHgHN8//clgtXNc+fbf3iMa3nLLptoNYHOHfs61epD1CPHMcigAACCCBgDAsAXAUIIIAAAgjUIKC3+3/j8T9flVx/8+6GuZ01PIVDEhS4fe3iTq0P8KefPH+VtIAEoTk1AggggIBXAiwAeDWcBIMAAgggkISA5vl3bTt75/XWm0z8kwBu4pw33v/1zt/98Et3tD5AE6fhqQgggAACCORCgAWAXAwzQSKAAAIINCIw1npj9hPbzkZ5/vMmbGvkHDwneYFw8W6b1gf47Q8+X5p5943Z5FukBQQQQAABBLIpwAJANseNXiOAAAIIJCjwx5bZKM//m49fbCfPP0HomE+t9QHe++l327U+wO0r78V8dk6HAAIIIIBA9gVYAMj+GBIBAggggEBMAprnf/Cxv8x8seMd8vxjMrVxGq0PcO74s+bi2PdnqA9gYwRoEwEEEEDAVQEWAFwdGfqFAAIIIJCqwNG2y3Oa5z+6aboz1YZpLDGBK+d+3qn1AT74zY/nEmuEEyOAAAIIIJAhARYAMjRYdBUBBBBAIH4B3dZP8/y/1/7XzeT5x+9r+4xaH2DyVy9v1voAbBtoezRoHwEEEEDAtgALALZHgPYRQAABBKwIXCp8aL7Q8c6MbutHnr+VIUi1Ua0PoNsGnjvePzN36++ptk1jCCCAAAIIuCLAAoArI0E/EEAAAQRSEdA8f93W71Nbi+adlllu909F3Z1Gbl95v/PtH33F6LaB1AdwZ1zoCQIIIIBAOgIsAKTjTCsIIIAAAg4IjG66dqdr67m5V9r+0eFAd+iCRQHdNvD3L3957srZn92x2A2aRgABBBBAIFUBFgBS5aYxBBBAAAEbAprn/8mt52cOPjbZNh+UN9voA226J1BemN988fSLbX945ckZ6gO4Nz70CAEEEEAgfgEWAOI35YwIIIAAAo4IaJ6/5PhHef4fFOa53d+RcXGtGx+WLndqfQD5Q30A1waH/iCAAAIIxCrAAkCsnJwMAQQQQMAFgXt5/p/ZemFWPv1n4u/CoGSgD3IXQOd/Ht0zS32ADAwWXUQAAQQQaEiABYCG2HgSAggggICrAprn/+mtxZLm+d81Ybur/aRfbgqEiwvtWh/g7SNfLVEfwM0xolcIIIAAAo0LsADQuB3PRAABBBBwSOCPLbPmc1suXNU8f7b1c2hgMtoV3TZQ6wOcO/b1q7evvJfRKOg2AggggAACDwuwAPCwB39DAAEEEMiYgN7u/43H/3z1ix3vmHc3zO3MWPfpruMCt69d3Hnu+LPmTz95/irbBjo+WHQPAQQQQGBdARYA1iXiAAQQQAABVwVebP9bqWvb2Tuvt95k4u/qIHnSrxvv/3rn7374pTtaH8CTkAgDAQQQQCCHAiwA5HDQCRkBBBDIusBY643ZT2w7G+X5z5uwLevx0P9sCISLd9u0PsBvf/D50sy7b8xmo9f0EgEEEEAAgQcCLAA8sOA7BBBAAAHHBXRbvy90vDPzzccvtpPn7/hgedw9rQ/w3k+/237ueD/bBno8zoSGAAII+CjAAoCPo0pMCCCAgGcCmud/8LG/zHxqa9G80zLLtn6ejW9Ww7l95f3Ot3/0FXNx7Psz1AfI6ijSbwQQQCBfAiwA5Gu8iRYBBBDInMDRtstzmuc/ummaiX/mRi8fHb5y7uedWh/gg9/8eC4fERMlAggggEBWBVgAyOrI0W8EEEDAc4H/tfGfRvP8v9f+183k+Xs+2B6Ep/UBJn/18matD1Ca/IMHERECAggggICPAiwA+DiqxIQAAghkWEDz/Pd+9L0Z+WPI88/wQOa061of4I8n/puRP9QHyOk1QNgIIICAywIsALg8OvQNAQQQyJGA5vnrtn6a5y+f/nO7f47G3sdQ5S6AqD6AbhtIfQAfR5iYEEAAgWwKsACQzXGj1wgggIBXAqObrt3p2npu7pW2f3R4FRjB5F5Atw38/ctfnrty9md3co8BAAIIIICAdQEWAKwPAR1AAAEE8iugef6f3Hp+5uBjk23zQXlzfiWI3GeB8sL85ounX2z7wytPzlAfwOeRJjYEEEDAfQEWANwfI3qIAAIIeCegef7fePzPVzXP/4PCPLf7ezfCBLSawIely51aH+BPP3n+6tytv692CD9DAAEEEEAgUYGWRM/OyRFAAAEEEFgmoHn+/9r2j9K/tV3eeNeEO5c9xLcI5Ebgxvu/3nnz4sTsJ/7Lc3f/5b/+946WzR/NTewEigACCCBgV4A7AOz60zoCCCCQG4Gx1huzn95aLGmev0z+23MTOIEisIpAuLjQrvUB3j7y1dLMu2/MrnIIP0IAAQQQQCB2ARYAYiflhAgggAACywX+2DJrPrflwtVvPn6xnW39lsvwPQLG6LaB7/30u+3njn396u0r70GCAAIIIIBAogIsACTKy8kRQACB/Aro7f6a5//FjnfMuxvmuN0/v5cCkdcgcPvaxZ3njj8b1Qdg28AawDgEAQQQQKAhARYAGmLjSQgggAACawm82P63Ute2s3deb73JxH8tKB5DYIWA1gf43Q+/dGfyzVdKKx7irwgggAACCDQtwAJA04ScAAEEEEDgnoBu6/eJbWejPP95E7bd+zn/RwCB2gXCxbttWh/gtz/4fIltA2t340gEEEAAgfUFWABY34gjEEAAAQTWEdBt/b7Q8c6MbutHnv86WDyMQI0CWh9Atw08d7x/hm0Da0TjMAQQQACBNQVYAFiThwcRQAABBNYS0Dz/g4/9ZeZTW4vmnZbZzrWO5TEEEGhM4PaV9zvf/tFXzMWx789QH6AxQ56FAAIIILAkwAIAVwICCCCAQEMCR9suz2me/+imaSb+DQnyJATqE7hy7uedWh/gg9/8eK6+Z3I0AggggAACSwIsAHAlIE1wsoMAAEAASURBVIAAAgjUJaB5/p/cen7me+1/3Uyef110HIxA0wJaH2DyVy9v/sMrT85QH6BpTk6AAAII5E6ABYDcDTkBI4AAAo0JaJ6/5PhHef4fFOb51L8xRp6FQCwCH5Yud2p9APlDfYBYRDkJAgggkA8BFgDyMc5EiQACCDQsoHn+uq2f5vnLp/9M/BuW5IkIxC8gdwFE9QF020DqA8TvyxkRQAAB3wRYAPBtRIkHAQQQiFFgdNO1O5/eWoy29YvxtJwKAQRiFtBtA98+8tXSlbM/uxPzqTkdAggggIBHAiwAeDSYhIIAAgjEJaB5/p/bcuHqwccm29jWLy5VzoNAsgK6beDF0y+2nTv29avUB0jWmrMjgAACWRVgASCrI0e/EUAAgQQENM//G4//+ark+pt3N8ztTKAJTokAAgkL3L52cafWB/jTT56/Onfr7wm3xukRQAABBLIkwAJAlkaLviKAAAIJCmie/2e2Xph9vfUmE/8EnTk1AmkJ3Hj/1zv/8+ieWa0PkFabtIMAAggg4LYACwBujw+9QwABBBIXGGu9MfuJbWejPP+7JmxPvEEaQACB1ATCxYV2rQ/w2x98vjTz7huzqTVMQwgggAACTgqwAODksNApBBBAIHmBP7bMRnn+33z8Yjt5/sl70wICNgW0PsB7P/1uu9YHuH3lPZtdoW0EEEAAAYsCLABYxKdpBBBAwIaAbuunef5f7HiHPH8bA0CbCFgU0PoA544/G9UHYNtAiwNB0wgggIAlARYALMHTLAIIIGBD4Gjb5bmubWfvkOdvQ582EXBHQOsD/O6HX7rzwW9+POdOr+gJAggggEDSAiwAJC3M+RFAAAEHBHRbP83z/177XzfPm7DNgS7RBQQQsCwQLt5tm/zVy5u1PgDbBloeDJpHAAEEUhJgASAlaJpBAAEEbAjotn5f6HhnRrf1I8/fxgjQJgLuC2h9AN028Nzx/hm2DXR/vOghAggg0IwACwDN6PFcBBBAwFEBzfM/+NhfZj61tWjeaZntdLSbdAsBBBwSuH3l/c63f/QVc3Hs+zPUB3BoYOgKAgggEKMACwAxYnIqBBBAwAWB0U3X7nRtPTc3ummaib8LA0IfEMiYwJVzP+/8/ctfnrty9md3MtZ1uosAAgggsI4ACwDrAPEwAgggkBUBzfP/5NbzMwcfm2ybD8qbs9Jv+okAAu4JlBfmN188/WLbH155cob6AO6NDz1CAAEEGhVgAaBROZ6HAAIIOCKgef6S4x/l+X9QmOdTf0fGhW4g4IPAh6XLnVofQP5QH8CHASUGBBDIvQALALm/BABAAIGsCmie/4vtfyt9ZuuFWfn0n4l/VgeSfiOQAQG5C6DzP4/umZ1885US9QEyMGB0EQEEEKgiwAJAFRh+jAACCLgsoHn+n95aLL3S9o+OuyZsd7mv9A0BBPwQCBcX2j/4j3/vePvIV0vUB/BjTIkCAQTyJ8ACQP7GnIgRQCDDAprn/7ktF65qnj/b+mV4IOk6AhkW0G0DtT7AuWNfv0p9gAwPJF1HAIFcCrAAkMthJ2gEEMiagN7u/43H/3xVcv3Nuxvmdmat//QXAQT8E7h97eJOrQ/wp588f5W0AP/Gl4gQQMBPARYA/BxXokIAAY8ENM+/a9vZO6+33mTi79G4EgoCvgjceP/XO3/3wy/d0foAvsREHAgggICvAiwA+DqyxIUAApkXGGu9MfuJbWejPP95E7ZlPiACQAABbwXCxbttWh/gtz/4fGnm3TdmvQ2UwBBAAIGMC7AAkPEBpPsIIOCfwB9bZqM8/28+frGdPH//xpeIEPBZQOsDvPfT77ZrfYDbV97zOVRiQwABBDIpwAJAJoeNTiOAgI8Cmud/8LG/zHyx4x3y/H0cYGJCIEcCWh/g3PFnzcWx789QHyBHA0+oCCDgvAALAM4PER1EAIE8CBxtuzynef6jm6Y78xAvMSKAQD4Erpz7eafWB/jgNz+ey0fERIkAAgi4LdDidvfoHQIIIOC/wP6P/r/v/3rjremyMf/if7REiAACeRPQ+gCTb/zr3279n9+8n7fYiRcBBBBwTYA7AFwbEfqDAAK5E/if//w/P924uPiZIAhekuCpop27K4CAEfBaoKTvbZsW7n7mH7//nz/1OlKCQwABBDIgwAJABgaJLiKAgP8Ct+RrdmZmKFxc7JFoT/sfMREigEAOBE7re5q+t+l7XA7iJUQEEEDAeQEWAJwfIjqIAAJ5Epi7dWvqzvXr/WEQPGnC8EKeYidWBBDwREDeu/Q9TN/L9D3Nk6gIAwEEEPBCgAUAL4aRIBBAwDeBuZmZ8Ts3bvSExjwnsZEW4NsAEw8CfgqU9D1L37v0PczPEIkKAQQQyLYACwDZHj96jwACngvMXb8+umlxsbtSH8DzaAkPAQSyKhDl+ct7lb5nZTUG+o0AAgjkQYAFgDyMMjEigECmBZbVB3hCApnIdDB0HgEEfBOYkDz/J8jz921YiQcBBHwVYAHA15ElLgQQ8E6gUh+gL6oPYMwl7wIkIAQQyJLApUqefx95/lkaNvqKAAJ5F2ABIO9XAPEjgEDmBKL6ANevd0uRwBek89QHyNwI0mEEMi1Q0vceKfDXTZ5/pseRziOAQE4FWADI6cATNgIIZF9ACm0Na30AieRo9qMhAgQQyIDAUX3P0feeDPSVLiKAAAIIrCLAAsAqKPwIAQQQyIqA1geQT+IGC4XCZ6XP1AfIysDRTwSyJTCh7zH6XqPvOdnqOr1FAAEEEFguwALAcg2+RwABBDIqcHt6uii/nPcFxjwrIVAfIKPjSLcRcEzgkr6n6HuLvsc41je6gwACCCDQgAALAA2g8RQEEEDAVYHZ69fH5Jf1e9sGUh/A1YGiXwi4LVDSbf30vUTfU9zuKr1DAAEEEKhHgAWAerQ4FgEEEMiIgG7JJVtz9cindycz0mW6iQACDgjoe4a+d+h7iAPdoQsIIIAAAjELsAAQMyinQwABBFwR0K255NO7gcq2gROu9It+IICAkwIT+l6h7xls6+fk+NApBBBAIBYBFgBiYeQkCCCAwKMCT41c69k9Mj3+kf/nE1c2d3b2PXpEOj+pbBvYFxrznLR4KZ1WaQUBBDIicEnfGzTP3+a2fvoeuW3bjiuh2Tcuf3oyYkc3EUAAgcwJsACQuSGjwwgg4LpA35GbW3YfuzYamOC89LW3fHduZxCGb7Vt3z6+ecuWblv9n7t+fVS28OrR3F5bfaBdBBBwR0DfC/Q9Qd8bbPVK3xP1vVHfI+8E5Z3Sj175cz40T4+Gpn+LrX7RLgIIIOCrAAsAvo4scSGAgBUB+cR/qLV1YcoEwYFVOtAbbNgwKb/sDm+Rr1UeT/xHuoVXpT7AE9LY6cQbpAEEEHBR4LTk+T+h7wW2tvXT90B9L9T3RAHSSf+KL30PnZ+SuwGGVjzAXxFAAAEEmhBgAaAJPJ6KAAII3BPY++p031Mj01Py98Pyp+Pez6v8/9CHGzZMtW3bNljl8cR/rDm+cstvf1QfIAwvJN4gDSCAgH0Bea3ra15f+zbz/PW9T98DBeTQOij6XnpYFgFkIeBrfescy8MIIIAAAjUIsABQAxKHIIAAAtUE9r52uVvz/MsF81ZgTFe141b5eYfcJXBEfhEuWq8PcONGT7hUH4BtA1cZKH6EgAcCJX2N35HXuu08f33P0/c+MV1voXQ5u7y3lt9aqg+wt3v5A3yPAAIIIFCfAAsA9XlxNAIIIBAJaJ7/npGZ4XK5ZVJ+0NswSxDsqtQHGHOgPkC3xHG04Vh4IgIIuChwVPL8ux3I8x/T9zqZ/O9qAkneawuTshAwTH2AJhR5KgII5FqABYBcDz/BI4BAIwJ7jk0Pap5/aMJDjTy/ynP2ay5se2fnkM36AHJr8KDmBksfJ6r0kx8jgEA2BCb0tayvaZt5/vqeVsnz3x8jm7z3an2AZ6ylUcUYC6dCAAEEUhVgASBVbhpDAIEsC2ie/+7j08UwMEckjo4kYgnD8LDmxm7evn0gifPXcs5KfYC+qD4A2wbWQsYxCLgkcKmS599nM89f38P0vUzf0xLCkffg8IjcDVCkPkBCwpwWAQS8FGABwMthJSgEEIhToJLnP6Z5/iY0u+I8d5VzdUg9gRPRtoGyN3aVYxL/seYKy6eH3SYMX5DGqA+QuDgNINCUQElfq/qatZ7nr9v6yXuYRJPIQukKJXlPjuoDjIWG+gArbPgrAggg8IgACwCPkPADBBBAYElA8/x1W79Knv9+Cy69mjPbvn37qM36AFI4bFhziOUX+pMWDGgSAQTWEdDXpr5G9bW6zqGJPazvUfpeFeX5N1MXpfEeynt0VB9giPoAjSPyTAQQ8F+ABQD/x5gIEUCgAYGnRq4NaJ6/PDWp21dr7lVozAHJoS1qLm3NT4r5QM0hnr1+faBQKHxWTj0R8+k5HQIINCYwoa9JfW3ayvPXblfy/OVWfHOgsTBifZa8Z2t9gH0DsZ6VkyGAAAKeCLAA4MlAEgYCCMQjEOX5y7Z+gQlOyBnTuH211o53aC6tpAVMyads/bU+Ke7jbk9PF+UW4z75xPFZOfeluM/P+RBAoCaBS/oa1NeiviZrekYCB+l7kb4nVfL8nXq/lHBPLG0b+LW+BELnlAgggEBmBVgAyOzQ0XEEEIhTIMrzP3ZtNMrzt3P7aq3hdMmnbKe0PsBHduzoqfVJcR8nnziOyS3HPUEQvCTnpj5A3MCcD4HVBUr6mtPXnr4GVz8k+Z/qe4++B+l7kbTWlXyLDbfQu1Qf4OlR6gM0bMgTEUDAMwEWADwbUMJBAIH6BJbl+Rdlf+oD9T3b6tG95XL5vObc2tw2cHZmZki2GuuRTyNPWtWgcQQ8F9DXmL7W9DVn63Z/fa/R9xx97xFumVxn5Uvf2wuSorCP+gBZGTL6iQACiQmwAJAYLSdGAAHXBXYfn+nf2Lqgt88elj8u3b5aM10oObe61Vbbtm2DNT8p5gN1qzHNQa5sGzgR8+k5HQJ5F5jQ15a+xmxu66fvMdG2fm7k+TdyTeh7vLzXz8tCwNP9jZyA5yCAAAI+CLAA4MMoEgMCCNQlIAX+eqS6/7hsmXVKPlXrquvJbh7cIXcvHNFc3M32tw3sk0WJ54SJtAA3rxV6lR2Bkr6WNM/fgW39pvQ9RugyuVC6YsjlPT84tVQfYF/Pisf4KwIIIOC9AAsA3g8xASKAwD2B6HZ/yfOXAn/n5We9937u0f+7dAsuzc21uW3g3PXro9G2gUv1ATziJRQE0hGo5Pl362spnRYfbUXfQ/S9pLKtn0yavfvSfwPOy90AUh+gf4t30REQAgggUEWABYAqMPwYAQT8EthzbHow2tYvW3n+jQ5Cr2wbOCm/vA87UB/gCQnidKOB8DwEciZwWvL8n7Cd56/vHfoeIvY+LpSuuKS0PoBuG/iMtTSqFR3irwgggECiAiwAJMrLyRFAwLaAbuv31Mj0VBgYX25frYf0kObsbt6+faCeJ8V5rOYsyy3M/VF9gDC8EOe5ORcC3gjIa0NfI/pasZnnr+8V+p4hroe8sa0tEEltCI9IWoAsBLBtYG1kHIUAAlkVYAEgqyNHvxFAYE2BaFs/yfPXbf08yfNfM941HuyQ+E9IAa+i9foAN270SN2FF6Sv1AdYY8B4KFcCJX1N3JHXhvU8f3mP0PcK0ZfJcG6/upa2Ddw3zraBub0GCBwB7wVYAPB+iAkQgXwJaJ7/npGZ4XK5ZVIi781X9GtEGwS7KvUBxmzWB5CJzrDWB5CeHl2jtzyEQB4EjuprQV8TtoKt5PmPRXn+8h5hqx8Otiv/dhQm5Y6AYeoDODg6dAkBBJoSYAGgKT6ejAACLglIdf8BzfMPTZi321frGYb9mtvb3tk5ZLM+gNzqPKi5ztLxiXo6z7EIeCAwode+vgZuyZeNePS1r+8BlTz//Tb6kJE25d8SrQ+wbyAj/aWbCCCAwLoCLACsS8QBCCDguoDm+e8+Pi23rwYnpK8drvfXhf6FYXhYcn2LDtQH6JPbjp8Vk0suuNAHBBIUuKTXukz8+xzI8y/qe0CCsfp0av035YQsAhSpD+DTsBILAvkVYAEgv2NP5AhkXqCS5z+mef4mNLsyH1D6AXTJhOREtG1gZ2df+s0vtTh7/fqYTIq6desz+Qn1AWwNBO0mJVDSa1uvcb3Wk2pkvfNqDZBoW7+lPP+u9Y7n8UcE5N+Y8luyEDBGfYBHbPgBAghkSIAFgAwNFl1FAIElAc3z3z0yPVTJ89+PS9MCvZoD3L59+6ittACNQLc+05xoWZQ42XREnAABBwT0WtZrWq9tW92JbveX13aU509dlDiGQf7NieoDDFEfIA5OzoEAAmkLsACQtjjtIYBAUwKa57+xdaEoJ+H21aYkH31yaMwB3QJMc4MffTSdn2hOtHxKOlAoFD4rLU6k0yqtIBC7wIRew3ot28rz14j0tayvaX1txx4hJ5R/g+YlLYD6AFwKCCCQLQEWALI1XvQWgdwKRHn+sq2f5vnLp2pduYVIPvAOzQ2WW4Wn5I6A/uSbW72F29PTRc2VlonLc3LEpdWP4qcIOCdwSa9ZvXb1GrbVO33t6mu4kuffYasfOWhX/y3S+gDj1AfIwWgTIgKeCLAA4MlAEgYCvgpEef7Hro1Gef7cvprmMHfJROaU5gx/ZMeOnjQbXt7W3PXro3ILdQ/1AZar8L2DAlGev16res3a6p++VvU1q69d6YNOTvlKR6B3qT7A06PUB0gHnFYQQKBxARYAGrfjmQggkLBAJc+/aILgQMJNcfrqAr3lcvm8TCqGbdUHiNICJIdatk7rkbs/TlbvKo8gkL6AXpN6bWqev63b/fW1qa9Rfa2KgExG+bIjoP9WFTQtYMhO+7SKAAIIrC/AAsD6RhyBAAIpC+w+PtP/1Mj0lDR7WP5w+2rK/lWaO6S5xG3btg1WeTzxH+vWaZpTHQbBkyYMLyTeIA0gsJaAXIN6Leo1aXNbP31N6mtTunpore7yWGoC+m/WYVkEmArN09bSqFKLloYQQCBzAiwAZG7I6DAC/gpIgb8e+dR/XCZ3p+RTtS5/I81sZB1yN8YR+aRxSrcUsxXF3MzM+J0bN3rCpfoAbBtoayDy225Jrz29BvVatMVQ2dZvSl+T0gcWSm0NRPV25d+w4NRSfYB91tKoqnePRxBAIK8CLADkdeSJGwGHBHRbvz0jM8NS4O+8dKvXoa7RldUFunRLMc013rxlS/fqhyT/00p9gO5KfYDkG6SF3Avotabb+tnM89fXnL72Ktv6ySSTL8cF9N+087IQMMy2gY6PFN1DICcCLADkZKAJEwFXBfYcmx5sbV2QWyXDQ672kX5VFegNNmyY1K3GHKgP8IT08nTVnvIAAs0JnJY8/yds5/nra01fcxIKC6XNjaeNZ8u/cfPyb90z1tKobARNmwgg4J4ACwDujQk9QiAXArqtn+b5h4E5IgF35CJoT4PUrcY0B3nz9u0DtkLUHGzZeq0/qg/AtoG2hsHHdi/pNaXXls08f31t6Wussq2fj855iUn+rQuPLNUH+FpfXoImTgQQcEuABQC3xoPeIOC9QLStn+T567Z+5Pl7NdwdMp4npCBZ0Xp9gOvXu6WOxAuiS30Ary6xVIMp6TUkE/9u63n+8prS15ZEz0JpqpdAoo11LW0buG+cbQMTdebkCCCwigALAKug8CMEEIhfQPP8K9v6cftq/LzunDEIdlXqA4zZrA8gBdqGNVdbYI66g0NPMiJwVK8dvYZs9beS5z8W5fnLa8pWP2g3cQFJ5ShMyh0BQ9QHSNyaBhBAoCLAAgCXAgIIJC4g1f0HNM9fGjqceGM04IrAfslVLtquDyCf4A4WCoXPCsqEKzD0w1mBCb1W9Jq5JV82eqm1NCp5/kVpf7+NPtCmFQH5t1HrA+wbsNI6jSKAQK4EWADI1XATLALpCmie/+7j03L7anBCWub21XT5XWito1IfoGizPsDt6emiTOr65DbqZwXlkgsw9MEpgUt6beg1oteKrZ5V8vyLlTx/3i9tDYS9dnXMT8giQDE01AewNwy0jID/AiwA+D/GRIhA6gKVPP8xzfM3odmVegdo0DWBLplgndCtyz6yY0ePrc7NXr8+JpO8e9sGUh/A1kC4025Jt/XTa0KvDVvd0tdEtK3fUp5/l61+0K4zAvJvZvktWQgYoz6AM2NCRxDwSoAFAK+Gk2AQsCuwLM+f21ftDoWrrfeWy+Xz7du3j9raNlBhdCs3zfGWRYmTrkLRr2QFdOz1GtBrIdmWqp89ut1fXgv6mpCjeqsfySM5Fdgv9QHkbgDqA+R0/AkbgcQEWABIjJYTI5AvAc3z39i6oBN/yWXkdv98jX590YbGHNAtzTTXub5nxne05njLp74DlW0DJ+I7M2dyXGBCx1zH3laev/rotR9t6yevBce96J5dgQ5pXv5NndeFgAG7XaF1BBDwRYAFAF9GkjgQsCQgE/8eqe4/rnn+8qlal6Vu0Gz2BKL6AHLr85TcEdBvq/u6xZvmfsuixHPSh0u2+kG7iQtc0jHWsba5rZ9e63rNk+ef+Hj71oD+26r1AcblT49vwREPAgikK8ACQLretIaANwLR7f7Hro3KxJ/bV70ZVSuBdMnE7JTmQNvcNnDu+vVRuSW8R3PCRYH6AFYuhUQajfL8dWx1jBNpoYaTVrb1k8mbOSWH62SOLwQaEeiVJ50PzdOjbBvYCB/PQQABFWABgOsAAQTqFpBP/Ieibf2C4EDdT+YJCKwu0CvbBk7KQsCwrfoAUVqA5ISHMlmULp5evZv8NEMCp3UsNc/f1u3+ei3rNa3Xtrjp5I0vBGIQ0H97o20Dh2I4GadAAIGcCbAAkLMBJ1wEmhHYfXym/6mR6Sk5x2H5o7mJfCEQt8AhzY1u27ZtMO4T13q+uVu3puRW8f6oPkAYXqj1eRzniICMmY6djqGOpa1e6TWs17K0f8hWH2jXawH9N/iwpARMyR0B1tKovBYmOAQ8FWABwNOBJSwE4hSobOs3bsLwFHn+ccpyrioCHSYIjmiu9ObOzr4qxyT+46g+wI0bPeFSfQDSAhIXb7qBko7VHRkzm3n+es3qtavXsETEQmnTw8oJ1hHoMiY4tVQfYG/3OsfyMAIIIEAKANcAAghUF9A8/z0jM8PlcsukHNVb/UgeQSARga4gDN+SydSYA/UBuiv1ARIJlJM2J6Bjo9v6OZDnP6bXrEQjkzK+EEhVQP6NLkzKQsAw9QFSdacxBDInwB0AmRsyOoxAOgJ7jk0Pap5/aEJuX02HnFaqC+zXHGrdOs2B+gBPSDcnqneVR1IWmJA8/yds5/nrtVnJ89+fcvw0h8BKAfk3W+sDPGMtjWplh/g7Agi4JcACgFvjQW8QsC6w99XpPs3zDwNzRDrTYb1DdACBioBunaY51Zu3bx+whVKpD9AX1Qdg20Bbw6DtXqrk+ffZzPPXa1Gvycq2fjY9aBuB5QLyb3d4ZKk+wNf6lj/A9wgggAALAFwDCCAQCVTy/MfKBfMWef5cFA4LdMj1eUIKrBWt1we4fr1b6mK8IFbUB0jvgimpuRT467ae5y/XoF6LEjoLpemNPy3VJyCpKOW3ZCFgLDTUB6iPjqMR8FeABQB/x5bIEKhJQPP8dVu/Sp7//pqexEEI2BYIgl2aa92+ffuozfoAUnBuWHPPZSJ40jaJ7+2rsVqrua1Y9VrTay7K85dr0FY/aBeBOgXk3/aoPsAQ9QHqlONwBDwUYAHAw0ElJARqFXhq5NqA5vnL8YdrfQ7HIeCSQGjMAcm9LlqvD3D9+kChUPis2Ey45ONJXybUdlaMb8mXjZi09kQlz7+o15yNPtAmAjEIyL/1Wh9g30AM5+IUCCCQUQEWADI6cHQbgWYENM9/9/FpuX01OCHn4fbVZjB5rgsCHZX6AEX5dLbfVoduT08X5db0Pvmk+lnpwyVb/fCo3UtqqaZqaysuvaYkz79YyfPn/dLWQNBuXAJ6DZ+QRQBZzKI+QFyonAeBLAmwAJCl0aKvCDQpEOX5H7s2qnn+JjS7mjwdT0fANYEu+XT2lGwbOP6RHTt6bHVOPqke0xz1yraB1AeofyBKaqeGaln/0+N5hl5Dei3pNSVn7IrnrJwFAWcE5HcArQ/w9Cj1AZwZEzqCQCoCLACkwkwjCNgVWJbnXzRBcMBub2gdgcQFesvl8nnN1ba1baBGqFvTyRZ1PfIp9snEI/akAbVSM7WzFVJ0u79cO3oNSR96bfWDdhFIR0B/JyjI3QD7hqgPkI44rSBgW4AFANsjQPsIJCyw+/hM/8bWBb199rD86Ui4OU6PgDMCoeRq6xZtmrttq1O6RZ3mrle2DZyw1Y8MtDuhRmplc1s/vVaibf3I88/AJUMXYxTQ3w3kd4R5WQh4uj/G83IqBBBwUIAFAAcHhS4hEIeAFPjrker+47Jl1in5VK0rjnNyDgQyKBDVB5Bbuacc2DawTxYlnhPDSxl0TKrLl9RE8/ytb+sn1wh5/kkNM+fNiID8rhCckrsBJPVlX09G+kw3EUCgTgEWAOoE43AEXBeIbveXPH8p8Mftq64PFv1LU6BLt27TnG6b2wbOXb8+KlvZ9VTqA6QZv3NtqYFaqImtzum1oNdEtK0fC6W2hoF23RPolS6dX6oP0L/Fve7RIwQQaEaABYBm9HguAo4JyCf+Q9G2fuT5OzYydMchgV7ZNnBSJn3DtuoD6FZ2lfoAT4jLaYds0urKacnzf0INbG7rp9eAXgsStE52+EIAgUcEtD5AtG3g0CMP8QMEEMisAAsAmR06Oo7AAwHd1u+pkekp+clh+UOe/wMavkOgmsAhzfVu27ZtsNoBSf9cc93l1vf+qD5AGF5Iuj3r55cYNVaN2Waev465jr14HLJuQgcQcF8gqg8gKQFTbBvo/mDRQwRqEWABoBYljkHAUYFoWz/J89dt/cjzd3SQ6JbLAh2yK8YRmRAWrdcHuHGjJ1yqD+DjtoElje2OxGg9z1/GWsdcLkoWSl1+ZdI3FwW6lrYN1PoAe7td7CB9QgCB2gRYAKjNiaMQcEpA8/z3jMwMl8stk9KxXqc6R2cQyJpAEOyq1AcYc6A+QLfwHc0a4Rr9PSp5/t0O5PmPRXn+MtZr9JWHEEBgfQH5naMwKXcEDLNt4PpYHIGAiwIsALg4KvQJgTUE9hybHtQ8/9CEh9Y4jIcQQKB+gf2aE65bwdmsDyC3yA9qjrx0f6L+EJx5xoTGoLHYzPPXsazk+e93RoaOIOCHgPwOovUBnrGWRuUHI1EgkL4ACwDpm9MiAg0JaJ7/7uPTxTAwR+QEHQ2dhCchgMC6AroVnOSIFzdv3z6w7sEJHVCpD9AX1QfI1raBlyp5/n028/x17HQMK9v6JTRKnBaB3AvI7yLhEbkboEh9gNxfCwBkSIAFgAwNFl3Np0Alz39M8/xNaHblU4GoEUhdoEvqapyItg3s7OxLvfVKg5ozL5+id1e2DXS5PkBJ+6h9tZ7nr9v6ydgJYZetcaNdBHImIL+blN+ShYAx6gPkbOQJN5MCLABkctjodB4ENM9ft/Wr5Pnvz0PMxIiAgwK9mjvevn37qM36ALplnubSy8T2pGtG2iftm/bRVt90bHSMojx/6qLYGgbaRUB+V4nqAwxRH4CLAQF3BVgAcHds6FmOBZ4auTagef5CcDjHDISOgDMCoTEHJJe8qDnltjqlufSz168PFAqFz0ofJmz1Y1m7E9oX7ZOtPH/tSyXPX25BNgeW9Y1vEUDAnoD87qL1AfYN2OsCLSOAQDUBFgCqyfBzBCwIRHn+sq1fYIIT0nyHhS7QJAIIVBfo0JxySQuYkk+b+6sfluwjt6eni3KrfZ988v6stHQp2dZWPfslbVv7oH1Z9YgUfqhjoGNRyfPn/TIFc5pAoA4BfU2ekEWAceoD1KHGoQikIMACQArINIHAegJRnv+xa6NRnj+3r67HxeMI2Bbokk+bT2l9gI/s2NFjqzPyyfuY3Hrfk2J9gCjPX9vUtm3FreZqr2Mgfeiy1Q/aRQCBmgR6l+oDPD1KfYCavDgIgcQFWABInJgGEFhboJLnXzRBcGDtI3kUAQQcE+gtl8vnNffc5raBmnsvW+71yKfyJ5Py0XNrG9qWrdv91Vit1VzilEkFXwggkB0B/R2nIKk6+4ay02d6ioCfAiwA+DmuRJUBgd3HZ/qfGpmekq4elj/cvpqBMaOLCKwmEEruuWw5N9W2bdvgao+n8TPdck9z8SvbBk7E2OaEnlPPbXNbP7VVY7WOMTZOhQAC6Qro7zqHZRFAXstP96fbNK0hgMA9ARYA7knwfwRSEpACfz3yqf+4CcNT8qlaV0rN0gwCCCQr0CF38RzRnPTN9rcN7JOJ8nMSbjPbBpb0HJrn78C2flNqK/GwUJrsNczZEUhLQH73CU4t1QfYZy2NKq1gaQcB1wRYAHBtROiPtwLRtn6S5y8F/s5LkL3eBkpgCORboEu3otMcdZvbBs5dvz4abRsYBC/VOxxaU0Cfq+eo97lxHa92aljZ1k8mC3whgICHAvq70Hm5G0DqA/Rv8TA+QkLASQEWAJwcFjrlm8CeY9OD0bZ+5Pn7NrTEg0A1gV7ZNnBSJrHDDtQHeEI6ebpaR5f9/LTk+T9hO89fzdRO+sVC6bLB4VsE/BXQ+gC6beAz1tKo/LUlMgQeFWAB4FETfoJAbAK6rZ/m+YeB4fbV2FQ5EQKZEjikueubt28fsNVrzd2XW/n7K/UBLq3Sj0v6mB5jM89fjdRK+ndolT7yIwQQ8FtAUnzCI0v1Ab7W53eoRIeAXQEWAOz607qnAtG2fpLnr9v6BeT5ezrKhIVAzQId8j5wQgrZFR2oD9At9UdekJ5rfYCSfi8T/27ref5io0bSJ5kE8IUAAjkW6FraNnDfONsG5vgqIPREBVgASJSXk+dNQPP894zMDJfLLZMSe2/e4ideBBBYQyAIdlXqA4zZrA9w58aNYc3x1z/6/Ro9TvShSp7/WJTnLzaJNsbJEUAgawLyO1RhUu4IGKY+QNaGjv66LsACgOsjRP8yIyDV/Qc0zz80IbevZmbU6CgCVgT2S457sb2zc8hmfYBb8mUjeo1ZY1cDaX+/jT7QJgIIZEZAfqfS+gD7BjLTYzqKgOMCLAA4PkB0z30BzfPffXxabl8NTkhvO9zvMT1EAAEHBDrCMDwsOe9Fm/UB0nao5PkXNXZpm/fLtAeA9hDIpoC+V5yQRYBiaKgPkM0hpNcuCbAA4NJo0JdMCVTy/Mc0z9+EZlemOk9nEUDAFYGuqD6AbhvY2dnnSqfi7ofGFm3rt5Tn3xX3+TkfAgjkQkB+1yq/JQsBY9QHyMV4E2RCAiwAJATLaf0V0Dz/3SPTQ5U8//3+RkpkCCCQokCv5sK3b98+aistIIlYo9v9JaYoz5+6KEkQc04E8iggv3sV5G6AfUPUB8jj8BNzswIsADQryPNzJaB5/htbFzRvVW9f5QsBBBCIVSA05oBuhac58rGe2MLJNAaNRWOy0DxNIoCA3wIdEp78LjavCwEDfodKdAjEK8ACQLyenM1TgSjPX7b10zx/tvXzdJAJCwF3BKL6AHLL/JTcEdDvTrdq64n2WftOnn9tXhyFAAJNCXTJs7U+wDj1AZpy5Mk5EmjJUayEikDdAnq7f+vGu8PlgE+w6sbjCQgg0KxAl3x6fkom0xOFQmHw9vS03n3k7NdHduzoKZfLw9LnXmc7SccQQMBXAXnf0foAT580ZtNgYMZu+RoocSHQrAB3ADQryPO9FdA8f93WzwTBAW+DJDAEEMiCQK9MrM/LQsCwi/UBtE/aN+2jYDL5z8IVRR8R8FZAf2eLtg0c8jZEAkOgSQEWAJoE5On+Cew+PtP/1Mj0lER2WP5ojhlfCCCAgAsChzSnvm3btkEXOqN90L5on+TbQ/p3vhBAAAEHBKL6AJIWIDVIns5cGpUDfnTBcwEWADwfYMKrXUAK/PXIp/7jJgxPkedfuxtHIoBAqgIdclfSEc2xt7ltYGVbP71D6ohEz0JpqpcAjSGAQI0CXcYEp5bqA+zrqfE5HIaA9wIsAHg/xAS4noDm+e8ZmRmWAn/n5VhuX10PjMcRQMAFgS7dWk8WAsY3b9nSnVaHtC1ts7Ktn/xyzRcCCCDgvID+bndeFgKkRkn/Fud7SwcRSFiABYCEgTm92wJ7jk0Pap5/aMJD/z979x9bx3UfiH6GIilRckPHISX7JYGlBs4P47mm4+1uX4qsaLTx82sKmCpSoP3LV0GCRUQHkVJ0i90iCIUGWLRoETlOnD+X/rfAw8pAIssyiicVW2D7UODJ/aMFGnRjIW0M2YJlpl3/IOk775zLK4eWSIr398yczwUEUffOnHO+nzOS7nxnznfKPVKjI0CAwJYCR/M9e34cH7k3yPoAse3YR+wrjEKidMup8CYBAiUXCN/1Yn2Az5dmGVXJvQyvpgISADWdWGHtLBAf6xfX+Rd59u2w5fTOW/uUAAEC5RaIj9yLa/H3fehDjX6PNLYZ224/1q/fzWuPAAECwxQI3/mKb2/UB/jN+WF2rC8CZRHwGMCyzIRxDEWg9Vi/yfWzzXAFK6zz9yJAgECdBKbDv2v/NRbmG9uzp9HrYwNbj/V7993lAPRgnZDEQoAAgSAQljDFxwb+xqUsm1zw2EDHREoC7gBIabbFekPg4o0f/E6AAIHaCeT5g+Fq/UKvcbXaCG312o79CRAgUGKBiyUem6ERGIiABMBAWDVaVoGLpz74xoXF2aWxsfUjYYwh6+tFgAABAgQIECCQmED4Dtg8kmfnllz9T2zmhZtJADgIkhQ4/5V7Xg6JgPmxZvZIkWVXkkQQNAECBAgQIEAgLYHwnW/skXDiP59n519OK3TREtgQkABwJCQtcP6rsxdfXJw9nBfZqQCxkjSG4AkQIECAAAEC9RQI3/HyU+HE/3Ce/eBiPUMUFYHdCUgA7M7JVjUXeOHJ2TOrq+PhP4X8qZqHKjwCBAgQIECAQEoC4bvdZPiO98MzKQUtVgLbCUgAbCfj/eQEYn2AFxZnThZZ8VAIXn2A5I4AARMgQIAAAQI1Eojf5R4KV/1PWudfo1kVSs8CEgA9E2qgbgIvLh68HOsDZHl+TH2Aus2ueAgQIECAAIGaC4R1/sWxjXX+5y7XPFbhEehYQAKgYzI7pCJw4cTM2VgfIMR7OvwKa8e8CBAgQIAAAQIESioQv6ud3ljn//zZko7RsAiMXEACYORTYABlF2g/NnAuK4pnyz5W4yNAgAABAgQIpCcQv6M158LJ/1J6sYuYQGcCEgCdedk6UYHWYwOfPNiIjw0MBJcSZRA2AQIECBAgQKBMAuE7WXys3/MNj/Ur07QYS5kFJADKPDvGVjqB+NjAWB8gFAo8rj5A6abHgAgQIECAAIE0BK6EMI9vrPP3WL80plyU/RKQAOiXpHaSEgiFApfXVsfnQtCnkwpcsAQIECBAgACB0QqE716T8Xb/5dEOQ+8EqikgAVDNeTPqEgjExwa26wMcCcN5rgRDMgQCBAgQIECAQF0Fwnet5pG4zt9j/eo6xeIahoAEwDCU9VFrgVZ9gMXZhVZ9gDx7qdbBCo4AAQIECBAgMFyB8N0qrvM/t2Cd/3Dh9VZPAQmAes6rqEYg0KoPcGJ2LtYHCN2vjGAIuiRAgAABAgQI1EUgfpeK6/zD7f7W+ddlUsUxegEJgNHPgRHUTCDWB1hdHT+cZ/lTNQtNOAQIECBAgACBYQiE71CT4buUdf7DwNZHWgISAGnNt2iHJBDrA7ywOHNybGw91ge4NKRudUOAAAECBAgQqLJA+M7UWud/0jr/Kk+jsZdZQAKgzLNjbJUXaNcHmI/1ATw2sPLTKQACBAgQIEBgMAJX2uv8563zHwywVgncEJAAuCHhdwIDFIj1AV5cnD0cujgdfqkPMEBrTRMgQIAAAQKVEYjfiU6HW/3D7f7W+Vdm1gy00gISAJWePoOvmkB8bGCsD5AVxbNVG7vxEiBAgAABAgT6JxC/C7XW+S/1r00tESBwOwEJgNsJ+ZxAnwVifYALTx5shKcFPBSavtTn5jVHgAABAgQIECizQPzu81CePd+wzr/M02RsdRWQAKjrzIqr9ALhaQGXwx0B81meH1MfoPTTZYAECBAgQIBAbwJXsqw4Fm73D+v8z13urSl7EyDQrYAEQLdy9iPQJ4ELJ2bOrq2Oz4XmTodf6gP0yVUzBAgQIECAQCkEWuv8w+3+c+Gq/9lSjMggCCQsIAGQ8OQLvTwCrWUBoT5AeGzgnPoA5ZkXIyFAgAABAgR6EYjr/JvhxP/cktv9e3G0L4H+CUgA9M9SSwR6Fmg9NjDUB4iPDQyNXeq5QQ0QIECAAAECBIYvEL7DjD2ysc7//MvD716PBAhsJyABsJ2M9wmMUCA+NjDWBwiFAo+HYVgWMMK50DUBAgQIECCwa4H4neX4xjp/j/XbtZoNCQxRQAJgiNi6ItCpQCgUuNx6bOBGfYBOd7c9AQIECBAgQGBYAqfbj/VbHlaH+iFAoHMBCYDOzexBYKgCm+oDHAkdPzfUznVGgAABAgQIENhZIHw3aR6xzn9nJJ8SKIuABEBZZsI4CNxGoFUfYHF2oVUfIM9eus3mPiZAgAABAgQIDFIgfBeJ6/zPLeSZdf6DhNY2gX4KSAD0U1NbBIYg0KoPcGJ2Li+yU6G7lSF0qQsCBAgQIECAwA2B8N0jPxVO/EN1f+v8b6D4nUBVBCQAqjJTxkngJoEXnpw9E+sD5Fn+1E0f+SMBAgQIECBAYBAC4TvHZPju8cMzg2hcmwQIDF5AAmDwxnogMDCBWB/ghcWZk2Nj67E+wKWBdaRhAgQIECBAIGWB8B2jtc7/ZJ6dfSNlCLETqLqABEDVZ9D4CQSBdn2A+SzPjxVZdgUKAQIECBAgQKAPAuE7RXFs47F+1vn3wVMTBEYuIAEw8ikwAAL9E7hwYubsi4uzh0OLp8Mv9QH6R6slAgQIECCQkkD8DnE6nPiH2/2fP5tS4GIlUHcBCYC6z7D4khS4sDi7FOsDZEXxbJIAgiZAgAABAgS6FIjfHeI6/3NLXTZgNwIESiwgAVDiyTE0Ar0IxPoAF5482Ciy4qHQzqVe2rIvAQIECBAgUHuB+F3hoXDFv2Gdf+3nWoAJC0gAJDz5Qk9D4MXFg5fDHQHzIRFwXH2ANOZclAQIECBAoAOBK2Hb4xvr/M9d7mA/mxIgUEEBCYAKTpohE+hGICQCltdWx+fCvqfDL/UBukG0DwECBAgQqI9Aa51/uN1/Lpz8L9cnLJEQILCTgATATjo+I1AzgdaygFAfIDw2cE59gJpNrnAIECBAgMCuBeI6/2Y88V9yu/+u0WxIoBYCEgC1mEZBEOhMoPXYwFAfYKyZPZLl2Uud7W1rAgQIECBAoKIC4f/8sUc21vl7rF9F59CwCfQkIAHQE5+dCVRb4PxXZy9eODE7F+sDhEgsC6j2dBo9AQIECBDYTiD+Hx/X+Yer/j+4uN1G3idAoP4CEgD1n2MREritQKwP0Hps4EZ9gNtubwMCBAgQIECgMgKh9k/rsX7LlRmxgRIgMDABCYCB0WqYQLUENtUHOBJG/ly1Rm+0BAgQIECAwE0C4f/y5hHr/G9S8UcCiQtIACR+AAifwM0CrfoAi7MLsT6AxwberOPPBAgQIECg9AJXNtb5n1vIM+v8Sz9bBkhgyAISAEMG1x2BqgjE+gAvLs4ezovsVBhzXDvoRYAAAQIECJRXIPxfnZ8KV/wPW+df3kkyMgKjFpAAGPUM6J9AyQVeeHL2TKwPkGf5UyUfquERIECAAIFUBcL/0XGd/w/PpAogbgIEdicgAbA7J1sRSFog1gd4YXHmZHhawEMB4lLSGIInQIAAAQLlEYj/Jz8UrvqfzLOzb5RnWEZCgEBZBSQAyjozxkWghALhaQGXLyzOzmd5fkx9gBJOkCERIECAQCoCYZ1/cSyc+M+HX5dTCVqcBAj0LiAB0LuhFggkJ3DhxMzZWB8gBH46/AprDr0IECBAgACBIQjE/3NPb6zzf/7sEPrTBQECNROQAKjZhAqHwDAFwt0AS7E+QFYUzw6zX30RIECAAIH0BOL/tXGd/7ml9GIXMQEC/RKQAOiXpHYIJCoQ6wNcePJgIz42MBBcSpRB2AQIECBAYFAC4f/WsUfy7PmGdf6DItYugXQEJADSmWuREhioQHxsYKwPEAoFHlcfYKDUGidAgACBNASuhDCPb6zz/8HFNEIWJQECgxaQABi0sPYJJCYQCgUur62Oz4WwT4df6gMkNv/CJUCAAIGeBVrr/MPt/nPh5H+559Y0QIAAgU0CEgCbMPxIgEB/BFrLAkJ9gLGx9ZgIeK4/rWqFAAECBAjUXiD8n9mMJ/5Lbvev/VwLkMBIBCQARsKuUwJpCJz/yj0vh2UBC636AHn2UhpRi5IAAQIECHQsEP6PjOv8zy3k2fmXO97bDgQIENilgATALqFsRoBA9wKt+gAnZudifYDQykr3LdmTAAECBAjUSiD+nxjX+Yer/tb512pmBUOgpAISACWdGMMiUEeBWB+g9djAjfoAdQxRTAQIECBAYLcCoVZO67F+y7vdwXYECBDoVUACoFdB+xMg0JHApvoAR8KOlzra2cYECBAgQKD6AuH/vuYR6/yrP5EiIFBFAQmAKs6aMROogUC7PsB8rA/gsYE1mFAhECBAgMDtBK601/nPW+d/OyqfEyAwKAEJgEHJapcAgV0JxPoALy7OHs6L7FTYQX2AXanZiAABAgQqJBD+b8tPhSv+h63zr9CsGSqBmgpIANR0YoVFoGoCLzw5e6ZVH6Aonq3a2I2XAAECBAhsLRD/T4vr/H94ZuvPvUuAAIHhCkgADNdbbwQI7CDQqg/w5MFGeFrAQ2GzsEbSiwABAgQIVFIg/h/2UJ4938izs29UMgKDJkCglgISALWcVkERqLZAeFrA5QuLs/NZnh9TH6Dac2n0BAgQSEzgSpYVx8Lt/mGd/7nLicUuXAIEKiAgAVCBSTJEAqkKXDgxczbWBwjxnw6/1AdI9UAQNwECBMovEP+POr2xzv/5s+UfrhESIJCqgARAqjMvbgIVEgh3AyyNja3PZeoDVGjWDJUAAQKpCMR1/s25cPK/lErE4iRAoLoCEgDVnTsjJ5CUQOuxgaE+QHxsYAj8UlLBC5YAAQIEyigQ/i8ae2Rjnf/5l8s4QGMiQIDAzQISADeL+DMBAqUWiI8NjPUBQqHA4+oDlHqqDI4AAQJ1FbgSAju+sc7/BxfrGqS4CBCop4AEQD3nVVQEai8QCgUur62Oz4VAT9c+WAESIECAQFkEwv85k/F2/+WyDMg4CBAg0ImABEAnWrYlQKBUAq3HBm7UBzgSBvZcqQZnMAQIECBQJ4Hwf0zzSFzn77F+dZpWsRBIT0ACIL05FzGB2gm06gMszi606gPk2Uu1C1BABAgQIDAqgfB/Slznf24hz6zzH9Uk6JcAgf4JSAD0z1JLBAiMWKBVH+DE7FxeZKfCUFZGPBzdEyBAgEB1BcL/IfmpcOIfbve3zr+602jkBAjcLCABcLOIPxMgUHmBF56cPbO6On44z/KnKh+MAAgQIEBg2ALh/47J8H/ID88Mu2P9ESBAYNACEgCDFtY+AQIjEYj1AV5YnDk5NrYe6wNcGskgdEqAAAECVRII/1e01vmftM6/StNmrAQIdCIgAdCJlm0JEKicQLs+wHysD+CxgZWbPgMmQIDAMASutNf5z1vnPwxufRAgMEoBCYBR6uubAIGhCcT6AC8uzh4OHZ4Ov9QHGJq8jggQIFBagfh/wemwzj/c7m+df2lnycAIEOirgARAXzk1RoBA2QUuhMcGxvoAWVE8W/axGh8BAgQIDEog/h8Q1/mfWxpUD9olQIBAGQUkAMo4K8ZEgMBABWJ9gAtPHmwUWfFQ6OjSQDvTOAECBAiUSSD+m/9Qnj3fsM6/TNNiLAQIDEtAAmBY0vohQKB0Ai8uHrwc7giYz/L8mPoApZseAyJAgEA/Ba5kWXEsXPEP6/zPXe5nw9oiQIBAlQQkAKo0W8ZKgMBABC6cmDm7tjo+Fxo/HX6pDzAQZY0SIEBgJAKtdf7hdv+5cNX/7EhGoFMCBAiUSEACoESTYSgECIxOoLUsINQHCI8NnFMfYHTzoGcCBAj0TyCu82+GE/9zS27375+qlggQqLaABEC158/oCRDos0DrsYGhPkB8bGBo+lKfm9ccAQIECAxeIPzbPfbIxjr/8y8Pvjs9ECBAoDoCEgDVmSsjJUBgiALxsYGxPkAoFHg8dGtZwBDtdUWAAIEuBeK/1cc31vl7rF+XhnYjQKDmAhIANZ9g4REg0JtAKBS43Hps4EZ9gN4aszcBAgQIDErgdPuxfsuD6kC7BAgQqIOABEAdZlEMBAgMVGBTfYAjoaPnBtqZxgkQIECgE4Hwb3LziHX+nZDZlgCBlAUkAFKefbETINCRQKs+wOLsQqwP4LGBHdHZmAABAv0WuLKxzv/cQp5Z599vXO0RIFBfAQmA+s6tyAgQGJBArA/w4uLs4bzIToUu4ppTLwIECBAYjkD4Nzc/Fa74H84z6/yHQ64XAgTqJCABUKfZFAsBAkMVeOHJ2TOxPkCe5U8NtWOdESBAIE2B8G/tZPg394dn0gxf1AQIEOhdQAKgd0MtECCQsECsD/DC4szJsbH1WB/gUsIUQidAgMCgBMK/ra11/ifz7Owbg+pEuwQIEEhBQAIghVkWIwECAxdo1weYz/L8mPoAA+fWAQECaQiEdf7FsY3H+lnnn8aUi5IAgUELSAAMWlj7BAgkJXDhxMzZWB8gBH06/FIfIKnZFywBAn0SiP92nt5Y5//82T61qRkCBAgQCAISAA4DAgQIDEDgwuLsUqwPkBXFswNoXpMECBCoqUD8NzOu8z+3VNMAhUWAAIGRCkgAjJRf5wQI1Fkg1ge48OTBxv9YeSC7/919V+scq9gIECDQi8CBg/dd/fSJ/5bl2fMN6/x7kbQvAQIEdhYY3/ljnxIgQIBArwK/tL4/+5s3Hjy0vPfVt/7wwE9Wr+fr0722aX8CBAjUQWB86gMrRx79/cm7H/7tQ3WIRwwECBAou4AEQNlnyPgIEKiNQOOdg1PHVj809adTP135ztQrE2tZsb82wQmEAAECHQjke8bf/PBnjq999LNfnh7f94EO9rQpAQIECPQiIAHQi559CRAg0KHAdLEn+6M3Pzr9pbcPZr9/4MrVH0xed9WrQ0ObEyBQbYG7PvlrVz/2G//50L47P1ztQIyeAAECFRSQAKjgpBkyAQLVF7i3uTf783/5+KG/nPhZ9qU7/vHaP42tzlQ/KhEQIEBge4G90/dc+8Rv/fHM9JF/K/G5PZNPCBAgMFABCYCB8mqcAAECOwv8+7UPZP9w/aGZWB/g5IEr+Wre3LfzHj4lQIBAtQTGxiff/tjnv1GEdf4SndWaOqMlQKCGAhIANZxUIREgUD2Bdn2ALNYH+LOpnyoSWL0pNGICBLYQ+Mhnv7xinf8WMN4iQIDAiAQ8BnBE8LolQIDAzQI36gP8/fW57IH1/ddu/tyfCRAgUBWBA3d/8tovf/0vsiOf+z1F/qoyacZJgEASAu4ASGKaBUmAQJUEYn2Av155YCbWB/jdX/jRiscGVmn2jJVA2gLxsX73/853p8M6f7f7p30oiJ4AgZIKSACUdGIMiwABArE+wD+//vD0U1OvvP3N/T8pVrNiigoBAgTKKJDvmXjr8K+fyj/yq1+0hKmME2RMBAgQaAtYAuBQIECAQMkFvvbWPfuuvP7wVOOdWcsCSj5XhkcgRYG7P/2Fa7/yB381FU7+FTFN8QAQMwEClRKQAKjUdBksAQKpCsT6AM/86y/O/I/K9milAABAAElEQVSVB7L73913NVUHcRMgUB6BAwfvu/rpE/8tu2/hWzPj+z5QnoEZCQECBAhsK2AJwLY0PiBAgED5BH5pfX/2N288eOjs5OtvLt7x4zX1Aco3R0ZEoO4CcZ3/fY9/a2Lm/kcP1T1W8REgQKBuAhIAdZtR8RAgkITAwupd+xdevyv7xv6frDw99cqk+gBJTLsgCYxUIK7z//BnGquxsv9IB6JzAgQIEOhawBKArunsSIAAgdEL/NGbH52O9QF+c/WDlgWMfjqMgEBtBe765K9djev8nfzXdooFRoBAIgLuAEhkooVJgEB9BWJ9gD//l48fio8N/PqBH1/9uz1vuy23vtMtMgJDFYjr/D/2+W8cCo/18+/KUOV1RoAAgcEISAAMxlWrBAgQGLpAfGxgrA+wvPfVt/7wwE9W1QcY+hTokEBtBOI6/yOP/v7k3Q//thP/2syqQAgQIJBlEgCOAgIECNRMoPHOwaljqx+a+tOpn658Z+qVibWs2F+zEIVDgMCABPKxPf/rw7/6xfWPfvbL0yr7DwhZswQIEBihgATACPF1TYAAgUEJxGUBsT7Al94+mP2HO/7ntbA8YGZQfWmXAIF6CITb/K99/Nh/mdl354frEZAoCBAgQOAWAQmAW0i8QYAAgfoI3Nvcm53/2admYn2AL93xj9f+aWxVIqA+0ysSAn0R2Dt9z7VP/NYfz4QEgH8f+iKqEQIECJRXQAKgvHNjZAQIEOibQKwP8A/XH5qJ9QFOHriSr+bNfX1rXEMECFRSYGx88u1Q4K8I6/yd+FdyBg2aAAECnQt4DGDnZvYgQIBAZQVifYAr1z+9r/HO7LXKBmHgBAj0LHD3p79w7d/9x/++L5z8T/XcmAYIECBAoDICEgCVmSoDJUCAQH8EYn2AZ/71F2f+/vpc9sD6fomA/rBqhUAlBA7c/clrv/z1v8juW/jWjCJ/lZgygyRAgEBfBSwB6CunxggQIFAdgVgf4K9XHmjVB/jdX/jRiscGVmfujJRApwLxsX73/853p63z71TO9gQIEKiXgARAveZTNAQIEOhYINYH+OfXH55+auqVt7+5/yfFala4JbhjRTsQKKdAvmfircO/fir/yK9+cbqcIzQqAgQIEBimgCUAw9TWFwECBEos8LW37tl35fWHp35z9YNXSzxMQyNAYJcCd33y167+yh/81VQ4+Vf0c5dmNiNAgEDdBdwBUPcZFh8BAgQ6EIj1Af78Xz5+6G/H38y+eMePrv7dnrcPdbC7TQkQKIHAgYP3Xf3EF/7k0IG7P+XvbwnmwxAIECBQJgEJgDLNhrEQIECgJAK/tL4/+5s3Hjx0dvL1Nxfv+PGa+gAlmRjDILCDQFznf9/j35qYuf9RJ/47OPmIAAECKQtIAKQ8+2InQIDAbQQWVu/av/D6Xdk39v9k5TtTr0ysZcX+2+ziYwIEhiyQ7xl/88OfOb525HO/Z53/kO11R4AAgaoJqAFQtRkzXgIECIxA4I/e/Oj0315/cL/6ACPA1yWBHQTiOv9/87UX9jv53wHJRwQIECDwnoA7AN6j8AMBAgQI7CQQHxsY6wP85cTPsq8f+LH6ADth+YzAgAXiOv+Pff4bh8Jj/dzuP2BrzRMgQKBOAhIAdZpNsRAgQGAIAvGxgbE+wPLeV986eeBKvpo3VRgfgrsuCESBsfHJt8OJf3H3w7/txN8hQYAAAQIdC0gAdExmBwIECBCIAo13Dk4dW/1Q9qdTP135s6mfWnvssCAwYIGPfPbLKx/97Jenx/d9YMA9aZ4AAQIE6iqgBkBdZ1ZcBAgQGIJAfGxgrA/w99fnsnBnwLUhdKkLAskJhNv8r/3y1/8ii+v8nfwnN/0CJkCAQF8F3AHQV06NESBAIE2BWB/g/M8+NRPrA3zpjn+89k9jqzNpSoiaQP8E9k7fc+0Tv/XHMyEB4O9T/1i1RIAAgaQFJACSnn7BEyBAoL8CsT7AP1x/aOapqVfe/ub+nxSrWTHV3x60RqD+AvmeibcO//qp/CO/+kUn/vWfbhESIEBgqAKWAAyVW2cECBBIQ+Brb92z78rrD0813pm1LCCNKRdlnwTu/vQXrv3KH/zVVDj5V1yzT6aaIUCAAIGfC0gA/NzCTwQIECDQR4FYH+CZf/3FmVgf4IH1/RIBfbTVVP0EDtz9ydY6//sWvjVjnX/95ldEBAgQKIuAJQBlmQnjIECAQE0FYn2Av155oFUf4Hd/4Ucr1/N1Twyo6VwLq3OB8akPrNz/O9+dts6/czt7ECBAgEDnAu4A6NzMHgQIECDQhUCsD/DPrz88/Xtv/W8rk1n+VhdN2IVAbQTiOv/4WL//4z/9v/HkvzZxCYQAAQIEyi0gAVDu+TE6AgQI1E4gPjYw1gf4zdUPXq1dcAIisAuBuz75a1fjOv/4WL9dbG4TAgQIECDQNwFLAPpGqSECBAgQ2K1ArA/w5//y8UN/O/5m9sU7fnT17/a8fWi3+9qOQFUFDhy87+onvvAnhw7c/SnHe1Un0bgJECBQcQEJgIpPoOETIECgygK/tL4/+5s3Hjx0dvL1Nxfv+PGa+gBVnk1j304grvO/7/FvTczc/6gT/+2QvE+AAAECQxGQABgKs04IECBAYCeBhdW79j9yfTr706mfrnxn6pWJtazYv9P2PiNQBYF8z/ibH/7M8bWPfvbL0yr7V2HGjJEAAQL1F5AAqP8ci5AAAQKVEIjLAmJ9gC+9fTD7/QNXrv5g8rqrpZWYOYPcSiCu8//Yb/znQ/vu/PBWH3uPAAECBAiMREACYCTsOiVAgACB7QTiYwNjfYC/nPhZ9qU7/vHaP42tzmy3rfcJlE1g7/Q91z7xW388Eyr7S2CVbXKMhwABAgQyCQAHAQECBAiUUiA+NvAfrj80s7z31bdOHriSr+bNfaUcqEERCAJj45Nvf+zz3yjufvi3JawcEQQIECBQWgEJgNJOjYERIECAQBRovHNw6tjqh1r1Af5s6qcem+awKJ3ARz775RXr/Es3LQZEgAABAlsIjG3xnrcIECBAgECpBG7UB/j763NZuDPgWqkGZzDJCoTb/K/98tf/Ijvyud9T5C/Zo0DgBAgQqJaAOwCqNV9GS4AAgaQFYn2A8z/71EysD/C7v/CjFY8NTPpwGFnw8bF+9//Od6dDAsDt/iObBR0TIECAQDcCEgDdqNmHAAECBEYqEOsD/PPrD08/NfXK29/c/5NiNSumRjognSchkO+ZeOvwr5/KP/KrX7QUJYkZFyQBAgTqJ2AJQP3mVEQECBBIRuBrb92z78rrD0813pm1LCCZWR9NoHd/+gvXfuUP/moqnPwrRjmaKdArAQIECPRBQAKgD4iaIECAAIHRCcT6AM/86y/OxPoAD6zvlwgY3VTUsucDd3+ytc7/voVvzYzv+0AtYxQUAQIECKQjYAlAOnMtUgIECNRaINYH+OuVB2bOTr7+5uIdP15TH6DW0z3w4OI6//se/9bEzP2PWuc/cG0dECBAgMCwBCQAhiWtHwIECBAYisDC6l37F16/K/vG/p+sPD31yqT6AENhr00ncZ3/hz/TWI2V/WsTlEAIECBAgEBbwBIAhwIBAgQI1FLgj9786HSsD/Cbqx+8WssABdV3gbs++WtX4zp/J/99p9UgAQIECJREwB0AJZkIwyBAgACB/gvE+gB//i8fP/S3429mX7zjR1f/bs/bh/rfixarLnDg4H1XP/GFPzl04O5POT6qPpnGT4AAAQI7CkgA7MjjQwIECBCog8Avre/P/uaNBw8t7331rT888JNV9QHqMKu9xxDX+R959Pcn7374t534986pBQIECBCogIAEQAUmyRAJECBAoD8CjXcOTh1b/dDUn079dOU7U69MrGXF/v60rJUqCeR7xt/88GeOr330s1+eVtm/SjNnrAQIECDQq4AEQK+C9idAgACBSgnEZQGxPsCX3j6Y/Yc7/ue1v5z4mSrvlZrB3gY7feTfXvv4sf8ys+/OD/fWkL0JECBAgEAFBSQAKjhphkyAAAECvQvExwae/9mnZkICIPvSHf947Z/GViUCemctbQt7p++59onf+uOZkAAwz6WdJQMjQIAAgUELSAAMWlj7BAgQIFBqgX+/9oHsH64/NBPrA5w8cCVfzZv7Sj1gg+tIYGx88u2Pff4bRVjn78S/IzkbEyBAgEAdBSQA6jirYiJAgACBjgXa9QGyWB/gz6Z+6hnwHQuWb4ePfPbLK9b5l29ejIgAAQIERicwNrqu9UyAAAECBMolcKM+wN9fn8seWN9/rVyjM5rdChy4+5PXfvnrf5Ed+dzvKfK3WzTbESBAgEASAu4ASGKaBUmAAAECnQjE+gB/vfJAqz7A7/7Cj1Y8NrATvdFtGx/rd//vfHfaOv/RzYGeCRAgQKDcAhIA5Z4foyNAgACBEQrE+gD//PrD009NvfL2N/f/pFjNiqkRDkfX2wjkeybeOvzrp/KP/OoXLd3YxsjbBAgQIEAgClgC4DggQIAAAQK3EfjaW/fsu/L6w1ONd2YtC7iN1bA/vvvTX7j2K3/wV1Ph5F/xxmHj648AAQIEKicgAVC5KTNgAgQIEBiFQKwP8My//uLM/1h5ILv/3X1XRzEGff5c4MDB+65++sR/y+5b+NbM+L4P/PwDPxEgQIAAAQLbClgCsC2NDwgQIECAwK0Cv7S+P/ubNx48dHby9TcX7/jxmvoAtxoN8p24zv++x781MXP/o4cG2Y+2CRAgQIBAHQUkAOo4q2IiQIAAgYELLKzetX/h9buyb+z/ycp3pl6ZWMuK/QPvNOEO8j3jb374M8fXYmX/hBmEToAAAQIEehKwBKAnPjsTIECAQOoCf/TmR6f/9vqD+39z9YOWBQzoYLjrk7929d987YX9Tv4HBKxZAgQIEEhGwB0AyUy1QAkQIEBgUALxsYF//i8fP/SXEz/Lvn7gx1f/bs/bbk/vA3Zc5/+xz3/jUHisH88+eGqCAAECBAhIADgGCBAgQIBAnwTiYwNjfYDlva++9YcHfrKqPkB3sHGd/5FHf3/y7od/24l/d4T2IkCAAAECWwpIAGzJ4k0CBAgQINC9QOOdg1PHVj809adTP135s6mfWrPeAeVHPvvllY9+9svTKvt3gGZTAgQIECCwSwE1AHYJZTMCBAgQINCJQHxsYKwP8PfX57JwZ8C1TvZNcdtwm/+1X/76X2Rxnb+T/xSPADETIECAwDAE3AEwDGV9ECBAgECyArE+wPmffWom1gf40h3/eO2fxlZnksXYIvC90/dc+8Rv/fFMSABw2cLHWwQIECBAoJ8CEgD91NQWAQIECBDYRiDWB/iH6w/NxPoAJw9cyVfz5r5tNk3i7bHxybdDgb8irPN34p/EjAuSAAECBMogYAlAGWbBGAgQIEAgGYFYH+DK9U/va7wzm+yygLs//YVr/+4//vd94eR/KpmJFygBAgQIECiBgARACSbBEAgQIEAgLYFYH+CZf/3FmVgf4IH1/ckkAg7c/cnWOv/7Fr41Y51/Wse8aAkQIECgHAKWAJRjHoyCAAECBBIUiPUB/nrlgVZ9gN/9hR+t1PWxgfGxfvf/znenrfNP8CAXMgECBAiUSkACoFTTYTAECBAgkKJArA/wz68/PP3U1Ctvf3P/T4rVrKjFrfH5nom3Dv/6qfwjv/pFj0JM8cAWMwECBAiUTsASgNJNiQERIECAQKoCX3vrnn1XXn946jdXP3i16gZ3ffLXrv7KH/zVVDj5T7rYYdXn0fgJECBAoF4C7gCo13yKhgABAgQqLhDrA/z5v3z80N+Ov5l98Y4fXf27PW8fqlJIBw7ed/UTX/iTQwfu/lSlxl0lY2MlQIAAAQLdCkgAdCtnPwIECBAgMECBX1rfn/3NGw8eOjv5+puLd/x4rez1AeI6//se/9bEzP2POvEf4HGhaQIECBAg0IuABEAvevYlQIAAAQIDFlhYvWv/I9ensz+d+unKd6ZemVjLiv0D7rKj5vM9429++DPH1z762S9Pq+zfEZ2NCRAgQIDA0AUkAIZOrkMCBAgQINCZQFwW8EdvfnT6S28fzH7/wJWrP5i8Xoqr7HGd/8d+4z8f2nfnhzsLyNYECBAgQIDASAQkAEbCrlMCBAgQINC5QHxsYKwP8JcTP8u+fuDHI6sPENf5f+zz3zgUHutXikRE55L2IECAAAECaQpIAKQ576ImQIAAgQoLxMcGxvoAy3tffevkgSv5at4cSqX9sfHJt8OJf3H3w7/txL/Cx4+hEyBAgEC6AhIA6c69yAkQIECg4gKNdw5OHVv9UKs+wJ9N/XR6kOF85LNfXrHOf5DC2iZAgAABAoMXGBt8F3ogQIAAAQIEBiVwoz7A31+fy8KdAdf63U+4zf/aL3/9L7Ijn/s9Rf76jas9AgQIECAwZAF3AAwZXHcECBAgQGAQArE+wPmffWom1gf4vydf3/udrLdcwN3/5nf2zv7v/1cWEgAzgxivNgkQIECAAIHhC7gDYPjmeiRAgAABAoMSuPLv137h2Hf+19/9p147+J/nv/ufpn/x3x0rsuxKr23ZnwABAgQIECiHgARAOebBKAgQIECAQC8CK2Hn01k2OZdnz5/tpaHN+144MXN2bXV8bqPtLPbhRYAAAQIECFRYQAKgwpNn6AQIECBAIMuKZ7OsGU78zy3l2dk3+i1y8dQH37iwOLs0NrY+lxWxLy8CBAgQIECgqgISAFWdOeMmQIAAgdQFXsqysUfCFf9Gnp1/edAY579yz8sXnjzYGGtmj2R5Fvr2IkCAAAECBKomIAFQtRkzXgIECBBIXSDein88XPEPV/1/cHHYGOe/OnvxwonZuSIrjoe+LQsY9gTojwABAgQI9CAgAdADnl0JECBAgMCQBeI6/8Ph5H95yP3e0t2LiweXV1fHD4cPwpi8CBAgQIAAgSoISABUYZaMkQABAgRSF3gurPM/Mqh1/t3ibqoPcCS0EcboRYAAAQIECJRZQAKgzLNjbAQIECCQusCVjXX+5xaGsc6/W+xWfYDF2YVYH8BjA7tVtB8BAgQIEBi8gATA4I31QIAAAQIEOhUIa+vzU+GKf7jdf/jr/Dsd7I3tY32AFxdnD+dFdiq8F2LwIkCAAAECBMokIAFQptkwFgIECBAgkGVPbazz/+GZqmK88OTsmVgfIM/yEIsXAQIECBAgUBYBCYCyzIRxECBAgEDqApfa6/xP5tnZN6qOEesDvLA4c3JsbD3WBwixeREgQIAAAQKjFpAAGPUM6J8AAQIEUhcI6/yLY+F2//kyr/PvdpLa9QHmszw/pj5At4r2I0CAAAEC/RGQAOiPo1YIECBAgECnAnGN/OmNdf7Pn+1056ptf+HEzNlYHyDGHH6pD1C1CTReAgQIEKiFgARALaZREAQIECBQLYHi2Y11/ueWqjXu3kd7YXF2KdYHyIpo4EWAAAECBAgMU0ACYJja+iJAgACB1AUuBYCH8uz5Rh3W+Xc7mbE+wIUnDzaKrHgotBFNvAgQIECAAIEhCEgADAFZFwQIECCQvMCVIHB8Y53/ucvJa7QBXlw8eDncETAfEgHH1QdwVBAgQIAAgcELSAAM3lgPBAgQIJCuQGudf7jdfy6c/C+ny7Bz5CERsLy2Oj4XtjodfqkPsDOXTwkQIECAQNcCEgBd09mRAAECBAjsKPBceKxfPPFfSvl2/x2FNn3YWhYQ6gOExwbGRECw8yJAgAABAgT6LSAB0G9R7REgQIBA6gIvZdnYI+HEf6GOj/Ub9OS2Hxu4MNbMHsnyLFh6ESBAgAABAv0SkADol6R2CBAgQCB1gZUAENf5h6v+P7iYOkav8Z//6uzFCydm52J9gNBWtPUiQIAAAQIEehSQAOgR0O4ECBAgQCAIhLXrk4et8+//sRDrA7QeG7hRH6D/HWiRAAECBAgkJCABkNBkC5UAAQIE+i5wKazzP2Kdf99d39fgpvoAR8IHwdyLAAECBAgQ6EZAAqAbNfsQIECAQOoCV9rr/Oet8x/eodCuDzAf6wN4bODw3PVEgAABAvURkACoz1yKhAABAgQGLxDWouenwhX/cLu/df6D5966h1gf4MXF2cN5kZ0KW6gPsDWTdwkQIECAwC0CEgC3kHiDAAECBAhsKfDUxjr/H57Z8lNvDl3ghSdnz8T6AHmWh7nxIkCAAAECBG4nIAFwOyGfEyBAgEDqAnHN+UPhqv/JPDv7RuoYZYs/1gd4YXHmZHhawENhbOoDlG2CjIcAAQIESiUgAVCq6TAYAgQIECiRQFjnXxwLJ/5hnf+5yyUal6FsIRCeFnD5wuLsfJbnx9QH2ALIWwQIECBAIAhIADgMCBAgQIDA+wXimvLTG+v8nz/7/o/8qewCF07MnI31AcI4T4dfcS69CBAgQIAAgbaABIBDgQABAgQIvCdQPLuxzv/c0ntv+aGSAuFugKVYHyAr4px6ESBAgAABAlFAAsBxQIAAAQIEWmvHxx7Js+cb1vnX53CI9QEuPHmwER8bGKK6VJ/IREKAAAECBLoTkADozs1eBAgQIFAPgSshjOMb6/w91q8eU3prFPGxgbE+QCgUeFx9gFt9vEOAAAEC6QhIAKQz1yIlQIAAgfcLnA63+8+Fk//l97/tT3UVCIUCl9dWx+dCfGHuvQgQIECAQHoCEgDpzbmICRAgkLrAc1nWPBJO/Jfc7p/eodBaFhDqA4yNrR8J0YdjwYsAAQIECKQjIAGQzlyLlAABAqkLvBRK34R1/ucW8uz8y6ljpB7/+a/c83JYFrDQqg+QZ+HY8CJAgAABAvUXkACo/xyLkAABAqkLrASAuM4/3O5vnX/qB8PN8bfqA5yYnYv1AcJn8VjxIkCAAAECtRWQAKjt1AqMAAECBILAU+3H+i3TILCTQKwPEB8bmGd5OGa8CBAgQIBAPQUkAOo5r6IiQIBA6gKX2uv8T1rnn/qhsPv4Y32AFxZnTrbrA4RjyIsAAQIECNRLQAKgXvMpGgIECKQucKW9zn/eOv/UD4Xu42/XB5iP9QE8NrB7R3sSIECAQPkEJADKNydGRIAAAQKdC4S12/mpsM4/3MJtnX/nfPbYSiDWB3hxcfZwXmSnwufhGPMiQIAAAQLVFpAAqPb8GT0BAgQIZMWzG+v8f3gGBoFBCLzw5OyZWB8gK+Kx5kWAAAECBKorIAFQ3bkzcgIECKQuENdoP5Rnzzes80/9UBh8/LE+wIUnDzbC0wIeCr3FY8+LAAECBAhUTkACoHJTZsAECBBIXuBKlhXHwu3+YZ3/ucvJawAYqkB4WsDlC4uz81meH1MfYKj0OiNAgACBPghIAPQBURMECBAgMBSBuAb79MY6/+fPDqVHnRDYRuDCiZmzsT5A+Ph0+KU+wDZO3iZAgACBcglIAJRrPoyGAAECBLYUiGuvm3Ph5H9py4+9SWBEAuFugKXw2MA59QFGNAG6JUCAAIGOBCQAOuKyMQECBAgMWSCstR57ZGOd//mXh9y37gjsSqD12MBQHyA+NjDsEI5ZLwIECBAgUE4BCYByzotRESBAIHWBeEv18Y11/h7rl/rBUJX442MDY32AUCjweBizZQFVmTjjJECAQEICEgAJTbZQCRAgUBGB0xuP9Tu3XJHxGiaB9wmEQoHLrccGbtQHeN9n/kCAAAECBEYpIAEwSn19EyBAgMBmgefCOv8jcZ2/x/ptZvFzFQVajw3cqA9wJIw/HNteBAgQIEBg9AISAKOfAyMgQIBA6gIvbazzP7eQZ9b5p34w1C3+Vn2AxdmFVn2APAvHuhcBAgQIEBidgATA6Oz1TIAAgdQFVrIsPxWu+Ifq/tb5p34w1D3+Vn2AE7NzeZGdCrGGY9+LAAECBAgMX0ACYPjmeiRAgACBLHtqY53/D8/AIJCSwAtPzp6J9QHyLA9/B7wIECBAgMBwBSQAhuutNwIECKQuEB6R1lrnf9I6/9QPhXTjj/UBXlicOTk2th7rA4S/E14ECBAgQGA4AhIAw3HWCwECBFIXuNJe5z9vnX/qh4L4bwi06wPMx/oARZaFvyNeBAgQIEBgsAISAIP11ToBAgRSF4hrnU+Hdf7hlmfr/FM/GMS/tUCsD/Di4uzh8Onp8Et9gK2ZvEuAAAECfRCQAOgDoiYIECBAYCuB4tmNdf7nlrb61HsECLxf4EJ4bGCsD5AV8e+OFwECBAgQ6L+ABED/TbVIgACB1AUuBYCH8uz5hnX+qR8K4u9UINYHuPDkwUaRFQ+FfePfJS8CBAgQINA3AQmAvlFqiAABAskLXAkCx8Pt/mGd/7nLyWsAINCDwIuLBy+HOwLmQyLguPoAPUDalQABAgTeJyAB8D4OfyBAgACBLgRa6/zD7f5z4cR/uYv97UKAwDYCIRGwvLY6Phc+Ph1+qQ+wjZO3CRAgQGB3AhIAu3OyFQECBAhsKRDXKjfjif+S2/23BPImgZ4FWssCQn2A8NjAOfUBeubUAAECBJIWkABIevoFT4AAga4FXtp4rF9c53/+5a5bsSMBArsWaD02MNQHiI8NzPIs/B30IkCAAAECnQlIAHTmZWsCBAikLhBvQY7r/MNVf4/1S/1gEP9oBOJjAy+cmJ2L9QHCCCwLGM006JUAAQKVFJAAqOS0GTQBAgRGIhDWIE8ets5/JPY6JXCLQKwP0Hps4EZ9gFs+9wYBAgQIELhZQALgZhF/JkCAAIGbBZ4L6/yPWOd/M4s/Exi9wKb6AEfCaMLfVS8CBAgQILC9gATA9jY+IUCAQOoCVzbW+Z9bsM4/9UNB/GUXaNUHWJxdiPUBPDaw7LNlfAQIEBidgATA6Oz1TIAAgbIKhDXF+alwxT/c7m+df1knybgIbCUQ6wO8uDh7OC+yU+Hz8HfZiwABAgQI/FxAAuDnFn4iQIAAgSx7amOd/w/PwCBAoLoCLzw5eybWB8izPPyd9iJAgAABAhsCEgCOBAIECBCIApfa6/xP5tnZN5DUW+Cxp1+bj7/qHaXoYn2AFxZnTo6Nrcf6AOHvuBcBAgQIpC4gAZD6ESB+AgRSFwjr/Itj4Xb/eev80zkUmmPZUjMvGulEnHak7foA81meH1MfIO1jQfQECBCQAHAMECBAIE2BuDb49MY6/+fPpkmQZtSPff+VwyHyo+Fk8In5b1+/M02FNKO+cGLmbKwPEKI/HX6pD5DmYSBqAgQSF5AASPwAED4BAikKFM9urPM/t5Ri9KnH3Hx3z3vzvndivZG6R4rxX1icXYr1AbIi/lvgRYAAAQIpCUgApDTbYiVAIHWBSxuP9Xu+YZ1/modC6+p/uPJ/I/pmnp288bPf0xKI9QEuPHmwER8bGCIP/zZ4ESBAgEAKAhIAKcyyGAkQSF3gSgA4vrHO32P9Uj4YNl/9jw55lt376DPXFlI2ST32+NjAcEfAfJEVx9UHSP1oED8BAikISACkMMtiJEAgVYHWOv9wu/9cOPlfThVB3BsCN1/9f8+lUAzwPYuEf3hx8eDy2ur4XCA4HX6pD5DwsSB0AgTqLSABUO/5FR0BAukKPBce6xdP/Jfc7p/uQbA58mZzvLH5z5t+frxdGHDTW35MUaC1LCDUBwiPDYyJgPBviBcBAgQI1E1AAqBuMyoeAgRSF3hpY53/uQWP9Uv9UPh5/O1q/9uu998hOfDzRvyUjED7sYELrfoAeRb+TfEiQIAAgboISADUZSbFQYBA6gIrASCu8w9X/a3zT/1guDn+ycn1ePI/ffP7m/68bXJg0zZ+TEygVR/gxOxcrA8QQo//xngRIECAQMUFJAAqPoGGT4AAgSAQ1uxOHrbO37GwlcDtrv6395n+3PdebWy1v/cIxPoArccGbtQHAEKAAAECFRaQAKjw5Bk6AQLJC1wK6/yPWOef/HGwI8DE5NpC2GCnq/+t/fMsb+zYkA+TFthUH+BIgAj/9ngRIECAQBUFJACqOGvGTIBA6gJX2uv8563zT/1Q2E38+dJutgrbHFUMcJdSCW/Wrg8wH+sDeGxgwgeC0AkQqKyABEBlp87ACRBIUCCswc1PhSv+4XZ/6/wTnP+OQ4639edZdu9ud2y+u2dpt9vaLm2BWB/gxcXZw3mRnQoS6gOkfTiIngCBCglIAFRosgyVAIGkBZ7aWOf/wzNJKwi+Q4FdX/3faDfPF9o1Azrsx+apCrzw5OyZWB8gLCEJ/0Z5ESBAgEDZBSQAyj5DxkeAQOoCca3tQ+Gq/8k8O/tG6hji371Ap1f/2y1Pt2sG7L4jWyYvEOsDvLA4czI8LeChgKE+QPJHBAACBMosIAFQ5tkxNgIEUhYI6/yLY+HEP6zzP3c5ZQixdyfQbVG/PM9PdtejvVIXCE8LuHxhcXY+y/Nj6gOkfjSInwCBsgpIAJR1ZoyLAIFUBeJa2tMb6/yfP5sqgrh7E3js6dfmQwtHu2qlyB5s79/V7nYicOHEzNlYHyBInA6/4r9pXgQIECBQEgEJgJJMhGEQIEAgXPF/NjzWby6c/C/RINCLQHMs6+kYauZFo5f+7UsgCoS7AZbGxtbnsiL+2+ZFgAABAmUQkAAowywYAwECqQtc2nis3/OhYvv5l1PHEH9vAj1d/b/RdZ4/oRjgDQy/9yLQemzgkwcb8bGBoZ3wb50XAQIECIxSQAJglPr6JkAgdYErAeD4xjp/j/VL/WDoV/zh6n9f1vDvnVhv9GtM2iEQHxsY6wOEQoHH1QdwPBAgQGB0AhIAo7PXMwECaQucDo/1i7f7L6fNIPp+Cjz2/VcOh/Ye70ebzbw/iYR+jEUb9REIhQKX11bH50JE4d9ALwIECBAYtoAEwLDF9UeAQOoCz4V1/kfiOn+P9Uv9UOh//M139yz1q9U8y+599JlrC/1qTzsEbgjExwa26wMcCe+FfxO9CBAgQGBYAhIAw5LWDwECqQu8tLHO/9yCdf6pHwqDib919T+s3e9r64VigH311Nj7BFr1ARZnF1r1AfIs/BvpRYAAAQKDFpAAGLSw9gkQILCxzj/c7m+dv4NhcAL9vPq/aZSPt5cVbHrLjwT6K9CqD3Bidi7WB+hvy1ojQIAAgZsFJABuFvFnAgQI9FnAOv8+g2ruFoFWxf5+X/1v99Jsjjdu6dAbBAYgEOsDDKBZTRIgQIDAJgEJgE0YfiRAgAABAlUUmJxc70vl/21iH2Tb23TpbQIECBAgQGAQAhIAg1DVJgECBAgQGJJA6+p/NtCK/dOf+96rjSGFoxsCBAgQIEBggAISAAPE1TQBAgQIEBi0QPvq//Qg+8mzvDHI9rVNgAABAgQIDEdAAmA4znohQIAAAQKDEhjGLfpHFQMc1PRplwABAgQIDE9AAmB41noiQIAAAQJ9FWjfmj/Qq/83BjygpwzcaN7vBAgQIECAwBAEJACGgKwLAgQIECAwGIF8aTDtbtFqni+06w1s8aG3CBAgQIAAgSoISABUYZaMkQABAgQI3CQQr/7nWXbvTW8P8o/TE5NrC4PsQNsECBAgQIDAYAUkAAbrq3UCBAgQIDAggSFe/W9HkOf5MOoNDMhLswQIECBAgIAEgGOAAAECBAhUTODRZ64tDPnq/4ZQkT342NOvzVeMy3AJECBAgACBtoAEgEOBAAECBAhUTaAoRnYlvpkXjapxGS8BAgQIECCwISAB4EggQIAAAQIVEmhfgT86siHn+ROKAY5MX8cECBAgQKAnAQmAnvjsTIAAAQIEhivQHMuWhtvjrb3tnVhv3PqudwgQIECAAIGyC0gAlH2GjI8AAQIECLQFRn71vz2OZp6NbAmCg4EAAQIECBDoXkACoHs7exIgQIAAgaEKlGX9fSxAGAsRDjV4nREgQIAAAQI9C0gA9EyoAQIECBAgMHiBx77/yuEsrL8ffE+77KFQDHCXUjYjQIAAAQKlEZAAKM1UGAgBAgQIENheoPnunqXtPx3JJ4+3khIj6VqnBAgQIECAQDcCEgDdqNmHAAECBAgMUaB0V//bsTeb440hMuiKAAECBAgQ6FFAAqBHQLsTIECAAIFBC5Tw6v+NkBUDvCHhdwIECBAgUAEBCYAKTJIhEiBAgEC6AvPfvn5nWPtf1oJ705/73quNdGdH5AQIECBAoFoCEgDVmi+jJUCAAIHEBCYn1+NV9umyhp1neaOsYzMuAgQIECBA4P0CEgDv9/AnAgQIECBQGoHW1f8sK/tt9kcVAyzNIWMgBAgQIEBgRwEJgB15fEiAAAECBEYnUPar/zdkSlyj4MYQ/U6AAAECBAgEAQkAhwEBAgQIECivQNmv/m/IhRoF7bsVyitpZAQIECBAgIAEgGOAAAECBAiUUaBdXK+0a/9vMpuemFwra6HCm4bqjwQIECBAIF0BdwCkO/ciJ0CAAIFSC+RLpR7eTYPL87wadyvcNG5/JECAAAECKQlIAKQ022IlQIAAgUoIxKv/eZbdW4nB3hhkkT342NOvzd/4o98JECBAgACB8glIAJRvToyIAAECBJIXqNbV/xvT1cyLxo2f/U6AAAECBAiUT0ACoHxzYkQECBAgkLBAvIpeuav/N+Yrz59QDPAGht8JECBAgED5BCQAyjcnRkSAAAECCQs0x7KlKoe/d2K9UeXxGzsBAgQIEKizgARAnWdXbAQIECBQKYH2GvqjlRr0TYNt5pligDeZ+CMBAgQIECiLgARAWWbCOAgQIEAgeYGqX/2PExiXLzz6zDWPBEz+aAZAgAABAmUUkAAo46wYEwECBAgkJxAq/8+FoCt99f+9SSsUA3zPwg8ECBAgQKBEAhIAJZoMQyFAgACBdAXyola3zj/+2PdfOZzubIqcAAECBAiUU0ACoJzzYlQECBAgkJBA62Q5VNCvU8jN5nijTvGIhQABAgQI1EFAAqAOsygGAgQIEKi0QPPdPUuVDmDrwSsGuLWLdwkQIECAwMgEJABGRq9jAgQIECCQZXW8+t+e1+lQ16BhjgkQIECAAIHyCEgAlGcujIQAAQIEEhQomhO1vVKeZ3kjwSkVMgECBAgQKK2ABEBpp8bACBAgQKDuAvPfvn5nkdW6Yv5RxQDrfhSLjwABAgSqJCABUKXZMlYCBAgQqJXA5OR6vPo/XaugbgqmpvUNborSHwkQIECAQDUEJACqMU9GSYAAAQI1E4hX/0NItb39/73pyvOFdqzvveUHAgQIECBAYDQCEgCjcdcrAQIECCQukMLV//YUT09Mri0kPt3CJ0CAAAECpRCQACjFNBgEAQIECKQmUGRZI5WY8zyv/50OqUymOAkQIECg0gISAJWePoMnQIAAgSoKxMfj5Vl2bxXH3tWYi+zBx55+bb6rfe1EgAABAgQI9E1AAqBvlBoiQIAAAQK7FciXdrtlXbZr5rV+2kFdpkkcBAgQIFBzAQmAmk+w8AgQIECgXALJXf2/wZ/nTygGeAPD7wQIECBAYDQCEgCjcdcrAQIECCQrkN7V/xtTvXdivXHjZ78TIECAAAECwxeQABi+uR4JECBAIFGBuA4+qbX/N81zM0/gsYc3xeyPBAgQIECgTAISAGWaDWMhQIAAgVoLNMeypVoHeJvgYvLj0WeueSTgbZx8TIAAAQIEBiUgATAoWe0SIECAAIFNAu0q+Ec3vZXmj4VigGlOvKgJECBAoAwCEgBlmAVjIECAAIHaC6R+9X/TBD/+2PdfObzpz34kQIAAAQIEhiQgATAkaN0QIECAQLoC7RNeV//bh0CzOd5I92gQOQECBAgQGJ2ABMDo7PVMgAABAokINN/ds5RIqLsN8+RuN7QdAQIECBAg0D8BCYD+WWqJAAECBAjcItC6+p/nT9zyQdpvTH/ue6820iYQPQECBAgQGL6ABMDwzfVIgAABAgkJuPq/9WTnWd7Y+hPvEiBAgAABAoMSkAAYlKx2CRAgQCB5AVf/dzwEjioGuKOPDwkQIECAQN8FJAD6TqpBAgQIECCwIaDY3c5HgrsjdvbxKQECBAgQ6LeABEC/RbVHgAABAgSCwPy3r98ZflPsbqejIc8X2k47beUzAgQIECBAoE8CEgB9gtQMAQIECBDYLDA5uR5P/qc3v+fnWwSmJybXFm551xsECBAgQIDAQAQkAAbCqlECBAgQSFnA1f/dz36e5+6S2D2XLQkQIECAQE8CEgA98dmZAAECBAjcKrB3Yr0R3nX1/1aaW98psgcfe/q1+Vs/8A4BAgQIECDQbwEJgH6Lao8AAQIEkhdo5tb+d3IQNPOi0cn2tiVAgAABAgS6E5AA6M7NXgQIECBAYEuBz33v1UaeZfdu+aE3txbI8ycUA9yaxrsECBAgQKCfAhIA/dTUFgECBAgQyPIlCJ0LtJdNdL6jPQgQIECAAIFdC0gA7JrKhgQIECBAYGcBV/939tnpU8smdtLxGQECBAgQ6I+ABEB/HLVCgAABAgQyFe27PwjisolHn7nmkYDdE9qTAAECBAjcVkAC4LZENiBAgAABArcXaFWyDxXtb7+lLbYVKBQD3NbGBwQIECBAoA8CEgB9QNQEAQIECBBojmVLFHoWePyx779yuOdWNECAAAECBAhsKSABsCWLNwkQIECAwO4F2s+xP7r7PWy5nUCzOd7Y7jPvEyBAgAABAr0JSAD05mdvAgQIECCQufrf14PgZF9b0xgBAgQIECDwnoAEwHsUfiBAgAABAp0LtG9Zd/W/c7rt9piOT1PY7kPvEyBAgAABAt0LSAB0b2dPAgQIECCQNd/ds4ShvwJ5ljf626LWCBAgQIAAgSggAeA4IECAAAECXQq0rv7n+RNd7m637QWOKga4PY5PCBAgQIBAtwISAN3K2Y8AAQIEkhdw9X9whwDbwdlqmQABAgTSFZAASHfuRU6AAAECPQjMf/v6nZmr/z0I3mbXPF9oGd9mMx8TIECAAAECuxeQANi9lS0JECBAgMB7ApOT66rVv6cxkB+mJybXFgbSskYJECBAgECiAhIAiU68sAkQIECge4H2lWkJgO4Jd7VnnueMdyVlIwIECBAgsDsBCYDdOdmKAAECBAi8J9C++j/93ht+GIxAkT342NOvzQ+mca0SIECAAIH0BCQA0ptzERMgQIBADwKu/veA18WuzbxodLGbXQgQIECAAIEtBCQAtkDxFgECBAgQ2E6gvS7d1f/tgPr9fii0qBhgv1G1R4AAAQKpCkgApDrz4iZAgACBLgXypS53tFuXAnsn1htd7mo3AgQIECBAYJOABMAmDD8SIECAAIGdBD73vVcbeZbdu9M2Puu/QDPPFAPsP6sWCRAgQCBBAQmABCddyAQIECDQrYCr/93K9bJfTLo8+sw1jwTsBdG+BAgQIEAgCEgAOAwIECBAgMAuBFz93wXSIDcpFAMcJK+2CRAgQCANAQmANOZZlAQIECDQo0Ce5Y0em7B7bwKPP/b9Vw731oS9CRAgQIBA2gISAGnPv+gJECBAYBcC7WfRH93FpjYZoECzOd4YYPOaJkCAAAECtReQAKj9FAuQAAECBHoVaI5lS722Yf++CCgG2BdGjRAgQIBAqgISAKnOvLgJECBAYFcCrv7vimlYG03HWgzD6kw/BAgQIECgbgISAHWbUfEQIECAQF8FwtV/V537KtpbY2ox9OZnbwIECBBIW0ACIO35Fz0BAgQI7CDQLjr3+A6b+Gj4AkcVAxw+uh4JECBAoB4CEgD1mEdRECBAgMAABJrv7lkaQLOa7FGgaE64K6NHQ7sTIECAQJoCEgBpzruoCRAgQOA2Aq2rzHn+xG028/EIBIqsaMx/+/qdI+halwQIECBAoNICEgCVnj6DJ0CAAIFBCbj6PyjZvrQ7PTG5ttCXljRCgAABAgQSEpAASGiyhUqAAAECuxNoXV129X93WCPaKs9zywBGZK9bAgQIEKiugARAdefOyAkQIEBgQAKTk+tOLgdk27dmi+zB8EjAub61pyECBAgQIJCAgARAApMsRAIECBDYvUB7bbkEwO7JRrZlXnhE48jwdUyAAAEClRSQAKjktBk0AQIECAxKoH31f3pQ7Wu3jwJhmYZigH301BQBAgQI1F5AAqD2UyxAAgQIEOhQwNX/DsFGufneifXGKPvXNwECBAgQqJKABECVZstYCRAgQGCgAmFNeSN04Or/QJX723gztwygv6JaI0CAAIE6C0gA1Hl2xUaAAAECHQrkSx3uYPMRC+RZdu9jT782P+Jh6J4AAQIECFRCQAKgEtNkkAQIECAwaIF49T+eTA66H+33X6A55i6A/qtqkQABAgTqKCABUMdZFRMBAgQIdCHg6n8XaGXZ5fHHvv/K4bIMxjgIECBAgEBZBSQAyjozxkWAAAECQxN49JlrC67+D417IB01m+ONgTSsUQIECBAgUCMBCYAaTaZQCBAgQKBLgaJQ+b9LurLsVmRZoyxjMQ4CBAgQIFBWAQmAss6McREgQIDAUATaBeSODqUznQxMIN7B0X6Kw8D60DABAgQIEKi6gARA1WfQ+AkQIECgJ4FQQG6ppwbsXBqBPMsbpRmMgRAgQIAAgRIKSACUcFIMiQABAgSGI+Dq/3Cch9jLUcUAh6itKwIECBConIAEQOWmzIAJECBAoF8Czbxo9Kst7ZRDoGhOqOdQjqkwCgIECBAooYAEQAknxZAIECBAYPACrSvFef7E4HvSwzAFiqxozH/7+p3D7FNfBAgQIECgKgISAFWZKeMkQIAAgb4KNN/ds9TXBjVWFoHpicm1hbIMxjgIECBAgECZBCQAyjQbxkKAAAECQxFw9X8ozCPrJM9zywBGpq9jAgQIECizgARAmWfH2AgQIEBgIAKu/g+EtTyNFtmD4ZGAc+UZkJEQIECAAIFyCEgAlGMejIIAAQIEhiTQWh+e524RH5L3qLrJi8xdAKPC1y8BAgQIlFZAAqC0U2NgBAgQIDAIgcnJ9XhiOD2ItrVZIoFQ4FExwBLNh6EQIECAQCkEJABKMQ0GQYAAAQLDEGifELoyPAzsEvSxd2K9UYJhGAIBAgQIECiNgARAaabCQAgQIEBg0AKu/g9auFztN3PLAMo1I0ZDgAABAqMWkAAY9QzonwABAgSGKeDq/zC1R9xXnmX3Pvb0a/MjHobuCRAgQIBAaQQkAEozFb0NpMizud5asDcBAgTqLRCqwjdChNb+13uab4muOeYugFtQvEGAAIEOBZxrdAhW4s0lAEo8OZ0MLfylvLOT7W1LgACB9ATypfRiFnEQePyx779ymAQBAgQIdC/gXKN7u7LtKQFQthnpdjxFcbjbXe1HgACBugvEq//xdvC6xym+rQWazfHG1p94lwABAgR2JeBcY1dMVdhIAqAKs7SbMeb54d1sZhsCBAikKeDqf5rzvhF1kWWNlOMXOwECBHoWcK7RM2FZGriRAFgpy4CMo2sBNQC6prMjAQJ1FohF4Fz9r/MM3z62OP/tGhC339gWBAgQILCVgHONrVSq9V7rnP9GAuBytcZutFsITFvjuIWKtwgQSF4gFIFbSh4BQJZneQMDAQIECHQu0D7HUES3c7qy7dE657+RACjb4IynC4FmMSEz14WbXQgQqK9A+xFwR+sbocg6EDgqUd6Blk0JECDQFnCOUa9DQQKgTvNZFBIAdZpPsRAg0LOAq/89E9aqgaI5cbJWAQmGAAECwxBwjjEM5aH1cSMB8MbQetTRIAXmB9m4tgkQIFAlgbDmOyZFXf2v0qQNeKxFVjTmv339zgF3o3kCBAjUTWC+bgElGU9RvBzjvpEAuJwkQv2C9kW3fnMqIgIEuhTIi+xkl7varb4C0xOTawv1DU9kBAgQGIiAc4yBsA650Tx/OfZ4IwEw5N51NyiBR5+55ovNoHC1S4BAZQRaa73z/InKDNhAhyaQ57nE0NC0dUSAQNUFnFtUfQZvHX8rARBuiXv51o+8U0mBZlMCoJITZ9AECPRToPnunqV+tqetGgkU2YPt5SE1CkooBAgQGJCAc4sBwQ6/2Rvn/K0EwJ7mxu0Awx+GHvsukOcSAH1H1SABAlUScPW/SrM1mrFaHjIad70SIFBBAecWFZy0rYd845zfEoCtfar87rRbdao8fcZOgECvAiq99yqYwP5heYhigAnMsxAJEOhJoH1OMd1TI3YunUArAXD+q7MXSzcyA+pewK063dvZkwCBSgvEk7pY6b3SQRj8UAT2Tqw7ToYirRMCBCor4JyislO31cBvnPO7A2Arnaq/F27VcWWj6pNo/AQIdCMwObkeC7y5WtENXmL7NHNPiUhsyoVLgEAHAq1zCbf/dyBWnU1/ngDIs5eqM2wjvY2AxxzdBsjHBAjUT6Cd+FThvX5TO5CI8iy797GnX5sfSOMaJUCAQMUF2o9MlVCv+Dy+N/xN5/o/TwAU2RvvbeCHGgjkSzUIQggECBDYtYCr/7umsmFboDnmLgAHAwECBLYWcC6xtUtF3910rv/zBECWXaxoOIa9hYArG1ugeIsAgVoLFFnWqHWAghuEwOOtp0YMomVtEiBAoKIC8e6oeC5R0eEb9tYCF2+8vTkBcOM9v9dEIFzZWKpJKMIgQIDAjgLhue4NX1Z2JPLhNgLN5nhjm4+8TYAAgSQFnEPUe9rfSwCMNd0BUMOpPmp9Yw1nVUgECGwh4FbFLVC8tQsBd47sAskmBAgkI9A+dziaTMCJBLr5XP+9BEA2vv5yIvEnFaYMXlLTLVgCSQq4+p/ktPct6HjnSDyG+taghggQIFBhAecOFZ68nYa+6Vz/vQTA+a/c8/JO+/issgJHfbGp7NwZOAECuxDI81zl/1042WR7gTzLG9t/6hMCBAikIdA+Z3D1v4bTvflc/70EQDvOSzWMV0hZvtR+PBYLAgQI1EqgdatikT1Yq6AEMwqBo4oBjoJdnwQIlEVg41zBcrqyzEefx/G+c/z3JwCK4uU+d6a5EgjE2xvbj8cqwWgMgQABAv0TcKti/yxTb6loTriTJPWDQPwEEhaI5wrxnCFhgvqGftM5/vsTAHn+cn0jTz6yb4bbeuaSVwBAgEBtBBQqqs1UliKQIisa7pYrxVQYBAECQxZonyN8c8jd6m5YAjed478vAbC5OuCwxqOf4QmEdbLLw+tNTwQIEBisgKv/g/VNsPXpicm1hQTjFjIBAokLOEeo9wFw8zn++xIAb6+PX653+IlHF9bJPvq915YSVxA+AQI1EGiv11aoqAZzWaYQFJQs02wYCwECwxBonRuopTMM6pH1cfM5/vsSABdPffCNIsuujGx0Oh6GwDfbt80Ooy99ECBAYCACzXf3LA2kYY2mLRC+BFsul/YhIHoCKQm0zwnc+l/jSY/n9vEcf3OI70sAxA9C8Qd3AWwWquHP4bbZs9Y51nBihUQgEYHW1f88fyKRcIU5ZIG8yE4OuUvdESBAYOgC8VwgnhMMvWMdDlVgq3P7WxIAYUQSAEOdlpF0Nj25d/3iSHrWKQECBHoUcPW/R0C77ywQkkuS5DsT+ZQAgeoLtM8FpqsfiQhuI3DLuf0tCYCbiwTcpkEfV1Ug1gP47qvLVR2+cRMgkKaAq/9pzvuwo947sd4Ydp/6I0CAwLAEWucA1v0Pi3uk/Wx1bn9LAuDmIgEjHbHOBysQrnL8n999za2Og1XWOgECfRRoNscbfWxOUwS2FGjmlgFsCeNNAgQqL9D67m8ZXeXncbcBbHVuf0sCoFUkIM9e2m2jtqu2QJFn3w4FjxrVjsLoCRBIQaB9W7akZQqTPeIYw5rJexXMHfEk6J4Agb4LxO/88bt/3xvWYDkFwjn9zQUA40BvSQDEN/Mivxh/90pDIM/y/yoJkMZci5JAlQUmJ9fjyb/1ilWexAqNPRTHkmyq0HwZKgECOwvE7/rxO//OW/m0TgLbndNvmQBoZs3LdQpeLLcXkAS4vZEtCBAYnYCr/6OzT7jnx1s1JxIGEDoBAvUQcPJfj3nsNIrtzum3TADsGXv3Yqcd2L76ApIA1Z9DERCoq0C7KJur/3WdIE56tAAAH15JREFU4JLGpeZESSfGsAgQ2LWAk/9dU9Vuw+3O6bdMAJz/yj0vF1l2pXYKArqtQEwCKAx4WyYbECAwZAFF2YYMrruWQPgu1EBBgACBqgrE7/Ru+6/q7PU27nguH8/pt2plywRA3HAsy89utYP36i8Qi4N4RGD951mEBKoisHH1Iru3KuM1zvoIxGKA8firT0QiIUAgFYH4XV7Bv1Rm+9Y4dzqX3zYBEA6Yi7c25Z1kBMLjQR595rXL7XW3yYQtUAIEyiiQL5VxVMaUhkC4etZII1JREiBQB4H43T1+h8886q8O09l1DDudy2+bAFh9Z8/Frnu0Yz0EiuzBUHX7ZY9Cqsd0ioJAFQVc/a/irNVuzEcVA6zdnAqIQC0F4nf2+N09C9/haxmgoHYtsNO5/LYJgNYzA8OzA3fdiw3rKjAdHoX0/zz6vdeW6hqguAgQKK9AnucexVbe6UlmZEVzwnGYzGwLlEA1BeJ39fidPYxewdxqTmH/Rh3O4Vvn8tu0uG0CIG6fN7PlbfbzdnoC34y3E4WrcXPphS5iAgRGIdC6+8hVjFHQ6/MmgSIrGpbE3YTijwQIlEIgfjdv3fKfZd8sxYAMYuQCtzuH3zEB0MyLiyOPwADKIxC+iIe1kP9fzDD6IlSeaTESAnUVCFcyluoam7gqJzA9Mbm2ULlRGzABArUVaK31D9/J43dzt/zXdpq7Cux25/A7JgBeXDx4OT5CoKue7VRngW9OTK7HuwEadQ5SbAQIjE6gXXvk6OhGoGcC7xewHOX9Hv5EgMDoBOJ38PhdPIzAVf/RTUMpe47n7vEcfqfB7ZgAiDvu9AiBnRr2Wb0F4qOR4nNFw90AFxUJrPdci47AKATC1f+To+hXnwS2FQh3wVkGt62ODwgQGIJA/M4dv3vH7+Dxu/gQutRFxQR2c+5+2wTATo8QqJiH4Q5G4Gi7SKBEwGB8tUogOYF2xfXHkwtcwKUXyAuJqdJPkgESqKHAjRP/dpE/d8fVcI77FdJuzt1D8uj2r5BpeiNspaLk7amS3yLedpJlxdLa6sTZnapPJg8FgACBbQUe/e6ry55fvC2PD0YssLo6/kH/v414EnRPIAGBuMZ/o/ZIHtb5u9qfwJT3I8SVC4uzd96uodveAdBqoCjO3q4hnxOIAvEfqHhbUnwGafwS/+gz1xbIECBAYLcCrav/ef7Ebre3HYFhC+ydWG8Mu0/9ESCQjkD87hy/Q8fv0m71T2fe+xLpLs/Zx3fV2djY2awofCHbFZaN2gLTrSt44bgJd5CshOPnbBaOowsnZiSTHCIECGwr0Hx3z1LMJHoRKKtAM28tAzhT1vEZFwEC1RNoXTBrNhfCd+eF8J05foeuXhBGPHqBeM6+i9eujy7LAHahaZPdClwKG14M/7hdHsvXLp//yj0v73ZH2xEgUF+BeLtjuOJxvb4RiqwuAmPN7JHzX529WJd4xEGAwPAE4p1uzWJiLpzoz4Ve58Ovo8PrXU81FtjV7f8x/t3dARC3jFdw3ZYZJbx6F4j/0B0Nx1TWLMaz1h0CWXY5/PnlcIy9HIosvRF+Xe69Gy0QIFAlgWLs3YWiSgM21mQF2k+puJgsQE0Cj0912NPM76xJOMIooUAoyDYXft0ZvuMeDt9xD4chzjWbsa6a/+1KOF3VHtIub/+PQe46ATBW5Mvhtrcnqi1j9CUViAUmj4Z/GGNiIAv/ULZ+lXSshkWAwMAEfCEaGK2G+y3weLyK5w62frMOt72wvnopJHMeH26vektSwC39SU77MIOO5+q77W93RQBDa/FWt/DV7MpuG7YdAQIECBAgQKCuAs3meKOusaUSV1jKcSaVWMVJgEB9BeI5eifL0nadAIhk4cLscn3pREaAAAECBAgQ2J1A+MLV2N2WtiqrgItbZZ0Z4yJAoBOBTs/RO0oAjI2tL3cyGNsSIECAAAECBOooEL5w3RvWkDfqGFtKMY0V7gJIab7FSqCOAp2eo3eUAGivdbtURzgxESBAgAABAgQ6EQhryBudbG/b8gm8sza+XL5RGREBAgR2LXCp03o0HSUA4jCKrFje9XBsSIAAAQIECBCor8DRWAywvuHVP7KLpz74RqjQ/mz9IxUhAQJ1FOjm3LzjBMCLiweXA95KHQHFRIAAAQIECBDoRKBoTpzsZHvblk8gPH1IMcDyTYsRESBwe4GV9rn57bfctEXHCYC4b7jlbXlTG34kQIAAAQIECCQpEK6+NOa/fd2z5Cs8++EL9OXw5falCodg6AQIJCjQ7Tl5dwmAsTWZ0gQPMiETIECAAAECtwhMT0yuLdzyrjcqJVAUhe+2lZoxgyVAIO/ynLyrBEC70MBz2AkQIECAAAECqQvkeX4ydYOqx7+2OnE2xGCJa9Un0vgJpCPwXKfF/27QdJUAiDuPNa2XuoHodwIECBAgQCBhgSJ7MDwScC5hgcqHHosBdns7beWDFwABApUT6OVcvOsEwPmvzl4ssuxK5bQMmAABAgQIECDQZ4G8yNwF0GfTYTfX7e20wx6n/ggQSFsgnoPHc/FuFbpOAGx0WCx127H9CBAgQIAAAQK1EcjzJxQDrPZstm+nvVTtKIyeAIH6C/R2Dt5TAsAjAet/eImQAAECBAgQ2J3A3on1xu62tFVZBbp5pnZZYzEuAgRqKdDVo/82S/SUAGg3dGZzg34mQIAAAQIECKQo0MwtA6j6vMeLW5a4Vn0WjZ9ArQV6PvfuOQGwujoeB6Fqaq2PM8ERIECAAAECtxPIs+zex55+bf522/m83AJhHpfLPUKjI0AgUYGV9rl3T+H3nACIVVPDCHrORPQUhZ0JECBAgAABAiUQaI65C6AE09DTEMbG1pd7asDOBAgQGIzAmfa5d0+t95wAiL33IxPRUxR2JkCAAAECBAiUQ+Dxx77/yuFyDMUouhFoFwN8rpt97UOAAIFBCfTrnLsvCYBWJqIonh1UsNolQIAAAQIECFRFoNkcb1RlrMa5tUAvz9jeukXvEiBAoAeBcK7dj6v/cQR9SQC0Gtrz7lL83YsAAQIECBAgkLJAKCLXSDn+OsQen7GtGGAdZlIMBOohMNbHc+2+JQDat0udrgexKAgQIECAAAEC3QnEYoCf+96rje72tldZBMYKNa7KMhfGQSBxgdPtc+2+MPQtARBH44kAfZkTjRAgQIAAAQIVF8izvFHxEJIf/jtr48vJIwAgQGDUAn2p/L85iL4mADwRYDOtnwkQIECAAIGEBY4qBljt2VfjqtrzZ/QEaiLQl8r/my36mgCIDbsLYDOvnwkQIECAAIFUBYrmxMlUY69L3EVuGUBd5lIcBCoo0Per/9Gg7wmAmC3Ni2ypgsCGTIAAAQIECBDom0CRFY35b1+/s28NamjoAi8uHryc5dlLQ+9YhwQIJC8Qz6n7Vfl/M2bfEwCx8ReenD2jcupmZj8TIECAAAECCQpMT0yuLSQYd61CLoriTK0CEgwBAqUXiOfS8Zx6EAMdSAIgDjTP85ODGLA2CRAgQIAAAQJVEfB9qCoztf0411YnzoZPV7bfwicECBDor8Ag/+8YWALgwomZ+I/lpf5SaI0AAQIECBAgUCGBInswPBJwrkIjNtSbBFrLW7N8+aa3/ZEAAQKDErjUPpceSPsDSwDE0Ya1b+4CGMi0aZQAAQIECBCoikBYx+n7UFUma5tx5mNrZ7b5yNsECBDoq8Cgz6EHmgCIhVPCc3Cf6quIxggQIECAAAECVRLI8ycUA6zShN061vNfuefl8K47W2+l8Q4BAn0UiOfOreKjfWzz5qYGmgCInb2zumcp/GbdVMTwIkCAAAECBJIU2Dux3kgy8BoFHa7KLdcoHKEQIFA+gZX2ufNARzbwBEBcNzXo2xgGKqRxAgQIECBAgECPAs3cMoAeCUe+e7gqt+wpVyOfBgMgUFuBeM48iMf+3Qw28ARA7DD+gxl+c9tUxPAiQIAAAQIEkhPIs+zex55+bT65wGsWcJjH5ZqFJBwCBMohcKl9zjzw0QwlARCjcBfAwOdSBwQIECBAgECJBZpj7gIo8fTsamhjY+vLu9rQRgQIEOhAYJjnykNLALSLGZzuwMGmBAgQIECAAIE6CTz+2PdfOVyngFKLpV0M8LnU4hYvAQIDFTjdPlceaCc3Gh9aAiB2eGFxdinLs5dudO53AgQIECBAgEBKAs3meCOleGsZa54v1zIuQREgMHyBcG7cOkceYs9DTQDEuMbedfvbEOdXVwQIECBAgECJBEIRuUaJhmMoXQhcODFzVjHALuDsQoDALQKjODceegLg/FdnL8bnG94SvTcIECBAgAABAjUXiMUAP/e9Vxs1D7P24Y0V2ZnaBylAAgQGKhDPieO58UA72aLxoScA4hhazze0FGCL6fAWAQIECBAgUHeB8KWvUfcY6x7fO2vjy3WPUXwECAxQIJwLt86JB9jFdk2PJAEQn29YFEVju0F5nwABAgQIECBQY4GjigFWe3Zbz+ouimerHYXREyAwKoF4Ltz6d2QEAxhJAiDG6akAI5htXRIgQIAAAQKlECiaEydLMRCD6FpgrFAMsGs8OxJIW2CoVf9vpg5L0Ub7evR7r10MIzg62lHonQABAgQIECAwVIGV1dXxw6O6AjTUSGvc2aPPvHY5K7IHaxyi0AgQ6K/ApVD1f76/TXbW2sjuALgxzLGx9Ub4eeXGn/1OgAABAgQIEEhAYHpicm0hgThrHWK4jVcxwFrPsOAI9FVgpX3u29dGO21s5AmA81+55+UszxudDtz2BAgQIECAAIEqC+R5bhlAlScwjH1tdeJs+M2FrIrPo+ETGIpAOOdtnfsOpbPtOxl5AiAOLT5PNVNIZftZ8gkBAgQIECBQP4Fw63h4JOBc/QJLJ6J2McCYBPAiQIDA9gLhXLd1zrv9FkP7pBQJgBjt6loohuPRgEObeB0RIECAAAECoxfIi8xdAKOfhp5GMLbn3aWeGrAzAQL1FgjnuK1z3ZJEOfIigJsdYhY8PBv3YnhvevP7fiZAgAABAgQI1FUgFAP8oGKA1Z5dRa2rPX9GT2CAAnHd/1wZbv2/EWNp7gCIA2o9GlA9gBtz43cCBAgQIEAgAYG9E62CyAlEWt8Qi6xYrm90IiNAoGuBkqz73zz+UiUA4sDi2ohwF8BTmwfpZwIECBAgQIBAXQWauWUAVZ/bcBFrOcSgGGDVJ9L4CfRRIJ7TlmXd/+awSpcAiIN7YXEmroe7tHmgfiZAgAABAgQI1FEgrMe897GnX5uvY2yJxXQmsXiFS4DA9gKX2ue0228xok9KmQCIFmE93IKigCM6KnRLgAABAgQIDFWgOeYugKGCD6CzsM53eQDNapIAgaoJxKJ/8Vy2pK/SJgBiMZyiKBrBze1UJT14DIsAAQIECBDom8Djj33/lcN9a01DQxdoF/l6bugd65AAgTIJrMRz2DIXdi1tAiDOYiwKONbMSps9KdORZiwECBAgQIBAtQWazfFGtSMw+izPlykQIJCuQDx3bRW2LzFBqRMA0e38V2cvhsqqx0tsaGgECBAgQIAAgZ4Fiixr9NyIBkYqEAt+hXm8MtJB6JwAgZEIxHPWeO46ks476LT0CYAYS6uyalE820FcNiVAgAABAgQIVEogFgP83PdebVRq0AZ7i8BYkSkGeIuKNwjUXCCcq7afBlL6QCuRAIiKF5482MgkAUp/QBkgAQIECBAg0L1AeGxUo/u97VkGgXfWxpfLMA5jIEBgSALhHLV1rjqk7nrtJiSbq/V69JnXLmdF9mC1Rm20BAgQIECAAIHdCYRq8kfaBeV2t4OtSifw6HdfXQ71AJ4o3cAMiACB/gqEiv8XTszO9bfRwbZWmTsAbjCsvjM+7/GANzT8ToAAAQIECNRNoGhOnKxbTKnFM1YoBpjanIs3QYH4uL94blqxV+XuAIi+89++fufk3vWL7gSo2NFmuAQIECBAgMBuBFbCM6QPl/kxUrsJIvVt3LWa+hEg/loLtE/+q/jvdOXuAIgHUoSOz1cMP67EP3sRIECAAAECBGokMD0xueYxyBWf0PBdVTHAis+h4RPYRmAlnotW8eQ/xlPJBEAceHy+YnjUwnz4URIggngRIECAAAECtRHI89wygIrP5trqxNkQgu+pFZ9Hwydwk8BKPAeN56I3vV+ZP1Y2ARCFJQEqc5wZKAECBAgQINCJQCh4HB4JONfJLrYtl0Dr6mDx/7d3P8lNHHsAx3vGMrydTRVKFSvECeKcwMoChR3mBChLMFSJEyCfAKewyTKTEzy/nTGLyDcwJ3hilSpEFWj3MPL0+/0US5FiWZalGc10z1dViaX50/3rTw/2dKu7x2onAC8EEPBDwPnGv1aD0x0AWgA6AVSBFwIIIIAAAgj4JhBY0/CtTEUrT7hy1ixamSkvAp4KeNH417pxchHASReV9pLLs3Nbsm9t0n62IYAAAggggAACrgnIYoC3XJ1n6pp1WvHW9jstSXszrfRJFwEEUhfwpvGvUs6PABhUNyMBBhL8RAABBBBAAAFfBG6u9uq+lKWo5ZD5wlFRy065EfBAwKvGv9aHNx0AWhg6AVSBFwIIIIAAAgj4IhAHTANwvS7l/jSSMrAYoOsVSfxFFPCu8a+V6FUHgBaITgBV4IUAAggggAACPgjIXM27D153qj6UpeBl2C14+Sk+Aq4JeNn410rwrgNACzXsBAjMe/3MCwEEEEAAAQQQcFUgDhkF4GrdDeIOw140eM9PBBDIuYC0IV1/1N80YW8WAZxUyOqrz+s3bvZaRh6lM2k/2xBAAAEEEEAAARcEpAF57/DJnbYLsRLjZAFZDFAfCfhw8l62IoBALgSk8X/6tVT1efFVL0cADC4erTitQHnWASMBBij8RAABBBBAAAHnBOK4VHcuaAIeFwiCaHwDnxBAIFcCBWj8q7fXIwBGL6ja3sfIBMHj0W28RwABBBBAAAEEXBCwxnx4t12uuBArMV4ucH+/09Z1HS4/gj0IIJCJgLW/Hz37rp5J3kvO1OsRAKOW/QqVih3dxnsEEEAAAQQQQMAFAW001t582nIhVmK8XCC0hsUAL+dhDwLZCBSo8a/AhekA0MJqJ4As6PCzvueFAAIIIIAAAgg4JWBtw6l4CfaCwNdvpejCRjYggEBmAto2LMo3/wPkQnUAaKH1WaxhbH6UtzyPdXAV8BMBBBBAAAEEXBDYfPDrnxUXAiXGyQL9hcUYkToZh60ILFegq21CbRsuN9vscytcB4CSHz4vt/TRDiwOmP0FSAQIIIAAAgggMLuAjVcZBTA7Vy6PDC2LAeayYgiqOALnj/nTNmFxCv13SQvZAaDFl96ek/4TAow5/puDdwgggAACCCCAQH4F5AuMen6jI7JZBPqNDp5QNQsVxyCQhsCxtgG1LZhG4i6kWdgOAK0cHYZ1tF2uBib4xYXKIkYEEEAAAQQQKLzA2v39j/XCKzgOYK1lMUDH65Dw3RPQNp+2/fpTcdwLP7GIC90BMFB8u327IY8IfCSfWRdggMJPBBBAAAEEEMilQBAETAPIZc3MHtS309UDOZr7ztnJOBKBRQS62tbrt/kWScWTc+kAOK/Io6e3D1gXwJOrmmIggAACCCDgs4A138sogA2fi+h72c4XA9ROAF4IIJCmgEy3CcPehrb10szGpbTpABipreG6AKzOOqLCWwQQQAABBBDIm0BgTSNvMRHP9QTClbPm9c7gaAQQuJaAtOl0vv/hkzvta53n+cGB5+Wbu3i1N5+2jLWRJLA2dyKciAACCCCAAAIIpCPQPT0tVYo+lzUd2uWlWtvvtCS3zeXlSE4IFEJAh/zX+dZ/cl0zAmCyi9ELRoeLyG6eEnCJEZsRQAABBBBAIDOBtZurvXpmuZNxIgIy/TRKJCESQQCBgcAxQ/4HFJN/MgJgssvYVumdbcqGl2Mb+YAAAggggAACCGQoYI358G67XMkwBLJOQEDuM79IMow4TcCSJAovsCOr/DcLr3AFACMArgDS3XohSQ/tD4Znts6gxSEIIIAAAgggsAwB+Rbn7oPXneoy8iKPVAV2U02dxBHwXUDaaNpWo/E/W0XTATCbkxksEKjPj5zxFA5DAAEEEEAAAQRSFYgDW081AxJPXUCGK0epZ0IGCHgqoG0zXehP22qeFjHxYjEFYA5S7W2PV8yukcfwzHE6pyCAAAIIIIAAAokJSAPyHqtcJ8aZSUIyDeBAMn6YSeZkioCLAvp4vzPTOHxebrkYfpYxMwJgDn290I6eljfk1J05TucUBBBAAAEEEEAgMYE4LtUTS4yEshEIgiibjMkVAScFdrQtRuN/vrqjA2A+t/5Zw7UBeFLAAoqcigACCCCAAAKLCMhigPVFzufc7AX06VO6qGP2kRABArkWOGau/+L1wxSAxQ37Kdzf/1iXOSi6iAuruCZkSjIIIIAAAgggMKNAEDzimdczWuX0sJ/2Og0bmFc5DY+wEMhSoCsN/4bM84+yDMKXvBkBkFBN6gV5elqqsEhgQqAkgwACCCCAAAKzC1jbmP1gjsyjwNdvpSiPcRETAlkK9Bf5kzYWjf/kaoERAMlZDlOS0QAb56MBNocbeYMAAggggAACCKQowGKAKeIuKena3sfIBMHjJWVHNgjkWUCH++u3/id5DtLF2BgBkEKt6YUq6wNU5Rf4I+ZzpQBMkggggAACCCBwQcDGq4wCuKDi1obQshigWzVGtEkL9NtOOqVJ2lI0/pPW/Ss9RgCk4zqW6vmcrqZsZH2AMRk+IIAAAggggECCAl25aV5PMD2SykCg9qZzwqOmM4Any6wFuoE1zbfPyrtZB+J7/owAWEIN64Ws6wNIVjvyX3cJWZIFAggggAACCBRPYE0XJS5esf0qsbWWBpBfVUpppgto22hH20o0/qdDJbWXEQBJSc6YTvXV5/UbN3o6RO/ljKdwGAIIIIAAAgggMJtAYN7r87FnO5ij8ihwfq/YltgYOZrHCiKmJAW04b/benHrS5KJktZ0AToApvuktvfBr39W4rOVJgu9pEZMwggggAACCBRSQJ+TzdxZt6uexQDdrj+iv0LA2t/DlbPm4ZM77SuOZHcKAnQApIB6nSRHRgToqAB6eq+Dx7EIIIAAAgggcFFAbq6Pnn1Xv7iDLa4I9L8oikv/dSVe4kRgBgEd6q/TovnGfwasNA+hAyBN3WukTUfANbA4FAEEEEAAAQSmCXR1Pi3DaqcR5X9fbb/Tkig38x8pESIwVYCG/1Se5e+kA2D55lfm+NcCPkFTKufulQdzAAIIIIAAAggg8A8BWU37BQtq/QPFsY96PxiY4DfHwiZcBPoC1pgPxtimTEeKIMmXAB0A+aqPsWgevO5U49Do1ICHYzv4gAACCCCAAAIITBHQm+932+XKlEPY5YCAjALQxdGYIupAXRHiUOA/YWx2D5+XW8MtvMmVAB0AuaqOycHoPDAbrzZkUZ+6HMEfgclMbEUAAQQQQACBEQG5Cf+Rm/AREAffSgdAU8J+6WDohFwsga6MVomC8NsuC/vlv+LpAMh/HY1FeD4crC4bN8d28AEBBBBAAAEEEBgVYDHAUQ0n37MYoJPVVqSgj+ULyohh/m5VOR0AbtXXMNrzPwh1GeIn88NYK2AIwxsEEEAAAQQQGAqEYe8e38gNOZx8I6MADiRwpoM6WXv+Ba3Ti6TtEcnvlojfLW7WLx0AbtbbWNT9tQICmR4QBFuygykCYzp8QAABBBBAoNACO0fb5WahBRwvfO3Npy1j7b8dLwbhuy3QlWvwILRBxLQitytSo6cDwP06HCtB/49EHG/RGTDGwgcEEEAAAQQKKaDf1rEYoPtVf3+/02bEp/v16FgJ+o1+E4YHR09v6ygUXp4I0AHgSUVOKoZ2BshjgKqxsVv80ZgkxDYEEEAAAQQKIBAEj7iBd7uef9rrNGxgXrldCqLPu4B2GIYmOJBrrcXvjLzX1vzx0QEwv51TZ8rigRsybKdqQ1M31nzvVPAEiwACCCCAAAKLCBzLNIDqIglwbrYC1Vef12/c6H3ONgpy91IgMO+D2ERxYFuymN+Jl2WkUGMCdACMcRTjQ/+PyM2zKqMDilHflBIBBBBAAAEWA3T/GqjtfYxkiudj90tCCbIUGP2W//TrSqv14taXLOMh7+UL0AGwfPPc5ahPFDiLV6qhCTdsYKuMEMhdFREQAggggAACCwnIM7p/ebt9u7FQIpycqUB/0efQ/JFpEGTunoB+w2+DVmzik5XwrMXK/e5VYdIR0wGQtKgH6ekIgX+VehtxaKpSnA3pKdyQC+WuB0WjCAgggAACCBRVoCvTANaLWnhfyl170znhixpfajP5cui3+3LPrsP4T8LYtP7XK53wDX/yzq6nSAeA6zW4pPjHOgWsrcgQtIpkvbmk7MkGAQQQQAABBBYUsMb+LHN8owWT4fQMBWRNp7qM5vgtwxDIOj8Cx/Jovrbck7dp7OenUlyIhA4AF2opxzHq9AHTK1XORwtopFV5uOQ6vdM5rjRCQwABBBAopoAMBT56Wt4oZuH9KPX5YoBtKc2aHyWiFFMF5N+s3FN/kWNaepw29E2p12YYv2rwmleADoB55ThvJgGdr6YHnoW2Ij3WFXlrpLdyMIKg/1H+pzcj/CEbaPATAQQQQACBlARkFMAPrPSdEu6SkmUxwCVBp5NNV5LVIfqDlzbu+5/l32Z7JQ7auuPwebmlP3khgAACCCCAAAIIIIAAAggggAACCCAwl8D/ATnpyP5WXQTZAAAAAElFTkSuQmCC;" parent="J34aP4NqLfEWSbsF6mjq-1" vertex="1">
                    <mxGeometry x="355" y="591.5" width="40" height="40" as="geometry"/>
                </mxCell>
                <mxCell id="56" value="Container App replica" style="text;html=1;resizable=0;autosize=1;align=center;verticalAlign=middle;points=[];fillColor=none;strokeColor=none;rounded=0;" parent="J34aP4NqLfEWSbsF6mjq-1" vertex="1">
                    <mxGeometry x="275" y="690" width="130" height="20" as="geometry"/>
                </mxCell>
                <mxCell id="61" value="Azure Monitor for Prometheus&#10;" style="shape=image;verticalLabelPosition=bottom;verticalAlign=top;imageAspect=1;aspect=fixed;image=data:image/svg+xml,PHN2ZyB4bWxucz0iaHR0cDovL3d3dy53My5vcmcvMjAwMC9zdmciIHZpZXdCb3g9Ii0zLjk0IC0xLjQ0IDQzOC42MiA0MzIuODciPjxwYXRoIGZpbGw9IiNFNzUyMjUiIGQ9Ik0yMTUuOTI2IDcuMDY4YzExNS42ODQuMDI0IDIxMC42MzggOTMuNzg0IDIxMC40OTMgMjA3Ljg0NC0uMTQ4IDExNS43OTMtOTQuNzEzIDIwOC4yNTItMjEyLjkxMiAyMDguMTY5Qzk3Ljk1IDQyMyA0LjUyIDMyOS4xNDMgNC42MDEgMjEzLjIyMSA0LjY4IDk5Ljg2NyA5OS44MzMgNy4wNDQgMjE1LjkyNiA3LjA2OHptLTYzLjk0NyA3My4wMDFjMi42NTIgMTIuOTc4LjA3NiAyNS4wODItMy44NDYgMzYuOTg4LTIuNzE2IDguMjQ0LTYuNDcgMTYuMTgzLTguNzExIDI0LjUzOS0zLjY5NCAxMy43NjktNy44ODUgMjcuNjE5LTkuNDIyIDQxLjcwMS0yLjIxIDIwLjI1IDUuNzk1IDM4LjA4NiAxOS40OTMgNTUuODIyTDg2LjUyNyAyMjUuOTRjLjExIDEuOTc4LS4wMDcgMi43MjcuMjEgMy4zNjEgNS45NjggMTcuNDMgMTYuNDcxIDMyLjExNSAyOC4yNDMgNDUuOTU3IDEuMjQ2IDEuNDY1IDQuMDgyIDIuMjE3IDYuMTgyIDIuMjIxIDYyLjc4Mi4xMTUgMTI1LjU2NS4xMDkgMTg4LjM0Ny4wMjggMS45NDgtLjAwMyA0LjU0Ni0uMzY5IDUuNzQxLTEuNjE4IDEzLjQ1Ni0xNC4wNjMgMjMuNzQ2LTMwLjA3OSAzMC4xNzktNTAuMjU3bC02Ni42NTggMTIuOTc2YzQuMzk3LTguNTY3IDkuNDE3LTE2LjEgMTIuMzAyLTI0LjM3NyA5Ljg2OS0yOC4zMTUgNS43NzktNTUuNjktOC4zODctODEuNTA5LTExLjM2OC0yMC43Mi0yMS44NTQtNDEuMzQ5LTE2LjE4My02Ni4zMi0xMi4wMDUgMTEuNzg2LTE2LjYxNSAyNi43OS0xOS41NDEgNDIuMjUzLTIuODgyIDE1LjIzLTQuNTggMzAuNjg0LTYuODExIDQ2LjEzNi0uMzE3LS40NjctLjcyOC0uODExLS43OTItMS4yMTItLjI1OC0xLjYyMS0uNDk5LTMuMjU1LS41ODctNC44OTMtMS4zNTUtMjUuMzEtNi4zMjgtNDkuNjk2LTE2LjgyMy03Mi45ODctNi4xNzgtMTMuNzEtMTIuOTktMjcuNzI3LTYuNjIyLTQ0LjA4MS00LjMxIDIuMjU5LTguMjA1IDQuNTA1LTEwLjk5NyA3LjcxMS04LjMzMyA5LjU2OS0xMS43NzkgMjEuMDYyLTEyLjY2NiAzMy42NDUtLjc1NyAxMC43NS0xLjc5NiAyMS41NTItMy44MDEgMzIuMTIzLTIuMTA3IDExLjEwOS01LjQ0OCAyMS45OTgtMTIuOTU2IDMyLjIwOS0zLjAzMy0yMS44MS0zLjM3LTQzLjM4LTIyLjkyOC01Ny4yMzd6bTE2MS44NzcgMjE2LjUyM0gxMTYuOTQydjM0LjAwN2gxOTYuOTE0di0zNC4wMDd6bS0xNTcuODcxIDUxLjU3NWMtLjE2MyAyOC4zMTcgMjguODUxIDQ5LjQxNCA2NC43MDkgNDcuODgzIDI5LjcxNi0xLjI2OSA1Ni4wMTYtMjQuNTEgNTMuNzU1LTQ3Ljg4M0gxNTUuOTg1eiIvPjwvc3ZnPg==;" parent="J34aP4NqLfEWSbsF6mjq-1" vertex="1">
                    <mxGeometry x="117.5" y="726.5" width="80" height="80" as="geometry"/>
                </mxCell>
                <mxCell id="68" style="edgeStyle=none;html=1;entryX=1;entryY=0.5;entryDx=0;entryDy=0;" parent="J34aP4NqLfEWSbsF6mjq-1" source="62" target="61" edge="1">
                    <mxGeometry relative="1" as="geometry"/>
                </mxCell>
                <mxCell id="62" value="Azure Managed Grafana" style="shape=image;verticalLabelPosition=bottom;verticalAlign=top;imageAspect=1;aspect=fixed;image=data:image/svg+xml,PHN2ZyB4bWxucz0iaHR0cDovL3d3dy53My5vcmcvMjAwMC9zdmciIHByZXNlcnZlQXNwZWN0UmF0aW89InhNaWRZTWlkIiB2aWV3Qm94PSIwIDAgMjU2IDI3OSI+PGRlZnM+PGxpbmVhckdyYWRpZW50IHgxPSI0OS45OTUlIiB5MT0iMTIyLjQ1JSIgeDI9IjQ5Ljk5NSUiIHkyPSIzMS4xMzklIiBpZD0iYSI+PHN0b3Agc3RvcC1jb2xvcj0iI0ZGRjEwMCIgb2Zmc2V0PSIwJSIvPjxzdG9wIHN0b3AtY29sb3I9IiNGMDVBMjgiIG9mZnNldD0iMTAwJSIvPjwvbGluZWFyR3JhZGllbnQ+PC9kZWZzPjxwYXRoIGQ9Ik0yNTUuNTkgMTIyLjc3NWMtLjQ2LTQuNjc1LTEuMjI2LTEwLjA0LTIuNzU5LTE2LjAxN2E5OC4wMSA5OC4wMSAwIDAwLTcuMjA0LTE5LjE2IDEwNi42OSAxMDYuNjkgMCAwMC0xMy40MTItMjAuNTRjLTIuMjIyLTIuNjgxLTQuNjc1LTUuMjg3LTcuMjgtNy44MTYgMy45MDgtMTUuNTU4LTQuNzUyLTI5LjA0Ni00Ljc1Mi0yOS4wNDYtMTQuOTQ1LS45Mi0yNC40NDggNC42NzUtMjcuOTczIDcuMjA0LS42MTMtLjIzLTEuMTUtLjUzNy0xLjc2My0uNzY3LTIuNTI5LS45OTYtNS4xMzUtMS45OTItNy44OTQtMi44MzVhMTMwLjM3NCAxMzAuMzc0IDAgMDAtOC4yNzctMi4zYy0yLjgzNS0uNjktNS42Ny0xLjIyNi04LjU4My0xLjY4Ni0uNTM3LS4wNzYtLjk5Ni0uMTUzLTEuNTMzLS4yM0MxNTcuNjQ2IDguNzM4IDEzOC45NDYgMCAxMzguOTQ2IDBjLTIwLjkyMiAxMy4yNTgtMjQuODMxIDMxLjgwNS0yNC44MzEgMzEuODA1cy0uMDc3LjM4My0uMjMgMS4wNzNjLTEuMTUuMzA3LTIuMjk5LjY5LTMuNDQ5Ljk5Ni0xLjYwOS40Ni0zLjIxOCAxLjA3My00Ljc1MSAxLjY4NmExMjMuMTEgMTIzLjExIDAgMDAtNC43NTIgMS45MTYgMTE3LjIwNSAxMTcuMjA1IDAgMDAtOS4zNSA0LjU5OWMtMi45ODkgMS42ODYtNS45IDMuNTI1LTguNzM3IDUuNDQxbC0uNzY2LS4zMDdjLTI4Ljk3LTExLjAzNi01NC42NDMgMi4yMjMtNTQuNjQzIDIuMjIzLTIuMzc2IDMwLjgwOSAxMS41NzIgNTAuMTk4IDE0LjMzMSA1My43MjQtLjY5IDEuOTE2LTEuMzAzIDMuODMyLTEuOTE2IDUuNzQ4LTIuMTQ2IDYuOTc0LTMuNzU1IDE0LjEwMS00Ljc1MSAyMS41MzUtLjE1NCAxLjA3My0uMzA3IDIuMTQ2LS4zODQgMy4yMTlDNy44OTQgMTQ2LjkxNiAwIDE3My45NyAwIDE3My45N2MyMi4zMDIgMjUuNjc0IDQ4LjM1OSAyNy4yODMgNDguMzU5IDI3LjI4M2wuMDc3LS4wNzZjMy4yOTUgNS45IDcuMTI3IDExLjQ5NSAxMS40MTkgMTYuNzgzYTExMS45MDQgMTExLjkwNCAwIDAwNS42NzEgNi4zNjJjLTguMTI0IDIzLjI5OCAxLjE1IDQyLjYxIDEuMTUgNDIuNjEgMjQuODMuOTIgNDEuMTU1LTEwLjg4MiA0NC42MDMtMTMuNTY0YTg0LjQ3MyA4NC40NzMgMCAwMDcuNTExIDIuMjIyIDEwOS43MDMgMTA5LjcwMyAwIDAwMjMuMjk4IDMuNDQ5YzEuOTE2LjA3NiAzLjkwOS4xNTMgNS44MjUuMDc2aDIuNzU5bDEuMjI2LS4wNzZ2LjA3NmMxMS43MjYgMTYuNzA4IDMyLjI2NSAxOS4wODQgMzIuMjY1IDE5LjA4NCAxNC42MzgtMTUuNDA1IDE1LjQ4LTMwLjczMyAxNS40OC0zNC4wMjh2LTEuMzhjMy4wNjYtMi4xNDUgNS45NzktNC40NDUgOC43MzgtNi45NzQgNS44MjQtNS4yODggMTAuOTU5LTExLjM0MiAxNS4yNS0xNy44NTdsMS4xNS0xLjgzOWMxNi41NTQuOTIgMjguMjgtMTAuMjcgMjguMjgtMTAuMjctMi43NTktMTcuMjQzLTEyLjU2OS0yNS42NzMtMTQuNjM4LTI3LjI4MyAwIDAtLjA3Ny0uMDc2LS4yMy0uMTUzLS4xNTMtLjA3Ny0uMTUzLS4xNTMtLjE1My0uMTUzLS4wNzctLjA3Ny0uMjMtLjE1NC0uMzgzLS4yMy4wNzYtMS4wNzMuMTUzLTIuMDcuMjMtMy4xNDIuMTUzLTEuODQuMTUzLTMuNzU2LjE1My01LjU5NXYtMi45MTNsLS4wNzctMS4xNDktLjA3Ni0xLjUzM2MwLS41MzYtLjA3Ny0uOTk2LS4xNTQtMS40NTYtLjA3Ni0uNDYtLjA3Ni0uOTk2LS4xNTMtMS40NTZsLS4xNTMtMS40NTYtLjIzLTEuNDU2Yy0uMzA3LTEuOTE2LS42MTMtMy43NTYtMS4wNzMtNS42NzItMS43NjMtNy40MzMtNC42NzUtMTQuNDg0LTguNDMtMjAuODQ1YTcwLjM3MyA3MC4zNzMgMCAwMC0xNC4wMjUtMTYuNzA3Yy01LjM2NS00Ljc1Mi0xMS40Mi04LjU4NC0xNy43MDQtMTEuNDItNi4zNi0yLjgzNS0xMi45NTItNC42NzUtMTkuNTQzLTUuNTE4LTMuMjk1LS40Ni02LjU5LS42MTMtOS44ODYtLjUzNmgtMi40NTNsLTEuMjI2LjA3N2MtLjQ2IDAtLjkyLjA3Ni0xLjMwMy4wNzZhNTEuOTU4IDUxLjk1OCAwIDAwLTQuOTgxLjY5Yy02LjU5MSAxLjIyNi0xMi43OTkgMy42MDItMTguMjQgNi44OTctNS40NDEgMy4yOTYtMTAuMTkzIDcuMzU4LTE0LjAyNSAxMS45NTZhNTQuNyA1NC43IDAgMDAtOC44OSAxNS4wMjEgNTIuODU3IDUyLjg1NyAwIDAwLTMuNTI1IDE2LjA5NGMtLjA3NyAxLjMwMy0uMDc3IDIuNjgzLS4wNzcgMy45ODZ2Ljk5NmwuMDc3IDEuMDczYy4wNzYuNjEzLjA3NiAxLjMwMy4xNTMgMS45MTYuMjMgMi42ODIuNzY2IDUuMjg4IDEuNDU2IDcuNzQgMS40NTYgNC45ODIgMy43NTUgOS41MDMgNi41OSAxMy4zMzUgMi44MzYgMy44MzIgNi4yODUgNi45NzUgOS44ODcgOS41MDQgMy42MDIgMi40NTIgNy41MSA0LjIxNSAxMS4zNDMgNS4zNjQgMy44MzIgMS4xNSA3LjY2NCAxLjYxIDExLjI2NiAxLjYxaDEuOTkyYy4yMyAwIC40NiAwIC42ODktLjA3Ny4zODMgMCAuNzY2LS4wNzcgMS4xNS0uMDc3LjA3NiAwIC4yMyAwIC4zMDYtLjA3NmwuMzgzLS4wNzdjLjIzIDAgLjQ2LS4wNzYuNjktLjA3Ni40Ni0uMDc3Ljg0My0uMTU0IDEuMzAzLS4yMy40Ni0uMDc3Ljg0My0uMTU0IDEuMjI2LS4zMDcuODQzLS4xNTMgMS42MS0uNDYgMi4zNzYtLjY5IDEuNTMzLS41MzYgMy4wNjYtMS4xNSA0LjM2OC0xLjgzOSAxLjM4LS42OSAyLjYwNi0xLjUzMyAzLjgzMi0yLjMuMzA3LS4yMy42OS0uNDU5Ljk5Ny0uNzY2IDEuMjI2LS45OTYgMS40NTYtMi44MzUuNDYtNC4wNjEtLjg0NC0xLjA3My0yLjM3Ni0xLjM4LTMuNjAzLS42OWwtLjkyLjQ2YTI0LjkxNCAyNC45MTQgMCAwMS0zLjI5NSAxLjM4Yy0xLjE1LjM4Mi0yLjM3NS42ODktMy42MDIuOTE5LS42MTMuMDc2LTEuMjI2LjE1My0xLjkxNi4yMy0uMzA2IDAtLjYxMy4wNzYtLjk5Ni4wNzZoLTEuODRjLS4zODMgMC0uNzY2IDAtMS4xNDktLjA3NmgtLjQ1OWMtLjE1MyAwLS4zODMgMC0uNTM2LS4wNzctLjM4My0uMDc3LS42OS0uMDc3LTEuMDczLS4xNTMtMi44MzYtLjM4My01LjY3MS0xLjIyNi04LjM1NC0yLjQ1M2EyOS4yNzUgMjkuMjc1IDAgMDEtNy43NC01LjA1OGMtMi4zNzYtMi4xNDYtNC40NDUtNC42NzUtNi4wNTUtNy41ODctMS42MS0yLjkxMi0yLjc1OS02LjEzMS0zLjI5NS05LjUwMy0uMjMtMS42ODYtLjM4My0zLjQ0OS0uMzA3LTUuMTM1IDAtLjQ2LjA3Ny0uOTIuMDc3LTEuMzh2LS42MTNjMC0uMjMuMDc3LS40Ni4wNzctLjY5LjA3Ni0uOTE5LjIzLTEuODM5LjM4My0yLjc1OCAxLjMwMy03LjM1OCA0Ljk4MS0xNC41NjIgMTAuNjUzLTIwLjAwMyAxLjQ1Ni0xLjM4IDIuOTg4LTIuNjA2IDQuNTk4LTMuNzU1YTMxLjcwNSAzMS43MDUgMCAwMTUuMjExLTIuOTkgMzUuNzM5IDM1LjczOSAwIDAxNS42NzItMi4wNjhjMS45MTUtLjUzNyAzLjkwOC0uODQ0IDUuOTc3LTEuMDczLjk5Ny0uMDc3IDEuOTkzLS4xNTQgMy4wNjYtLjE1NGgyLjM3NmwuODQzLjA3N2MyLjIyMi4xNTMgNC4zNjguNDYgNi41MTQuOTk2IDQuMjkyLjkyIDguNTA3IDIuNTMgMTIuNDE1IDQuNjc1IDcuODE4IDQuMzY5IDE0LjQ4NSAxMS4xMTMgMTguNTQ3IDE5LjIzNyAyLjA3IDQuMDYxIDMuNTI1IDguNDMgNC4yMTUgMTIuOTUxLjE1MyAxLjE1LjMwNyAyLjMuMzgzIDMuNDVsLjA3Ny44NDIuMDc3Ljg0M3YzLjI5NmMwIC41MzYtLjA3NyAxLjQ1Ni0uMDc3IDEuOTkyLS4wNzcgMS4yMjctLjIzIDIuNTMtLjM4MyAzLjc1NnMtLjM4MyAyLjQ1Mi0uNjEzIDMuNjc4YTQ5LjU0OCA0OS41NDggMCAwMS0uODQzIDMuNjAyIDY0LjEyOSA2NC4xMjkgMCAwMS0yLjMgNy4xMjggNjIuNDE3IDYyLjQxNyAwIDAxLTcuMjA0IDEzLjEwNWMtNS45IDguMTI0LTEzLjk0OCAxNC43MTUtMjMuMTQ0IDE4LjkzLTQuNTk5IDIuMDY5LTkuNDI3IDMuNjAyLTE0LjQwOCA0LjM2OC0yLjQ1My40Ni00Ljk4Mi42OS03LjUxMS43NjZoLTMuODMyYTM2LjA4IDM2LjA4IDAgMDEtNC4wNjItLjIzYy01LjM2NS0uMzgzLTEwLjY1My0xLjM3OS0xNS44NjQtMi44MzUtNS4xMzUtMS40NTYtMTAuMTE2LTMuNTI1LTE0Ljg2OC01Ljk3OC05LjQyNy01LjA1OC0xNy45MzMtMTEuOTU2LTI0LjUyNC0yMC4zMWE3OS4wMTUgNzkuMDE1IDAgMDEtOC41ODQtMTMuMzM0IDc5LjE5NyA3OS4xOTcgMCAwMS01LjY3MS0xNC42MzhjLTEuMzgtNS4wNTgtMi4yMjMtMTAuMTkzLTIuNjA2LTE1LjQwNWwtLjA3Ny0uOTk2di02LjgyMWMuMDc3LTIuNTI5LjMwNy01LjIxMS42MTQtNy44MTcuMzA2LTIuNjA2Ljc2Ni01LjI4OCAxLjMwMi03Ljg5NC41MzctMi42MDUgMS4xNS01LjIxMSAxLjkxNi03LjgxN2ExMDIuODU2IDEwMi44NTYgMCAwMTUuNDQyLTE0Ljc5MWM0LjM2OC05LjM1IDEwLjA0LTE3LjcwNCAxNi44Ni0yNC4zNzEgMS42ODYtMS42ODYgMy40NDktMy4yMiA1LjI4OC00Ljc1MmE3OC4xOTYgNzguMTk2IDAgMDE1Ljc0OC00LjEzOGMxLjkxNi0xLjMwMyAzLjk4NS0yLjQ1MyA2LjA1NS0zLjUyNmEzOS43NzMgMzkuNzczIDAgMDEzLjE0Mi0xLjUzMyAxMTExODg5Ni4wMzggMTExMTg4OTYuMDM4IDAgMDEzLjIxOS0xLjM3OWMyLjE0Ni0uOTIgNC4zNjgtMS42ODYgNi42NjctMi4zNzYuNTM3LS4xNTMgMS4xNS0uMzA2IDEuNjg2LS41MzYuNTM3LS4xNTQgMS4xNS0uMzA3IDEuNjg2LS40NiAxLjE1LS4zMDcgMi4zLS42MTMgMy40NS0uODQzLjUzNi0uMTUzIDEuMTQ5LS4yMyAxLjc2Mi0uMzgzLjYxMy0uMTU0IDEuMTUtLjIzIDEuNzYzLS4zODQuNjEzLS4wNzYgMS4xNS0uMjMgMS43NjItLjMwNmwuODQzLS4xNTMuOTItLjE1NGMuNjEzLS4wNzYgMS4xNS0uMTUzIDEuNzYzLS4yMy42OS0uMDc2IDEuMzAyLS4xNTMgMS45OTItLjIzLjUzNy0uMDc2IDEuNDU2LS4xNTMgMS45OTMtLjIzLjM4My0uMDc2Ljg0My0uMDc2IDEuMjI2LS4xNTNsLjg0My0uMDc2LjM4My0uMDc3aC40NmMuNjktLjA3NyAxLjMwMy0uMDc3IDEuOTkzLS4xNTNsLjk5Ni0uMDc3aC43NjdjLjUzNiAwIDEuMTQ5LS4wNzYgMS42ODUtLjA3NmE5OC45NDQgOTguOTQ0IDAgMDE2Ljc0NSAwYzQuNDQ1LjE1MyA4LjgxMy42OSAxMy4wMjggMS40NTYgOC41MDcgMS42MSAxNi40NzggNC4yOTEgMjMuNzU4IDcuODkzIDcuMjggMy41MjYgMTMuNzE5IDcuODk0IDE5LjM5IDEyLjY0Ni4zODMuMzA2LjY5LjYxMyAxLjA3My45Mi4zMDYuMzA2LjY5LjYxMy45OTYuOTIuNjkuNjEyIDEuMzAzIDEuMjI1IDEuOTkzIDEuODM4LjY5LjYxNCAxLjMwMyAxLjIyNyAxLjkxNiAxLjg0YTQ0LjMwMiA0NC4zMDIgMCAwMTEuODM5IDEuOTE2YzIuMzc2IDIuNTI5IDQuNTk4IDUuMDU4IDYuNTkgNy42NjRhOTguODk3IDk4Ljg5NyAwIDAxOS43MzQgMTUuMjVsLjQ2LjkyLjQ2LjkyYy4zMDYuNjEzLjYxMyAxLjIyNi44NDMgMS44NC4zMDYuNjEzLjUzNiAxLjE0OS44NDMgMS43NjIuMjMuNjEzLjUzNiAxLjE1Ljc2NiAxLjc2My45MiAyLjI5OSAxLjg0IDQuNTIxIDIuNTMgNi41OSAxLjE0OSAzLjM3MyAxLjk5MiA2LjM2MiAyLjY4MiA4Ljk2N2EyLjA0MyAyLjA0MyAwIDAwMi4yOTkgMS42MWMxLjE1LS4wNzcgMS45OTItLjk5NiAxLjk5Mi0yLjE0Ni4wNzctMi43NTkgMC02LjA1NC0uMzgzLTkuODF6IiBmaWxsPSJ1cmwoI2EpIi8+PC9zdmc+;" parent="J34aP4NqLfEWSbsF6mjq-1" vertex="1">
                    <mxGeometry x="355" y="731.5" width="70" height="70" as="geometry"/>
                </mxCell>
                <mxCell id="69" style="edgeStyle=none;html=1;entryX=1;entryY=0.5;entryDx=0;entryDy=0;" parent="J34aP4NqLfEWSbsF6mjq-1" source="63" target="62" edge="1">
                    <mxGeometry relative="1" as="geometry"/>
                </mxCell>
                <mxCell id="63" value="Operator" style="verticalLabelPosition=bottom;html=1;verticalAlign=top;align=center;strokeColor=none;fillColor=#00BEF2;shape=mxgraph.azure.user;" parent="J34aP4NqLfEWSbsF6mjq-1" vertex="1">
                    <mxGeometry x="522.5" y="741.5" width="47.5" height="50" as="geometry"/>
                </mxCell>
                <mxCell id="65" value="/q/metrics" style="edgeStyle=none;html=1;exitX=1;exitY=0.5;exitDx=0;exitDy=0;" parent="J34aP4NqLfEWSbsF6mjq-1" source="64" target="38" edge="1">
                    <mxGeometry relative="1" as="geometry">
                        <mxPoint x="265" y="608.7876712328766" as="sourcePoint"/>
                    </mxGeometry>
                </mxCell>
                <mxCell id="67" style="edgeStyle=none;html=1;entryX=0.5;entryY=0;entryDx=0;entryDy=0;" parent="J34aP4NqLfEWSbsF6mjq-1" source="64" target="61" edge="1">
                    <mxGeometry relative="1" as="geometry"/>
                </mxCell>
                <mxCell id="64" value="&amp;nbsp; &amp;nbsp; &amp;nbsp; &amp;nbsp; &amp;nbsp; &amp;nbsp; &amp;nbsp; &amp;nbsp; &amp;nbsp;telegraf" style="html=1;sketch=1;strokeColor=#6c8ebf;fontStyle=0;labelBackgroundColor=none;fillColor=#F0F4FF;" parent="J34aP4NqLfEWSbsF6mjq-1" vertex="1">
                    <mxGeometry x="85" y="577" width="145" height="60" as="geometry"/>
                </mxCell>
                <mxCell id="70" value="" style="shape=image;verticalLabelPosition=bottom;labelBackgroundColor=#ffffff;verticalAlign=top;aspect=fixed;imageAspect=0;image=data:image/png,iVBORw0KGgoAAAANSUhEUgAAASgAAADPCAYAAABGMUyXAAAKtGlDQ1BJQ0MgUHJvZmlsZQAASImVlwdUU8kax+fe9EaA0GvoTZBOACkhtAAK0kFUQhIglBACQcSuLK7AiiIigmUFVkEUXAsga8WCBRFQwL5BFhV1XSyIiuVd4BDcfee9d953z9z5nS/f/OebOTM53wWAosYRidJgeQDShdniUD8venRMLB33BJCAFqABKrDlcLNEzJCQIIDYTP93e98PoMn+luWk1r///l9NgcfP4gIAhSCcwMvipiN8HGlvuCJxNgCoOsRvsCxbNMmdCCuJkQQRlk5y0jS/m+SEKUbjp2LCQ1kIawGAJ3M44iQAyKaIn57DTUJ0yP4IWwt5AiHCuQi7p6dn8BBuRdgUiREhPKnPSPhOJ+lvmgkyTQ4nScbTa5kyvLcgS5TGWf5/bsf/tvQ0ycwcxkgjJ4v9Q5FeA9mzO6kZgTIWJiwInmEBbyp+ipMl/hEzzM1ixc4wj+MdKBubtiBohhMFvmyZTjY7fIb5WT5hMyzOCJXNlShmMWeYI56dV5IaIfMn89ky/bzk8KgZzhFELpjhrNSwwNkYlswvloTK8ucL/bxm5/WVrT0967v1CtiysdnJ4f6ytXNm8+cLmbOaWdGy3Hh8b5/ZmAhZvCjbSzaXKC1EFs9P85P5s3LCZGOzkQM5OzZEtocpnICQGQbhwAeEIg8T0EEQYAFvYIs8NsAagGx+bvbkglgZouViQVJyNp2J3DQ+nS3kWs2h21rb2gIweW+nj8Xb0Kn7CKmcmfVl1CLH+T1yV7bO+hLKAGgpAEDt3qzPcA8A1HwAmtu5EnHOtA89+cIAIvJvoATUgQ4wAKbAEsnNEbgCTyTrABCMZB8DlgAuSAbpQAyWgZVgHSgARWAL2A4qwV5QA+rAYXAUtIBT4Dy4DK6DbtAH7gMpGAYvwCh4DyYgCMJBFIgGqUO6kBFkAdlCDMgd8oGCoFAoBoqHkiAhJIFWQhugIqgUqoT2QfXQr9BJ6Dx0FeqB7kKD0Aj0BvoEo2AyrARrw8bwXJgBM+FAOBxeDCfBmXAenA9vhivgavgQ3Ayfh6/DfbAUfgGPoQCKhFJB6aEsUQwUCxWMikUlosSo1ahCVDmqGtWIakN1oG6hpKiXqI9oLJqGpqMt0a5of3QEmovORK9GF6Mr0XXoZvRF9C30IHoU/RVDwWhhLDAuGDYmGpOEWYYpwJRj9mNOYC5h+jDDmPdYLFYFa4J1wvpjY7Ap2BXYYuxubBP2HLYHO4Qdw+Fw6jgLnBsuGMfBZeMKcDtxh3Bncb24YdwHPAmvi7fF++Jj8UL8enw5/iD+DL4X/xQ/QZAnGBFcCMEEHmE5oYRQS2gj3CQMEyaICkQTohsxnJhCXEesIDYSLxEfEN+SSCR9kjNpIUlAWkuqIB0hXSENkj6SFcnmZBY5jiwhbyYfIJ8j3yW/pVAoxhRPSiwlm7KZUk+5QHlE+SBHk7OSY8vx5NbIVck1y/XKvaISqEZUJnUJNY9aTj1GvUl9KU+QN5ZnyXPkV8tXyZ+UH5AfU6Ap2CgEK6QrFCscVLiq8EwRp2is6KPIU8xXrFG8oDhEQ9EMaCwal7aBVku7RBtWwiqZKLGVUpSKlA4rdSmNKisq2ytHKucqVymfVpaqoFSMVdgqaSolKkdV+lU+qWqrMlX5qptUG1V7VcfVNNU81fhqhWpNan1qn9Tp6j7qqepb1VvUH2qgNcw1Fmos09ijcUnjpaaSpqsmV7NQ86jmPS1Yy1wrVGuFVo1Wp9aYto62n7ZIe6f2Be2XOio6njopOmU6Z3RGdGm67roC3TLds7rP6cp0Jj2NXkG/SB/V09Lz15Po7dPr0pvQN9GP0F+v36T/0IBowDBINCgzaDcYNdQ1nG+40rDB8J4RwYhhlGy0w6jDaNzYxDjKeKNxi/EzEzUTtkmeSYPJA1OKqYdppmm16W0zrBnDLNVst1m3OWzuYJ5sXmV+0wK2cLQQWOy26JmDmeM8Rzines6AJdmSaZlj2WA5aKViFWS13qrF6tVcw7mxc7fO7Zj71drBOs261vq+jaJNgM16mzabN7bmtlzbKtvbdhQ7X7s1dq12r+0t7Pn2e+zvONAc5jtsdGh3+OLo5Ch2bHQccTJ0infa5TTAUGKEMIoZV5wxzl7Oa5xPOX90cXTJdjnq8perpWuq60HXZ/NM5vHn1c4bctN347jtc5O6093j3X92l3roeXA8qj0eexp48jz3ez5lmjFTmIeYr7ysvcReJ7zGWS6sVaxz3ihvP+9C7y4fRZ8In0qfR776vkm+Db6jfg5+K/zO+WP8A/23+g+wtdlcdj17NMApYFXAxUByYFhgZeDjIPMgcVDbfHh+wPxt8x8sMFogXNASDILZwduCH4aYhGSG/LYQuzBkYdXCJ6E2oStDO8JoYUvDDoa9D/cKLwm/H2EaIYloj6RGxkXWR45HeUeVRkmj50avir4eoxEjiGmNxcVGxu6PHVvks2j7ouE4h7iCuP7FJotzF19dorEkbcnppdSlnKXH4jHxUfEH4z9zgjnVnLEEdsKuhFEui7uD+4LnySvjjfDd+KX8p4luiaWJz5LckrYljSR7JJcnvxSwBJWC1yn+KXtTxlODUw+kfkuLSmtKx6fHp58UKgpThRczdDJyM3pEFqICkTTTJXN75qg4ULw/C8panNWarYQUSJ0SU8kPksEc95yqnA/LIpcdy1XIFeZ2Ljdfvmn50zzfvF9WoFdwV7Sv1Fu5buXgKuaqfauh1Qmr29cYrMlfM7zWb23dOuK61HU31luvL13/bkPUhrZ87fy1+UM/+P3QUCBXIC4Y2Oi6ce+P6B8FP3Ztstu0c9PXQl7htSLrovKiz8Xc4ms/2fxU8dO3zYmbu0ocS/ZswW4Rbunf6rG1rlShNK90aNv8bc1l9LLCsnfbl26/Wm5fvncHcYdkh7QiqKJ1p+HOLTs/VyZX9lV5VTXt0tq1adf4bt7u3j2eexr3au8t2vvpZ8HPd/b57WuuNq4ur8HW5NQ8qY2s7fiF8Uv9fo39Rfu/HBAekNaF1l2sd6qvP6h1sKQBbpA0jByKO9R92Ptwa6Nl474mlaaiI+CI5MjzX+N/7T8aeLT9GONY43Gj47tO0E4UNkPNy5tHW5JbpK0xrT0nA062t7m2nfjN6rcDp/ROVZ1WPl1yhngm/8y3s3lnx86Jzr08n3R+qH1p+/0L0RduX1x4setS4KUrl30vX+hgdpy94nbl1FWXqyevMa61XHe83tzp0HnihsONE12OXc03nW62djt3t/XM6znT69F7/pb3rcu32bev9y3o6+mP6L8zEDcgvcO78+xu2t3X93LuTdxf+wDzoPCh/MPyR1qPqn83+71J6ig9Peg92Pk47PH9Ie7Qiz+y/vg8nP+E8qT8qe7T+me2z06N+I50P1/0fPiF6MXEy4I/Ff7c9cr01fG/PP/qHI0eHX4tfv3tTfFb9bcH3tm/ax8LGXv0Pv39xHjhB/UPdR8ZHzs+RX16OrHsM+5zxRezL21fA78++Jb+7ZuII+ZMlQIopMGJiQC8OQAAJQYAWjcAxEXTdfWUQdPfAlME/hNP195T5ghAzQAA4SsACLoBwM5KpKxF9KlxAIRQEb8rgO3sZG2mBp6q1ydt8RsA9OUn6cqT/LXgHzZdy3+X9z97MKlqD/7Z/wvIVQlJmp5xFgAAAFZlWElmTU0AKgAAAAgAAYdpAAQAAAABAAAAGgAAAAAAA5KGAAcAAAASAAAARKACAAQAAAABAAABKKADAAQAAAABAAAAzwAAAABBU0NJSQAAAFNjcmVlbnNob3TBHp84AAAB1mlUWHRYTUw6Y29tLmFkb2JlLnhtcAAAAAAAPHg6eG1wbWV0YSB4bWxuczp4PSJhZG9iZTpuczptZXRhLyIgeDp4bXB0az0iWE1QIENvcmUgNi4wLjAiPgogICA8cmRmOlJERiB4bWxuczpyZGY9Imh0dHA6Ly93d3cudzMub3JnLzE5OTkvMDIvMjItcmRmLXN5bnRheC1ucyMiPgogICAgICA8cmRmOkRlc2NyaXB0aW9uIHJkZjphYm91dD0iIgogICAgICAgICAgICB4bWxuczpleGlmPSJodHRwOi8vbnMuYWRvYmUuY29tL2V4aWYvMS4wLyI+CiAgICAgICAgIDxleGlmOlBpeGVsWURpbWVuc2lvbj4yMDc8L2V4aWY6UGl4ZWxZRGltZW5zaW9uPgogICAgICAgICA8ZXhpZjpQaXhlbFhEaW1lbnNpb24+Mjk2PC9leGlmOlBpeGVsWERpbWVuc2lvbj4KICAgICAgICAgPGV4aWY6VXNlckNvbW1lbnQ+U2NyZWVuc2hvdDwvZXhpZjpVc2VyQ29tbWVudD4KICAgICAgPC9yZGY6RGVzY3JpcHRpb24+CiAgIDwvcmRmOlJERj4KPC94OnhtcG1ldGE+CmRyxxQAAEAASURBVHgB7b1pkCTHdefpEZGZ1SBIAiQOAmiA6G7cR+O+0SAAggB4CZRWByXN7o5Gu6ZZ2Zq0JrNZM32Q2Wg/StoPst0VOdLIZCYbjSSKIkVSB0mQuC/iBoj7bhD3SeLuqrz2/3uRnh0VGZnpkZVZlVUVD6jOzAgPDw8P97+/9/wdUVfkKqp6oOqBqgfmsAfiOWxT1aSqB6oeqHrAeqACqGogVD1Q9cDc9kAFUHP7aqqGVT1Q9UAFUNUYqHqg6oG57YEKoOb21VQNq3qg6oEKoKoxUPVA1QNz2wMVQM3tq6kaVvVA1QMVQFVjoOqBqgfmtgcqgJrbV1M1rOqBqgcqgKrGQNUDVQ/MbQ9UADW3r6ZqWNUDVQ/UNmQXdDqu89OfutbDD7nmrTe77isvr+5jLiy4+BOHOqdPKN53X9f94AMXffjDdiyqpd3ebbVctLDFdRf3WDn/PXs+Vh3dZtN19Uzxln1cZ4/qibWuJDUdX3JRveFcu9U/340iF21ZcFGS6MaJ63Y7LvrIR12kNsQf3c9F++m77umoQ2Urqnpgnnsg2lDOwprE3bffcq0HH3DN22517aeedN3335/n/p9N2wBAAMqTfkf1uov2+ZBLtu9wtRNPcslxx7v4gAOc64GlL1p9Vj0wTz2wcQCq3XbtZ3e75vXXimu6xXWXluapn+eqLdGWLS459jjXuOTTLhFYRR/60Fy1r2pM1QO+BzaGiIdI95Nn3dK//otr3nu3cxKdKhreA909e4zL7L7zjmssLrramWdJLJTYV1HVA3PWAxtCSd5943W3dN01rvXQAxU4hQ4wQP25n1i/tR952DnpuSqqemDeemDdA1RXHMDSPXe71o/vN0X0vHXwPLcHJX179zOuedONrv3C804a9XlubtW2TdgD6xugNKE6mlhtgVPnZz+rJtgkA1icU+vxR13rfgH8++9NUkN1TdUDM+uBdQ1Q7NDBObWffso5iSwVTdADAnl0Ua3773Wdl1+pQH6CLqwumV0PTEVJ3l1adO0nHte2voCiR9jdRB/+iHNSvsbsEsn2xo41GqlCVtveKyJ27Z552jXvvst136tW/hX1pUCKvmzddYdLDj3EuQ/tO3l1nbY4sQ9k27UovdaSPpfE3f7UOSnmu+++Y+/KdljffVc2Wfu52mlnuGTbtsoma/Ie39BXTgWg9vz3v3GtO2/XAHy3uLNkk4ORYgQ4YTSogRnt/zEXH3KIiw89zMX77a/jH5GdjkAsa0Q4zJAQ0e7NN1NzAnQnFa28BwT4Tb3D5OSdrnbCiakhZ75W9bvpqeBWZRzaeVcLA8Dz1s9cW8aw3Vdede3XxIW9/bbOvaM/jQc/JlR/EbUfetDt87u/56KPfrTodHVsk/fAVACqK5AYCk50sAZn9623nKlgX3st7XKzhhZwyVI62lfgtf9+Ljniky6SBXaydauLPiYAE2jBgUU1cVuU7xGW1e1HH3FtGWSi6J0KYYENIPZA0ZLd8J1J6T+5kZ+kU7npfFXSefVV17pDXNQRRwgw9ksbp+fFYh0g6kgU7MpCv/Paq67zyium/+u++YZZ7RvHBAiNE7WzfUl3itPifVY27fM1FualNVMBqL7VsgZftM8+cvP4RMoJabAagGjg4qLBILftbI6zrS1wMTcOVlmtwO0nn0wtnuGwDjjQJYeJuzpsq9UXf+zj4rz2d05cWPf111zz9ttcR1bjUyOBYARHd+CBVqWexHWxwAYA4x5wtTuu/ebrrvPii4Pb8gLQaP/9df1B9lwdOAqs2AG0DDHx6R/XEsi+LBcc+iRbhj6USAxHacAYCZiZ9Ik+W22BtVxcPAjIjaX73vv6U//5Y5l7TfIVO7L42GNd/ZRTTWneff114446z2sz4sUXHCYdttggwuXazSICl9zlE064rv7jEw6avuScrumoTiexr6txwbHKmn2SN7U5rpkKQDExjTS5ENkWvniVi+CCNBgxCnQazKy+7p23bdJ2+PyZOCqJBnBeHYkETnosW01V3q7RCo19jnFYiIAHHeRqhx/hnD67Otd6/LFSkxJXD7gx4+ZoU25CR7XEJaq/dvY5+jxcQJj60eWHQVv+fXu+9Q3XhRPMTFAMHetnn+vql1xqE3jxm/8owH1iWRkmak2Tv6H+4ZmXvv1PpvvJ1uPUTqy7G+eebxNcjnfWZia7gTuuKXAqwj0ArnXPXWkduefxnOCyuvMPU/AbV6Hm97/rOs88Lc7oTdd5/jm5D4lz+kBgm70HoGN9qgVJ4hn6RSdQ5bsTRxyzyMi1xoAWLpk/9VH3gz1u6bsyqL37rvQ5VC6WaG/thLuqqOqBTA9MBaDig8UReNKgBbCSQw5NjzCJ9df3DNMgB4C64qhQbnck+jnEBpkJdF5+UeLDa9pVEoD1JkVa9mXnJFYAWLF0WcZ9ATKBxDXx8Se42tHH2KRo/+QntrWOuOKJ+2DoiTjTleK2ftrpe7mYDBA5+bAlh2517TfeMA7ArmdiwTlKNEoE0B2BG5xkIWmSwmWZzo3JnJuUcByJ2plwf8BogAT64pqwX+q8RH+9mk70bDm9AzjBWFwoXFzn5ZdSG7Hsc2TLZ7/r/VB3W5b5Rh6UaKe4HTY+8OGLDz7Y6o/4rvuYOA4g8dz6M4dmL5ZnnrGLOYja5yn++McrDsp3RvU50ANFM2Cg0LgDpuBk0CEO8WcrfE93w+DMDFC+pzt88uzXRI1h8wEtRD7Z4aBYBayIQNB57jkzIDRxiZ06lTNAG9eg7Hmt3Mkpp7nG5VeYuAhY1sS51bTruCSfPTNRAOx0vCuupn3/fel9ZbrQOP8CFx+5bZkbSCzdWO2kk3Tdk+IIxRVCeiZABw7MnpW6isCAfmDS0gea6MnWwwW6jwjoJP726rGdrU8emXInlM8S4PGswFViGA7R2IAZt5m5V3zQwa52+pnWRoCkI4Bq3nKza919py0IPGcQAUy0E7D5uEBIXCU6wuQTh0j8PiDd6FB0BTgjE/ERQQM0Salor3eu0oiCbJAYl5h/1qBGVoU2eg9MBaCYFAxU0yeh9MRRd9iAyx23sCBeXJDuJWE1PlwizPEnpJzWu9oNks6n/eTjrnnjjaYXCX4puhcK3/pFn0qBpseRRB8St6NJl2zb7ppYoeuvLVEGcLVnABwl3qCIr596mqtddLHpwwxcVAdb4210Mg/BcUnBq0lWP+tsE2/tudHBeO4h01hEXic9lpH6q3bWOQbG7UceSuvRDmfj3PNcsuOogf7rimND79a84/aUIwJUAZEeIVolcH6IqAJVx64pAKB7soCYzdi99+gZA11a1Hfo5Bau/LwiIGxPgUTcn+mM9L6Gvl/foKJPtcU41F7bTUREGZ8bE0WXVsc2Zw9MB6DQQYm9ty1lOCHiG8kehnhEpYmJAZDozxxYpaNIDj3UxIrWj27TRAuvEdOG2qmnW4gRA8L+pVq/BRCxOIKGxFPCjyzdfKNr3Xef6cWMyxDIIkItaZeqJZGnvutTrrbzFOlYJOJIvNnyy192nUs/bbY9AJRtDGgCG/HsRZyKAIN4TSiHY31PjjzSbfnyr0n5LKW7dHDYHyWHbzURyTcVXRV6L3wNcYjOK97hcJKjjrb21XfuTG2YVHd20iNuN3bt0vW7HTt1hW3zN/SftF/vMkZc/+QnxSVNYagARLKLwmLd4lvZgqSQLxVVPTCkB6Yw6jQXMAnQhNe01K7UBxLDpEPqaOWG618pMaiZK3ffnSraQ+sDAKQPqkm8M70I9eRJx+D8kmOOdVtUtqWJvnTj9a6ze7dxNExkRCh0X4RyqYtDaVx+pQELXEmCDgkqqjs9s+xf27UigBwcCKRP6qnl6zFOo2ki3NIPvm8cngFTepX9Sx2RdjkbF+xytXPOTXcPh7WDvjhWurOTT3EdhaMxETxT19CvAkeU2cmOHWa3NrRc6AlADyCGw+Y7/Y8OqqKqB4b0wHQAiq1i2TG557Xjgw4Kny44qZ5INeTeQYeZ1B3pi3DFyIo0Iy9m4IurqZ13vol4IwGkN6lRWiMKJieebAagzdtuNoW96dSYTOhyFJ2z/cRjrv6pSyxEScLmQEbh69sUiRMyUISTyYhhBkxEwIR6E3RZ23SMnUx0bi2JYwTd6776yl5lPNeprxFPaxI96xdcaHosa8MwcOIaEXq/hU9dbGIruqsQQnxtSfzEnYh7OezRVkLqC3SIHmwNnIbslq7kNtW1G6cHpgJQAFFy4MHGQTHB2lJy103XMWQnK7T/mMTaaVu6QVyNdqKCRBPqFjAgttXPPLscSEokjWXG0Pjc58V5neKaEqswZ8CkgMkKscu4+E/fMCV143wBxMkni4OUjRZmAF5JrP4wuy19LjMk1WSMZUFfCCiIlK++7JoPPGhAaMavgL0n1cXuaE0AWpfynsiYFmjOA50vN+Iz1jX18y5wi9/+ZrqZMaKsnQIw1f/o6ZKjjtEmw2HB3GJR1dYX5vaSbgpYv4mDrajqgWE9MB2AkiwX9QwcTdHMVvIesfKyNVwRadI2H3rQuBbjZAIrY4u9fuFF4qIkgpWYwL56FMEAANvnyaMPSzktxbSACvst44jECbQfe9TtkeFi8pgU6bJ/qh19tO1sIdfa9QLIWHZQ6I0QabqYF0jZnBx3XKpo9jeDq3j9Ndd+XFyifOFaTzyx3PBSnBE2RTF6Ju4jNxR7Li8/j+Gc/G38Z/3CXRbUDzunIMAXB9t+Wn56Dz/o6gcIiLVzNzFp0WrDQWkRg2Lcnhor5Mombkx14XrogekAlDgWs+3RxLYdPG3j44uViBuZmAQsxChq3nmHuVIETSbdDAW76WWOYidsubK4bFvQD9XPOFNi1BESc+5LIydIYe4V1RYFgF012VW1TznVbKdiKb4t9rfspTDIZCcQJ1l8D2snnihORO1C9EN0lVEk1vOtu+40ECbRQ18/JOBByc+OXCJFf+3knaact52vCUDXPzt2RwtS7u/BjkvvKYQszrtEzmTH0bajZ+0PuTBXxpyItengd3kjrO6noXzP3af6uXF6YDoAxSqvgY8jMK4QTDQzyFvBRMKIs6lJ0XnqiTBxhHcCUO44Sjqii1Or8ZLcReFrld4l3rrVuAcUza0H7jOFfVc7fDbRABpxUk09N1yV6YZOP0Nb9Idq12+nKeAjlbFdSe1aGcnWqyngQq8G54TOqa+rApjEpWD0ibEozruJ3H2WiYUreS7EX0wnpNfDPqoPiIUP3zsIxyiOC5C23UoB5yQE0CEis9iwOcEO4aRgN8n9q2vWXw9MDaDYycPVwQFQ4hjasnBOxMpPEusaxTi7ZhgjeoVqSNeiCG585grTCS1TPodcPKYMoMFuFhM02bbDOLv2gz/uc3e226dJjGV3W2JaTXZRdQGVWViLqzMOUKIe/mwYTRr4En8JXR1ADmlnLhaw1RUj3EwaZByJwn3az8J7QlzsyBgVe64Q4j2guE/kqlM7/kRra8h1vgzvFFsu4xJ5XgxAAaiVgK2vvPrcsD0wHYBS99iqL3sl07koBxz+cvjgmf9bme5j8Gqlbd13j+sqZnZ/8o6rwzgDiUInnTS7VRnuBtsqxC1ZjXfE4Sxe/T2JaeLy4JLUdnwL2flqP/esRVswUPvkNhOnACdEPnM90YTPPhsK75rEyTqKdyzJ4VIEWLOgSGJVvE36sJ2nWlQCvwEw8l56tvYLAldASs9jPnYjL8id1CZDRwBlO7w6FQt4zbG6AqhcR1U/sz0wPYDSiliTeNWWPoUBjy8XOg4byOhcAomdnqbcP5rUI44jlLB5QrQjdMvMSRyR+aOJa8Rvrnn7j9zSNT8w7slENbgFKYObcuRtCmgj7Q6SQNMr2LPABAjZjuOnP2OpoCySAf0144mL5XnjvPPE7SnQIAAbQvJT5FlrsqeqSedWSjzTooUoTAJTCE6R+F8VVT0wqgemBlDmV3Ww/LQ0abuyVkavgrd9JP1JkdtHYaO0SmPp3LzxehMHCssUHESfgTtKTVxBqUlTUFfwIQBE4IKYgp9fcvzxlnygecePzKfPQEi6G0Cp6zLmAv4Gsp8i8kPjYtlUiWsi+/CsQcnf2j7VftOTSQw14ICjCyCAd+naa1ztmGMsakHAJSqi94qO7pmnjGtkIyPRridRViuqemBUD4SzNqNq0TnClcSfkIf7YYenJaXkRrFqbi9jru2fRvckxXFHO2XBpIlGllzELowYV516QMVu28JVP++2fOkXUp+8EeIZXFJd4VT2+Y3fdI1LL0vBadUbrncmvVrtpJNl/rCjFLC3ZKzafOihMAU7z9VU9M2XXjK/Q35aNNWt0q+hm6uo6oERPTA1gNKws108/LYs7g9iHlvy2EShVxpH6DgUvWDphuvCFeMCB3YPieFkQeBKiJLjmlP6PByJ7JVqMoTEYdcsyYsqAVAlFjY++7nU5IBJCsjxt9pEWxCNzzjL+jG4DeywymXGjGcD2kxEhbZ2Yy3qqu5pQQjlzzgrHVtAk6oi66QHpghQemIZIxIhAANHiHApLdn59LfQ7WjxP+gmmtf+0JS2xSUGj5of3UlpDG2+zwMBTGZx7R2H840SZ2UTVO4qZqeVP7/av9VOM4c4Vgak3g0noA0tmVSgj7KNkFHltfB02dmUsSfjAO6RnUCzqF8LUB7V1urc3PXAVAEKlj0W607sIHRBhKJtyxLbWw4PfXopximHUjkEzKweVmLFJqqfIZsjJvucEBsExJVCrCkkuEmC9UnhPBekfiS8Mo7QsSzFg0nPSaKM1lNagEZxyIjtWOFj6yVCOV6TVTzRJCqqemBcD0wVoBARoo8pPMeOo9JtcganVlocXkcRAfgXr/mh5WcbVS57DvsgAtElRx+7NzpAtsAafccOqvXoo/3t9IFm0Ce7d7uuNhD6scUHCq3uAVtYjj/BdHll9HhtvbfmzTdJJH9vaINxDm49IHu2PXtM9E+k70I5bzHWh15Vnah6IO2B6QKU6rSQtQpfQuRFyNJDyXaGNEWFpIHbvOkGWYxrJQ4lcWe4lDTOka7nw6u8+zWijYiplkhUW/dZ2yITPzP6MeJMYZWNvddI7mPEvaZ6Cm5U+jOzwSJCg34HEZwv0Q4eenAo59uRQr1F9FFxWUTixE4NFyLdJOgWVaHN3QNTByi6k+1zFMHsEiGyWQaWN98s7OkWTrKarN4+prBQ7qBZjCvyJLocJxujuSA9Z0eGpa377jXfO98mnHsXfuXXLDyLN4FA5G3dKzcXdjnFUc0FAVLaiazJir0MF2UcknRR3aL3q+eEw7LMNZgWyMATK3zzJ5yLh64aMe89MH2AQsyTTQ+GfJbCSb/ZYm4/qFVWK26WiD/e/NGtqWJ8lB4jexETSYO8doYmkmyJ5oW872A2DTvJJBo/9yXX+PRljkw3iDeeSHRpWZHlFjQvhIIfgMIINZjgop56KnVLkl4qSy0ZgLbksmTck2KwWyQGqQAqqnogtAemD1DcWWBjq7FC5FpeNP1elKU1rhKeuvJBaxP8X+Fss+KQPz/sk2BtC1fI304iydwQk1R+bRZUz09SgaeFCZZuB86JBAkNRREg6YIRuihxW/gbzhMXRWKEhc9fZc68of1LVAY2ODq8395CY4CtpBQYdmJOQGz4ROLd3HC8oQ9XlVvTHpgNQMFF4bPGanzQgabTIEsLqbXNfUWDuPviS2koW/QwgYRoUN91kUtO0ECfF9KzdBRChOiXltCTdgmQSHFVV0RPs/VRfzjFPUpOkCJahpHe/od444hA5qM2L88DmChYH+4swR4AxkUpbAz+k7KRglNuPfBjibF321PFcE+MBQX28wA2L49btWO+e2A2AMUza+JicsBAZ8ICTKQq7zwrHz2la2oqEkAL2xgN5lCKFU2AaJJzpcMQJ9SS+MqE9CYSWErDPVnON8DJSKIpx9nOZwOhd7wlhTrJN/21oX0xy3IkhiABaT/9ecDNzElafYAeznb3cPnBfYbFStwT/oYWArrfHwGVVkU2fQ/MDqAYmNJpJIo9xA4RgGVxk267xaIzthSMPzRgGm8JA7/GpZ8RRyYL5AxZKm0pqKGOPtsCDI75T47xB/lcdf6YP84n57J/dkHmGuobIJ5JoYibt2irnWibkIwdcR9JZPg4oCMjtpRsgDjfz1wskdC4qOefmx/uQhsPmIqYQ3Cono++EDgt3aWooD9SvkEckNWv5ieJqC9bK3Vw2kfVv1UPBPbA7ACKBiDqSDGcED9IxO5VUwN46fsKUSJboGCuAR2OlOIxE1u7QZ3cQCeFkwefRCIKxDFPfPeA5Y9FAKj+ACdfljo4BmVBzB/39/DABve3dJ1cPp4RJwjRTgLNkWUFRXOvrvSk/tVvS/wpB90kE9/bIofedGMa6rdfeG2/mIh+wa5l7RzXIouJpSgUxJA3Y1VdYIaZ2jAxv7t8f4yrsDq/6Xtg9t6a7AxpgLJbByDhm9eW7iUYnBjkEonI0GJpz3sg4rmeLPjUBF6ASEvAUdfK74EEcPLAwxunDNf5Oijvga0pjsZ/p5z/7uvimAGblPzm7iFRpq1r4A1qPKtcb4i1pAu51SABYjqPLgrrahODEBPlJJ1IoU5MqAFgG6xl9kcEJvhVkqWYCBOhZiAWkC7TOkQ7s4mrwCnTK3P0VXOSTRqYB96xGd36jR6NVUxOzAVKSUEsW5ElB1H7FVNsNWhV7pIwSBXgjRhRRnRKIHXkEkGESZJcwqEAFIk+AQoPMJ4D8lwSvz3oZMtwnj9/niYAar4Mn4APf9QPUU/2N8ftGu1O7fnh1eahH1Ne9wSYameemUbR1LFhBHdCtE3EINxA1ADXfv11t6TEpEQWMN3VsItX8ThidU1B+Wgnu620swzxnImecyhYl6msKjvVHjBA0sJDUtqu5mVbdmzEzteAtwgkXWXAJkKJqSkERqhriLVPwg58bfE3jQ84yHbTOcfcnAWtCkBZWm7F50aUAa3LUE2hVOoyyoy0E+RBIwtE1AWIcA5uh09fDm7IuJ0c8Hgg4nNJynsPQP7T1+G5LI5nqSnlb+uOO1z3oQft2rbuSfss/blEvLEvi7Zu22bAy84fsboZGGQQRjfXuOwy1TGEA8s2ZNbfAd3Dtgp0zzbH705gkgXfLDjFmjLZqJP8oepzrXtAWb9bUq8Qj57FsUsaMDgmFh8/d/Rp78x/0uYeALGzy2KMyM4ChnRDzH6fUMMW1ynmOlwVgOLhiBPFQxGbOpTIm8YKnCgOOPwMwAE4QR5M+A1HkwcjygAwXENZD0R8568tQPDnW3o51AFRH+c55397MY+6ADXcckiVzirE7waOrwJSxLYuwKJjI7foVb8p0xWWBTuotna/8MuDvUbUIyef7fRZCwL/YTB5ov4pkSm5Zb+ES0tH+iUbyKF1I+bSj7Rtim0KvX1VLtMDegfEhCdEtUWrlWnMyHfpx5P/7M07P3+NA5NJiSXB0MIa1a8TN7W/SRF1jRditFneQ6J6rODdrw5AyXvf0i9pQoeQgZEmOtzTgiZ9m4FOB/c6C1CAABOABHDywMU5AIayHlD4zfURICCOKV7a45aUsCDmeu26dT/yYddWRpoYVpV7qTxcGUT9y8BNL2VRE7Wt3TvuWYdrk/ElfoGJYhzp7gZO3Nvua7UU/xPrhTY+dan7QEaeTqYXqtDMMHCDsW3+YSFbqI6+kH9jOlDet5Wwg0OuwBJzBvR1FjGgB7zFLQg4qr6wTMaKX44xqtlsce8AMpMDiRGWlSagfFVkRj0Ady4jWhLOth+S43bgPAxuDfMKHZaCAnT0R9BJQn3XZFKT4JdLshESZBDOhwWrBM0eoBSLuykOwRvtBbVNk6K+9TAz7uuKi9JUtwkJUHwgRd4eTUQPUtTH9yx4AQz8AS5WThM/EnfSFOfTfETRFV6SxbMU9awGHZWpaTJHyn0XKWzvAqFoJa6Rppxr4Z74tDr16cQWf3CnxLu33nb1OHIflRKxIUVyfNwJrtUxaLVHHAdOVkh1Y12NrZhtImjikxwUuyh7qTJJsHTpVjjzD+3WakikCBI0kJfPkooi0qInENBiM0YW4hrmDjLzKKwnU+XIr9pwSORTmOh+Xeyb9B5CCD+95vXXueQXf7kKrxLSYTMoQ4z/jnSIe771TVMhzOAWA1UaWAmwiNMfaXMM/bPpoaWLrslTwRKpaH6GUKSJHbYchtRWUIZY1B/8+VeNgyo4XXxoX1mhX3SRa1z5eduWh1MBJH6qfHuAExwOwMFxgADxyGRjPYod10tJxDl4rsqDDOX8ddwYAMtyOtwjFuh0DWjSpvVBTj+to+gu7q9rqb/7X77iDv6t/8010D3pOKIix02RbvWNWDF6dZG44IOv/n/KMPy63ZTED/WLL9Hzf86eP21J+i9uQR35tzVllmC+fNhfFbxC+gMWGyV3XfHabZNBfTYx6ZmI1LD4j/+gVFXPFd6zqG64ry3/62+ZH546v6hIdWxWPSDmAHOeRYFT635Fz9B4XDNikdu2XRKDcgco5Rn6qxBK/lAUUnCSMtjFtG65ybVuvy3dHQiopKNswJZN91LF6lYaK0AB4ABI3pN45X/7YxznmH3qux3PXMPxflmOAypckznOeV/GPgVQ+TL+t/+kXE0TrqXAc/vjxqEXYFyWQCoLfJQfyk2pLETChM4HCov7zDMm5llomqVFE43MMFVgY0S75Xi9+C/fSd2ExBWqoem5/L+UVZ0dxZ0iLnx0iJSZ4gwB0YkIwFNoG8wIOs8LoLQIhBDcllpijtK22zPp/UNuVpVZ1gMYD8PFkCpMeopl51b9B3P4p2/aeES/il5ZXMXYZowvMbaKIQXUIMKJEGoFoAohploifVAifU4dswINZr9D5/VMTPh5okhsK1OV9gFavr0emACrsYQpxbkXmP+elaXvtLvHwOoQ071H9OOSYoG3fyylusBnKDj5C/RJuSZO2TJhwMVoJWScHTuqBJwLjeekZ+k88rBiRj2wtiv4Sh58PV4Lx6v0bRYsEJejeSDNXTwvWor/1n1Xi2sABcyegFryRVi9tSUN52QOtIGg0hEg4SKygLGiFMRYjHuuhAmP6BQ04fPtmcnvtD2JFN0Q7fPg6dvsubKQ2yeHfMISLqTB3HSFVrzWA/db3jrLPqxDBviS6bvadChD+MmRDotszSGgNrRugW2spKJkpHELUniGEP0ikG3dcbvC7rwYckVVZqU9QJ9bJFP5RvZSza+0yqldzyIuPa6FJQqodDYABXor7G1TTrRldgzqZGiRk21Xu1BtPYif6N6EAIBi0ocQyvS770696UPKT1IGPY/n7LgegAJAfXtpf1B7EXvkp1c78cQ0rXiP67JopIoA0fmpuCjVjUPypFwQ+i3TQwyLbBrYAThqN8RFET4mlNiMwEjXHKoRNfQsFc22B9raCDLDaHk8zBuxYNpiGdCwmQCUJd9kt0cK8lKDUW4iiSZpLEWz1+N4rsmLUKM4qB/+4AfuFVKui17Qturf//3f9xXlAX1Rsoh0TQCL/jwgUQHtBZg8jWqvL2Ofusa28+XH1+eiBMaYZ5iJhgC3LVGpVH9mbyCdEYaynffLcV/ZKvz3SAsJQfhILxZKACvRRtvPPx96SVVuwh7AZYUggnPHPfnn0QJlulH/e8Tn9AFK24upaCJvdk3WUIoJlHbFZ83vJzvJsxzIuMl+8803uze0/Q4dLXOBP/mTP7Fdu9A2lCunTlZH+7Zm2+l3Cjnnxb6gugXMiUwL6qeenroY6CIm9tKN15txHTuiKyG7Hn3gSjkYcXh1mVawGwNABxFgKxGzdbdS2msFrWh2PUD/Ejkk0uZIaYJ7FzcfkQQXPzw+xTVrW9psmLKLb+m6/QUaM9GBim4RQLrrFMmz8jI07IcfCaleW46Nyy53dW3VM+nZwocrgQAlJj9/oyb8X/z5n7uXtGPF5xVXXunOUDqqv/zLv3R/8Ad/YNf+3d/9nbtD7ikf1o7ZieLS6Ohf//VfN7OFv/7rv3YPKVPuwTK0/NVf/bI7WiBx4003uQeUjeRVcWQfP+AA93/87u8OfRLaSNsgD04c44/7cI7jIYRBW+2ss8xHqoPvIiAoOxYT7QI3G4bdxyIK0M5QUBlWEcdliEdAvvaTj1tI51FF/TlWdhIsxNIz1mWAa4Pen6w+p9MDGi8GUPjWBe602o0BDcbe0cekmZIUmhlxvtvSeJHO03ZvpUMka5EZ6+pdmj0cix1/ZUh2eraLF3DN9ABKjexotW/K3qK1++nwRmvi1pU+qnbqqf0wKn6yw314zsQD1TAE/63/+B/dH/7n/+x+5ctfNgBCxHtbxpjQdddd555Qcob/6w//0IDvT//0T922bdvs3Ne+9jWzWfqjP/oj96B0Zn/2Z19x/7c4ryVxgk+LTf6d3/kddzh5/oYQbeWP6AmAEO3LttHrpYZcPnhYoIaZBancm+KYjNtQ/ayIK6WIccRqOCWC28NPr/m9fwubDLxPPUdbwQox2IsIf6z+qmiKPaCF3Jx+ZZJThnAAXrjqS5qHpzknOzzjnKhA9ckwUNvU8lrQOMRvFHOYtmJ/sYC25SngZM5gO/WUDSA8C0iqEkLTAyg1zlwbZMwnc++Qe1sZUm/XpHR1+PFkOBEMHb27CZ8etLKTP/QmTzzxhNslw8/9mRCaJBdeeKHpqLj+lltucaeffrq75pprrLr33nvXvagtfugEcVoeyOxA7h/Ah3bySftomwcpf8z/zl06/KfqIJIlkTfx+cOI0/s/Db8o4Az1ihOM9gnXG42rFbsm0ry3H34wteFSP4wjs43TIpbI8r4uI9KKixrXYxOcl/RRinvSvKuddbYtNkSgWLZo6JzkGIkGcg7W+yUhisX4YqddYNVShNz2s8+kzuRafNg9tI2xorHgxzZRcWXAG0LTAyh0T489YnYOwSwfXIcmYk3+OprZNtFpNEDlQYnv/MGhMOk9RxXycL7MPlLmsqvnKfudYwdKHv4Y4CX6pV/6JUkvMmgUYYg5irJgyXfa5i3I+U27IdqdLTuqTjvHM1ssJoVkYWteL32lZE6/x58gX73pARQD2QardFEWMypQt0SiVtx5ECcQKyqaYg8ADIGcjL8rmx3MwbHW3XrfnhhPTtFt6/qD2ycqgjEoAJZCuJDJybtf2TWaS3BpBHMkxlho2O6pARSe+B1xKmXMCgjNUFMiAVDZo7af6HAeXu/EJ4A1bpI3pNDzSnLfkXyeKZ3OX/zFX7iPCnio54YbbnA7d+60InBPcD/nn3++iYTf+c63pRuUYjCQvK6M4r7NnmsCoDygjmt7/nZwOolC5SZEOyDzjdq4ErJchfKnE2qupJqBa21wa4CiW2rrL2hx0iRqsTspo70a4aAzA3/gBtWBcj2gviQcSimi/5XUw95DyLvIlYGTjrbISR0L8RNPMru3jnZrWxIBLV+iRETCEVn4HY1BdoFD3/l0AArORqt8GU93OjAiggCGjupQQIKJDTGxARI/wTnuRTy4kWGE6PZ3f/u37i0ZBp4uJbmnk08+2f3mb/6mu/eee9yHpJC//PLL3cu4gIhQlH/1q191v/d7v2eczhVXXG5lOBcCKnB2EO3iDw7KE+DkuSh/LPxT4qLcAepnSYRCWb4CLgrzhfpFSuIg2T90YAS3U4OVlZEV2OKQByryEQXwKXTioioxL7i3gwqa+UcJExBNLm3CaGd1xNwae2PcVoRzABF/BlbaCPGKdOOY1CbTbeUAblTde2fTqFJjztnkfPud1P1iTNnsaeJWd+SfQ3Q+jB49t0F9Hhz4znH/549n6/HfL77kEtM18RtQ++M//mM79YhM/tml+zWBUVOGgl/5ylccoAXtpxX893//9203L1V0q6OFgZ/5zGfs/Kh/sIPyuiffZtpJG/kEnDjP56h2D70HxpuKh1WTUhnHYFU6tOiwE5bSXA6aBNMby8IPq2TMcQYdsYAIDRvq1qQVKLWJwpAwA+pjblWdHtcDGvcWSE5gEDpaeGeI3SsCqHy7tHADSnuFwnyBsN9TAShrBJr+khOILUsCaFmH7jjKOCkmOsQnk9tP/BQ8JMf2Jv2wx/NcWPb8tm3b3PXXX+/+z//0nwwoMDO49NJLs0XkWeN1M8M5tGUX6AcmEbTPA5BvO2BEO/j0x/LXBv3W9cTVqX/qEtd65mnXlTW4J1ZJ9AAddGuYZPT6zZ9Xo8zau/6ZKyT3n6M+lhg9IyJDdOcnu207OvgWtFfvt6Lp9wCKbgsWxwaOFoIQ6rzwnIx433dEv50nmgpAaSameqSeuBP8gBqk6Ff2iN2vKQ9b44yzzL6G2EVMbi8uAVSIfBDfy9I+kpF/+7d/27gawHQibmbITT0Q+bZSjGMeuPhc0f1UF8pkRL2l73+3D0TsgjQ+LS4vEZf23HNmtd/dkwYEhGsyJbsMPmPZdhnLr/6cOmlBwpk5Df1yd6kM0b4tXW1fR35t8AerzxX1AFEr4k8oPZs4WzjVEGqTr1Lv0m1IgFIPsNLH2h5v85BlSICDjqX93/+bWUsDVPWjtaOgVYBgcpDnQgCBlUx2OJ0BTqNMWwvKstPXFovcEhdTU/0YQzbF1Vg7e0DbHQYOvfJCNFCzoPbeIW0iEEeHeEzeHqrz+msWvXDhiz+n2FGXukiiK/GujCuBtZbSsh/OYlTdw+869AyrMoa4mEGQ06+JC05ml3TohbkTFtfaZwnJnat+rqAHBEzxoVttTlrWoICqcO5vP/6oMvkcodIjxmJAXdMsMj0OCoW3ojhOkhjBHkhARViOPbKlaCm8bCTjTYsqKaACWBDx0OvMC9EeAttFcsokhXlb7DHgx3oFaAFQvrVDQZXdD4F6bdt2JSQ9aKQRJVmaGxdf4ha/8fVU8ShAIoQJyukEeyIp/2c9rGwnUeIc28iE0cH5eFLnZeOSxd3hVlHRlHtA8wUldfQx2Rr1fFPH3QFlNkbW9fNko4Qt1JzQdACKh5FOpKYtRBIA2G7eBA9oYpHEveZtt7hEOzyRJl4b2x0ZcybSt7D9z2T3Trp85xovZsHFEEnTK6o95+XL8UnAuiwBfpTjz+pWRM22Uu5wD357kRLuraVrOU79RFv4mXz/9heooktrKcAcIcEaqo87WBt7NxoKHAwk6YZaO45S1uRPWwx2iyOebaD/rvvWZW+Ewy1b9IAhis2mfhMChYB0arAvPeVP6Ys+2GPhXni/TTg57LMCxYeixrCDm2zbjjxcdLo6tpIe0DggQWx80IHicrWQoqMMoA42TE8/7Wo7ZYIzs7EU0JBMkakBFOx6sn2HxXPqKGb3pIOXyZ8AGDKlX8Q59onHzR6ofezxbl8Z9b0nTgXbI4Ajr5vKgo3Vo8GfBR8Ax/9xLaIKcWlaipvdeeH5tKyeY4uAoHGZ9Ds9xTnX+PoAw5ra5zRRP6aIDZFELdTqgFIdsOu9WH7X9J1zo6gjA9fOvT8zkan7+S+m1tWqp4jMV0pWuCT8JBQLfdyWcWz7UYnEsi0x47miCyc9xnMqYigB9+GWzAmcaASYEnBuUlK/JMeK85uF2cOkbdpg1xH9FJcp1AKhJiq4sbTuukML5XFzE0N+agAF4jJJ6lJ0m5+OBnXwINaENGtUDZL2U3LvYFdIQGXiAwZ9zz/nYsWXirXlvr+4tKZ0Mp47opz/4xgAAvgAVhyH+O6V7B6g7IS4tQ+0+0S+tw7cmcrF2xU3+ZJLXAJHwu/MH/XDSTWxlH3wfgMn1n89uS04TFl+c9cQcFKxlNROnrslzrF2jKyrxV0Uku5dk20J7i+d239kQe0sZpSiZVqaH3GaU1v56Fdl6Gjec7d852QsihL13XeWv1P1tb3jXj8XtrngoAGtrIlxOK5oRj0g15QEzlriGjZnQaT3SIKTuhZArp0Hmh5A6Wmwg4mlE6kdLxBRJL9gq3J1jPmfXfJpZTndLRHvVtckFRMcApyOOpjVu/v8T1KOSr57HU3GWKDiwQkgoSyU3UXjOMCCzshzQgZuKkuWl0jAVyOIm3bDnF7mPtots8wTPcCyCnv/UJe5v4izW3z1NTyUDJz0jynIqReQ4riZIOgz6XFU+jqa1AfsxuE1ngwDKNUQKZgfmZYBNItWynViy1v33ecaB39CDVn5K+3K0bT96MMK83KD7vOU68o/UR3dByfsnsiijLNvWyJm8Hum/bq2Lh0jHJRFVxjdK9XZSXsAhkF6TWLa43Zi7y+gLnMGlkfIhgQo46II2SBOh7CepFQOpfaP73M1+ek0ZPGcbD/K1RRJ8v1bb3ZOogyT3MI+CPSW3rjZxQrxUTt/l4s1URNtqXc1KQEfAMSTByM+IQMlfcIB8b39ttI76R77aPepxbXiBuoC1oaiKpDEACWuBzx/jVWkfyKJmXXsvrhO6CS1FRhlv9O7pTooQCqYKCtA7krXM4pMlNYuJ1EElt74nhIiSERU3B8SiVqS05XoogTUbUV9WLrlJuOaMCGwjDm+QepfBnxDO63JyUqVdcN10r2VC8aP8ram94adDv1X0ex6AC8Ns/B/THORGPYhpIUbjtlJlcDGy1rT1LO6MOQQUcyVQRyBj6c97kFtFZZox+5dpN0dYpPH23a4WJbGmC6g6AMIpFVykczyO8QhkiKdLDD49CUYLmrAwz35PwDLuJ4eVwEXBSUCl0hRDJoSjWKARtQQR0bAPOR2b4dFfYCTBz6+18VpRVqRyEmXqE0pz4SIl042/vUKcn/MbhDwj3GRuKSMskXRfSL5TSGOEvaC7WHuyXZy1FG6K+XZUwcE3C1TRIOSYPaL//wdpShSckeJkMRuQnyzp9I9zV1m18Vuy6/8qoXGIUPH4jf/MdVHZaoa9dWn06qfo8QLOJtWNNse0BjBiNdSnMMFh5DeObpZwqHEgUHlQqqdtMzUAYpV0Vh3gQHpibq9eNohDcS2pia3l0SxgkjjlBx4gAXPqh14kPRS77hYndzRDpu0U5YlGO7KSR8UaZLWFMOGHTEmrxfx+AQk+PM7gBzr7H7WLX37my4SIAI+tkMoV5CGJg5JPNkJBMwo6wGOOsy0gCkLSOEIiThG/Xq4rChHWbgnD1Qhzw6o1OUcDGc0dvJyTz2vI62UNhMspZBEMNoTH7ldA0smCyozknocm+0ESqS23GkSo82eiXMQzy9OJ5Fb0MKXfsG42+iAj8udZdEtfvtbBmRpwYB/6WeJ/wufvkzt0/Y3vlsVzb4HpHZpPyl1gPRKLDhBxBAnTRk6LI2BtaTpAxRPo8mBmET2EXOBkBgSRFrJu4qZbcGsdD2DuCudRe3IT7qadggj/U5Y7TUx2emzKai6Y8VvYqeJ3aUtEjGjLYrYh55Ek8IDC7oqfscS7Zau/p7rikuIeV861ti2XRPnM66mwHT1zMrOtZCvx8CKSUvbtMo4dGK6JwaaVEVpD1SlwIl7yDG48bkvCpwPD5q8LAL8YXcGN8PgMz+4JRmMKmW85aBTvUVkgcd0TevBB60vmhKlMZWQTJsW13MDgDUFpKtfdrlrfOZyZyYB6lMesnX//W5JQeqCc60xHqSvanzqEoHdTrVbnGyvb4vaVx2bYg9ojDi9azj+UD2UAVljIY00Ilu9taTZABRPJA4E/y/L107kgFD0FqjFkn0tE64GMtwM4ozDoFErcLz1CAGGOBTZHSGGAFQdiTYolyMp2C0xgMCjLjETToQEDOicjBsC3O6+U7nlrnOJroewfq9duMtt0e5jLDERvZPnnDy4ZQHKwFd1xgcfZIDQfV6KbcBK5MEphTU7FPQP6coBgTo550Inr4GIdAS6N6nPvZMucXlwg0kUTwrwXUaAmDYccC9qSgHevPaHaaC5zALCrg9g1LjgQle/4nMmMsKZpoCSXk/iUOPcAt8pTqOkdyfRAm44FTgteysz/WEckBZndudCrf0tMJ0s/GtHS8w74MCZtm9c5bMDKA1e4zQ04Yi4GLzaasJ1pfTFVD/RLoQpmnurLWIfwdbrRx3jkgMOMK7FSfcSy1bHpiKTVYr0SGJfW8kTTPzCwlqAAueF4n6P/NkicQvGPKltW2QIukVcQtKTt41LAhQBAP0Bbp6T8scMNOHQyHz85htmrctLhcqCk5RcMsCUePn5Lyjzr8S23rOOe3F2L7WfWFqw710shtlpUx8wEElCYWAASKltmAh0tNtHAoalq7+r4IKPandOYWFpN88qMEe0rp9/oWtcLgdjKbJj9bENcNrEnxTiTeW3a96izQtxjkGk61CMN664wjgyq4e6KlqdHuD9aqx2nnkqDSYZetdYulyJeBZpZA3FvNkBFINQk4MkAMbVSBQJIiaTJhiRH5MdRxlXw3UGEqoTbgrn11hb6vXDj3CJtt07mizE7o51rQEFHIG4NuyxugIsLNu7T0kOv0W7U+isEPdon8CrfvElZlvU1UsAnDwBTP63ByY++8dUMJEYlEjf08J4EQ6OwVCG6B8Ngi2/8IuS+Q8d5HjG1cXzwoJLEUoeQgVStysIHoh4beFV2JlT+wCVJlmJFbqFMDcGTCoNAKGzqiuoH8apBkwCFDjgZaR78R6bP/h+6g8Y+qzSgdR37XJwZDNzWl7W0OrHsh5gzugd885b7M6VIMY2cecthlOJ66ZZtDbNyorqYpI0Lr1MClVF24TbCCEBTvuRh1zrxJNc7RT55amDIUADXZIBBhyMAKorcWZfdeKeu+5wXYWRbSmIu63PmpjOLK51T03iJfQr72mnix08vTQ4M9uhk/jSFtdhuicd96YFiHmePCgtu7/KQrRhy5WfE3Mhi2uBXxlil2RB1wJSQr4yl6ZlaYPaGSsbjhnkiUsCeBD3iB+FcaX5VRHt9HUlYBC36YEJTgYHbww/a7L9QqyLyOSBiFkAPnBbLatz915dVUCLETUb5wmc4A4rWpseqGmM9IDGAsgFtCLSokesNlv0NIcZL2tBMwcoHqx21FGuLj2PhQvRRB5LAJG28s3sXgCgoOHWQQBLFjiop4Y1ssScLdj/nHmmW1K6qNa9d1uGGQClLW4q6ulYuD5LxDFa+td/dvEjD7uWJlCEeCRRB/cTJw7O4lTpmiXVw5X566mL48atYOYgriPU74mytjoJPDvPKNYTlU1CAiN88yzNlwcWPsWFsotKm+mHLOjAdSXbd7jaRRfLqPb4NKopgOz7x3/22oNSnWiZWJU79VkZqmtXEgNYy45c5sI1LMu7MVI/2HeJ4RMtIGv4DMtuzeaS3Ioi2bB1xQWHEO8cvW73rbdTm7WQi2ZQZvYARaM12RvSbbS1jd3evTvoMZjobYktLdk71SUmDogc2VrEfSTYDmkibDnscNc69jgzXMSeB91TEZmIx0t4UdEIZAMEGdj0CtvEZmCGEvcB4AIJWxPzb5PCWtMg8KrBYl04RQEq9Q2QgMnAyZ8QCJGyvL7rU5aNBVcTm4A5QPLF/af5aN13j+vKQXhZfb7AsE/dr3nzDXpOWZuTX824xBQsEdWZBNyfVd0+56SMmXkIxLvSw8T0kRZAdjWJE4+tmsXYYuNAXHxEuJikxDgZ1lczPm6LrXSM+JyGEhw3iQ8m4O1DbzG23Kr1bCTPaiJDdl7+mnEcY1umAmTCbd1zjziwY8xsv7/CD7tYgx5Ror7rIgv90rzmB6556y2p0eGwa+AueiCmb32y70WTvl9ihV8AD0QuUfa+K6y1+HI4AU242nkXuAUpwMvEJgf4OnJ3aSpkcih32G+E+rVtKbwU+WC9E2MLzkoctoU4JigcGxHYC4k7IbsNphTY4cktIeVGxwD/qnaJ2oJtU8EyVtwM5oW4c4vWWlxiVY6uHkBhVyEr8RbilHQZQTYZ0je1pNRtHq2IkgrYNsq2p99bDApehjiF+ItX6XCkiI83pDGU+oXSLzbgbFUXSOga42N4MdTBp8iCwOm7iXe9cykXQfleGX3j+zJRirK9OtK76d9e2+x3736eIzGOQs/rz9mnvz7THn8+r5C3dqZXL/9X1xJriszNBL1zrPyhpPuzybCk2E9d7KQ2M+ndmLcD3Cr9IJ1eX+co4MKtxGfmjXbIVWurRCodIyKGjTPe4VoS4wBncqSC0IVXXhxl/Cxn8XirBlBMTlYYEj2ic0FpG0Ls6BEcrXbC8S464sh0kodcyIDQDh9+ge2nnjCFcR8wdA5HypoGEs63NnR4cQxCQIKVErEDMUT377I7BpDBaWl1NDCiDsqKLM2PznVl7kAIW0SirjiHZS+X8hJD2cq3IG347UDUwTnuRf1857g+l4EX5wAMtQfFeMTvHtFm27ljt7Knb/PnEFewr6prF83ASfUGE8p2OQN32CHsPWvwtZupIArl118TaL1mujrEqSUs8KV7xXoefR8mG04GxH7DZy26hx11xlUwMcZk8iP3jZQrDL5wegVXD6Bos0AA46/WiUpHc5tEL73YsaSJgVHg0l13uQWx0ZE4sVCyLXRtmcN+t2XM6AHKrJo/r1C5ZyiBoAZTn/sQANiWLJOx953VxoCCF6tjRnynTI/78iCD/Va65f+IXGm+JbDQoPWksuz4NeQyYoPVrhfQaFcRXYe2ElVS9VKnDQh9cjt/L354gPJ1+k8NJOJJN7U50JKdkjfa5DTmGIn620K4lBmcuhdJQ3GotgSM/l7V59geQHQ3/Y10mwQYjI/cpnEvoNLYNwNa9Fp+7IytbYoFNP9M1xcy7/xtGfOKHLtWiqjVBShNEAsXctrpMhp8yuI8+X4Y9QlX0PrRra4ukwN2vsqsAtG+MtQU59IXoTQwaiecZBlObetbLyArvhkw+YnMyxE3tew8DeU4ZfiEet8tAamOxXCHcGE5AvwsdjvWuZnrVdPeZ/J1cyxbP79HEfeVqw7xocwbvVfW9CNyo+mD6ag6MucAuZZiTnWISAGYbmTiHUsUs3cC1wDg0/dMZD79eyjbB9Qj+yPeR+epJ118nyI5yA0pkWmHmXWwsePHWtm6JyovrnySd7mqbVz+YKsLUNxbkzQW64t9E3YWZs28vE2Fv9CFYGgIN1TKpoaVSvfsk35HsgA3MOGg7/z8Z/bcsO/+mux5DWYTwxjoWeI44heD3l/nP7Plssey37Nlir6rLLomVuo+QLFi7r+f+SYWXTLqGB7wpnsKMQsZVdGIc7Q30QYI4Nlf2dU/JNEw59YR12ZPEboFcwnE2Y4cmc29CmfuQF1LIi6zdqE2VvYTYOh5jfvRu4oksndkO2e7pLhWaUfLzDcQ+/WHmG33GDfpeffiqtrPSLUh85lIO7dk1K6fe75FzyhazLLPN63vtCFY/8RNmTfaqSy7uE2rvdSz+gDFRML/TQDVeuJxC7wWskKjn2n9+McK/3uaXuy54X0Ae+pFp95V+Pr1QSK8prCSDFYZRjopGLPUt3D3q3IZ8MlWNOo7oqImqSdzKEYkBqRLEKs+sZ4sbXXodTwPf+Mma6Y+dDONq76UukRxLRNZvoJ7vvOtUgCVSHRe+Pn/wQAKk4Ul7dyWipm+n8bjSSfZxoq1gcWFMDw8i6JnmCkHYAcwibO0PxxwMQSWx0JXuj92nPuuQ5lnzH/FZo44aUuvvmKxt9j8IT5WLF3orKn9nLjhQNC2tmC0KxOhmc2VgAdefYCiUXBRR0ouV3gRbJBCM4MQmnfp2h84C4urGFBB1AOCLnqdHnXl8T8rAkhNt9aT/vx9EBnMipd799rkz03tU/cYoB5uDBwfdkDtx9+u9ZD8JwPJRFcpgXFPaut9Bm9NkxVHixUieF+M0jOUdq3AqwAFsJTQcDuIaz42fMgjmD5IIG6BD+Hmchf1d0x5h7SPT4FXDSATIHbeUVbtnoLcQlYrTtlYsBLQsQvYkXcFRrAkWK1t367FJMPt59qxop/ql3aJd8oYRT1i/rQruvHKLl4bgFKbEbFIcdMSu2uhIPTSx5LKdPRSlxS/aOGznxXQBTTfwECDSv/ZHUzcC7jX2MYUF7DBzYDLpu4RAAA2UklEQVSVeDBAUoSzgtrKXJKrGair6MAw4ONx6d9h5zN1McGWvv9vqZiaOT7yqyJHYGNF5mMU66HUgdOkXZm2GcCXWeXzN9PuaFmAs4VDRqKma8zXx2/fb/r04OU/caMiqqvbutWkAsR4RLn2/felO6CYZwx7Hj03HGPztttsl3nhi1e5mna54Xz79yxqT9ljug8LDglCSpFMUvqLh++DUhWsvHA53n/l99tbgzoNHQQZc8volGCvm7ffKjeO5/fWNeobg9+DE98YZNinzIp0P0tH7gclL9a/XLgrdvpSqJxVC/r1mvmBRBSbVb4N/bODXxDtiHYQagJCDRYpoqdTNJufEsBrk5z3k2mbcWNM0JJkuiDVE4krg4PtA0hAPYypdBc1oPCwIjwD3BcGsUrssfArX3Yf+t9/1y388q86nN77Svii68Xd49GwKNG2ed21ZqZioF1UtuwxjbnWM1rUFcXDdKOh1+sdWKgVGaRm30/o5dMqt3YAxQsVN1PTjp7tzIUObABAcn9Tqa2MGxnXE0wA/nz96vgy7P+46vPniVPlPJekk9hb9Vd0AIotaFw6aNOMCdElUvTPoFupbThotx95OFiPZByHuAc4YaIxYEVd+qk8kPu+YFwQbZPPEmRch8qbwa3GVaiC3N/COLcS+jN/XeGnjW1NcDlKL1x2mdvyG7/p6pdf6RLtspqZTNGz6d7ozQASklWY/i/oxRW0gOsYa4pAi6Hz0nf+ycLrFJQcesiCPiq6rQHrpO0YWnv4ifJLVXjd40vqwfFrYoDj2Bq8couNxoAw0UpVO/6EdLdhyN0YeLDYGFXa5NFvVumZkdrWAYR6g53tZLKvENiOSWM7KbSJ3ZFVozGwoffQFuibclkOomGIpmLanq+fdobpEoETdtHMnCPwuRCHlr0LJgKguqC+YRKHTgxEZ/U3uiET5LkOLkz6oWDivkXAEVzBkILapCDOfSJTjxbZjsT9EzAQR1zvYtW/Uu0msunS98TtvPuuWf8jZeTB2p6V8cxz8txqt+lYMRJWnwJMphPDRenee0zPW2bzgvvFH/+YTCG2rbkV/NoCVG9A1E45ReFYlE1EZgQDL63/9jJf9GJwvWjddadevFI8Y6U7bHCxQmf1QXBSvNgZESGL3bvSrfQACjaZSQgAmy6CIHG9czNqwvJqQ55VHF+bCBBPPTlcX7K8VvuFjdWCkjyYCxIW7iWJScgC0ueVeIf2J7DQe/IgP7ZaAVF3UZb/+yqki7gva8+w8VBUGWOERWNWRFsUNbWm2O4EOWxp1xEJwHRCBffFnKF58402bhrivEjvxZhFRCNkkWXbsZ1icUn0u3cYf1dBCaX/JGij7SrKeHeo/mvUsyLeyWuDoJFD59Wo66d4bm0BqvcgDCxcMVhZQpWs6A1QsONKYIrFAsNI308M9ODB7i+a5BMwgHvyyl+9aMLvehEP3UhHIXlpe98Oa5L7lL6mDwGDV2qCtFhpcWkBPENJO2W8s2jr4XaFpk/olSPLheBpUQXe7cg4MAwvAbiigkXHTAc1Q4Dy9xRQ4UVQv1A2V4ce5pZ+8P00iFzBggV4N2+5yWLyL1x6Weo4L27IbMQwBMZchXGNSsEDbM+ExaQGf88JPmNtemBMagryMkA/wb3GXTIXAAVKIwphE9L+5j+GbVOzosj2pKkgdZYqSvJyIdrb3OytzPQGg4FOZyZMu/M12fHJ8rGZ2KJNtLtjYh0AynmtbrTbYSYx7fvn3za7nNixwDUOIRIutO6+M40xrvYFkeoj0F2DGOqIqnqOSPcy/UrJbXLbws+8C4AF8ayUnhAOSnXY9j91lSRbvEKfvWTdA8XpK7m60H+4H2FmQf8PKLD1HHBKrWt/6Jw+GVfssKYK/cD3NHDzgAPq/+QYOefv3Dly3ATUNJUiw0fuVKovUQn6DCULJDFCKBlHItHQ4mtL9h4gBi0HGbR+4ErcshUmFBxYpbRitR55xHWlpxll44Psj20Lu2FQJAtlVkqLrKCBCDhi99V64jGz17FCBf8wCGH/UVibjZhve0HZkYfYcgcYhzwr+goyu+AvZgN/ZGV7TxIiuKFIoCZ6+LrVr2YRbR2+t+yob5hikKFnWftI6YUOivoCyUI+w0Uw+fXXxcCwxPX920zaz/0KSnwRCKPjWfj5X7CFGXOFAVJ7ACk4KaQLs62aMZCikmhcdkXquznQoNU/MD8ApWe3WE4XXhSe0bT3Ai0gmmTzPgjl+1Grgq3MHNdAjonZE0iw2nu+9U235y++6vZ84x9SQ8SCawFLQKz1gGJ+w2qLsE6O8QUUW0/sIIj6SNvUIhNL0WBT+9DH7fn619wHf/VfFSH0hjQuj1095p/CCZZO2oErAV44UHRP5BcsvHbgKpv4tTOU0VlW4Hpj/QLGt8CxwQGFku6J7mg5qU6AZvnB0b9MtBFnLCKyhO08lajBXFbYeQ3tg9GtCT+rtpKpuS5AIBTOsHBCpvgGgGdM9FtDBqPJUXq3fuGZ8T3HVV9iNI2ragrniRmlSV07Wexl6AqoQYWhZ+vee4dPZCaj/owkknSYFIGDEc6i84x8qDSZWw8/nMZWz3Jr1AOoqA3k27PonDrGwCPVUlfPBBfTuFD6GtxQaK8sh5tXf1dGp7vTnb1MWzpSdLbQNag+kmpa8lNspzJlRvY0Ey1LsrHpP3vmOM9FnwUbyfauRWRtXHBBX6/mq0x3wMSxlhzYBkTZZwPgSoqJvg30kd1fY8ebHfTPjfiC/gzvgqJ+GnHZdE6pv9jhQxkO8AeP++ncfW8t4ugIAU1obgsHtPfMmn6bDx1UpguQy3GiZFs+jcaYOTnkKzoeYkYlx6YhLQbQn0HvJ45W2xig8L+H1OkPW5pxtnrVHttdUZJLwrXE27bZGo1pBBwc1sCW/FL1EsKFFZHwKsa5aeLEO452tXPOs3ay/d3UDmRbdaIwxeWHDL4AXUuhdamP73AjpBwfajvjG+k/2W7PK7o12fvcoy8nsMbaeUlb3qYf88fHfFo8LyU4jSS25vuPyW0cQBnzCXGQtj2efRf0n3a8TFwUiAYRimLd39rEJ5StMz0y/F+AzS4pxbcNr6/sGbXVxOYr5B0hsZdQ0HBNq0L0ExseZ5/rtnzh51LF+KrcOOwmcwdQDEyLmyPuw9JFBb4oUiKRZMFAwcvzdD6yh7gIhp6JIehktMIaRxIyiDVZ6qeeZlwP+iC4n8W//W/Kz3ew6onTmOaISL2JEcuvjPTlyTnn7mXZGYBSigNaFn7jUemWBFLYRy1+4+uWRJPMwthJmW8i9XEN+ivsvADUKRI+jUQZJeFnMKnf4uNOSJW7BSA0AIIhFavP8n6Yfbsoc/IOqUSvEhHPgxnvFFDmPQcS4GoW/llOLvDaqRXTYoQhZ11cTIfkqk89mS5SU7tBQUW6Jwp77BAXBI6mUywotpaH5g+g1Bs2yWVhTrSDLqmcQgaOBimplgjORqQEv4KaRTGW254YwFoxQgmxjDrrzz2n+Oh3pZl5SZLJnyfq1KRlFcQzne13Qnj4NlgxgWIsvU3js593Sx9Wsk0pwBmItrOHV7z+PDFJI3LVUc+R21bG9uf7Di5N3Js5A3tuw9942Keej+exAH9wejxvnjimdpfaffP3p429Os34EI5X4B9M1MM1PYpqMjGQyFKGADnjAstcNO2yAlXiRVkYIsxRlELN+mPa96E+9Q8LIHkQ6xfsGm1LOIv7B9ZZ7i0GVrriYqwmRx6prc5T3JImbqgYgri1dN01UvIdJYW7fIhEhMrAVmTZiy45eMlm3LjiSmXIlTWwUjzhN8WKbVvb4tYQw+Kth7tEg4tdSLMfyUwY3x9syVuaJ1npthR4r61Mvxa7SIZ5XRl3oqS0gHYyPk1k1Icuroyfor9P9pM2Wjs5qIlMMtOla35oQJstN+o7olsiLhKrfW/TVVTe2q9EncapFhXIHwOYBJhZMnDWLh4cWXA9Ajc/Ruw969pIueCCic0K/gixstakBbF++pmp28v111mIl6k2ib7RIsMcqYvLBxAxdfALxFTvNYXK5hOgNOAw3kx2nupicVEET7MBNO6BmYDajm1K+dtA2cfLQFTwK7Wu7ytxeyv2uCo5b5NGoEFWmkSg0VEsH6fAaJr5JsbBGtufQNFEnVF1w0mxcmlnj3jp2CF13lb0A+nR4NZi6mDXT0k0TVk5qq6AxmdFL9KfLynTjSnyA661IrRXO5A1AZQB76jr1N9ZTmZUUTuHDkpi87LJYXWUABdVZFxyT8Sz9yszg2hhn7G37xdgfNhGRP/I2n1h7EtNQAr69pNPmkqBcbZiQkRHd7pdwCQXsYQAf+KKy2wmrLgNE1QwnwDFg+hFJcqYW9ckRvzpBvqI2e7ULTe6mhTmsUAl/2pthaV+XnqZyc/AgZPQLlYigFk2aJhUngLrRPEdHSDdEqtZdgByva/Df/q6J/xk0poZhAL+oYDNAva4KqMP7WtK/GTS7McjbpC+i9wboi8Q76RHmpQMlMuIiNwTDmpeSO8Ljhy7wM4LL2jxKmHhn3kG840kKYj0n+h1a+La461yACYDjak5CkT1zPXz8HWuAYrdMEtVpZjOrZ6+JqTTEJ1ad9yhIGCXDxZn0ufmxGChUUd0vQwgp0ZZcJtapXsrYpcM3UpbYunStRLt4FhCSaIwVsUo/XkXIwmj0H3SZJYjy2VPAgxZ/WDvnJljkBAzlODEZF9mNMmrUf8YWM6DiNd7ZpT87KxhV4fZyVCSt0IsaYNFDfcpVALoQlFLRAcc6BL9GXfP+xOHbpsQzIF1QiVGwRo8kQZw/AkZsrGz8fzzFn0wpBVs0TZvu9nkbId8nSVWSt7POnpJ2eaX/c6jEhStdeP1qTtLRtwdWZf6x3YeL9gljvHQ8f2FKK2bZUXKkfVzUvqnAe6A92LhVjJc6ZiKmHReB2UZSDS5zXF4zHX90wDUHtnGldg57F87wy/oIxsy6zAXl553wrLb6bkXZBpARAmzvhe3y0ZFH4RY/Kw/GQXrk8JHwVo8H50r62TshHAKto4PaYeAraMdEDzGndxPsuIYMrfWmvQYK/gGJ7inlqzFm9jWyLQhlAAalOI4jQbplXhXE3GDege59+AV3aGLCBb5fdHdT0g+y9BSCWPYMvWupKz6k40Xxn4hsdiyuaKQRez6GgeF6CaAtnAzHqAKL14fB+cboHp9iO6nccmlzmlFCSXTuTz0gAwjlTpJDrpe72KDGRnPD+TQCtdDOU10AMlTpMfEWr35I2UGDtTh9a8l2ulll9ug98fGfhITXGJEGcq2119nIp44gTxw+fOFn9qtNTKg1LVlAaqw0rU/SF9gBjCsX1sP3J/6fm6Q5833+LoAKAYbqwg2G7Y65J+i6LfnojBIzNkYmQ4qt2oXVbHejpHVuG+wqMZ3FpWVWQPYUnRngGvcc6FArV90iSlqx5Xtn9c7InpnKRFPF2NeMRBuFy4XY9ASkw6nWk+YGERbygGlmTu0Ux9KX8+8fJLs1jJSFzSIHVmL41Xi/RZUM7eH1gdAASYasHXJ41jbBpNemrkMwAr3yFbskty/v3buP3lerKo9AVgENCszeFkMJFbUC/ztfLXDPrvocPR/GWAhC4tRZsEwkCsBTgPtwWlZu6RlqIOSnfjtK9tBKXPLsLL0gxTfqDmKRGjeN4uQxYXK9GFY5fNfan0AVG+wsr2PfYj5fM1/365RC0GIySl1yRH3hMV4SSJKhIlnZcElD6CAC3qUUNL1URaYQ68rLDd/qxe6V+Kl4WFRRNhLmQhfdHKdH1sfAOU7Waw/Yh6xyItWE19s5CeTR7tHpVb5kRXO0UkpRS0A3KRNQt9xnhIgnHjSRP3bZfetjAU37cTKP5crkC32UqIinCObIZ54xxorZd+xbSLMIxei54lJYID9XQFZbj38KufITKKgmRMdWl8AxSPKraS+61NDV5OxvaCdLB9QbmzZ9VZAoqyJKhO2Gz1HTbY3Y22eiupnYtuuUbkhZVbgWQ5K9diOHGBXAiysHt8u4ZOBHIr2UGJcIBLPIwmgcN0iBleh5bfE5M4zTxfalM3j45RpU7nRVKbmGZWF3SWzMAack3BRhFZtyfDTsmrMqI1rVS1Wx+aGM0EDLJGqkkYS1L8s52G3YxKh3N5H29xlgCHfVuphqxwOqCzBGUMe3FRXMAGSAGIJUAyuewoFAdxYqb0KHd3VZiJjkE1oo9EEo2Dtu4DVpK7YSvjoWartMk3Sy2zeerNlx6jvukjb6DnTBRxVmWByerVsMISPlTW2DXoUqAxgOAUU75yDWlJMU17X2eRiy5vJgbsGGWU4xwSgHq7hWjufrg+mU2NyoXehfsrSBspxL3+Oe6FrYfL6Mrh0SDndeXa3W/qXb6f51ChXkszR+Ywzey4QJS+mOO2GeK4ywJCfVNRDFTw/9fh609qH/6t64KIMJOkziatd6gjVTYkLMfG4TNuHt2b6Z/QsiXw0Gft9q/nMXdov4RIjgCIF/AaidQlQBgTbjnTJWWe7zrVy38gP8nEvSIPWXAjkRtAnE09SLsBy1jGw/WAFEAAJiEHvV9v0SPovZbXTaBOLXSTASJOrK3CKACmdZ8JE1CPg0hnL1WeAxXX+Xtk6/XcBF7s1usNyoj79MTEtWUM+WN3y0sW/dN+YUCrnnW9RGfrPXFx6+FHaTwNHPUfB1SaS0tcGTNTBO9DzlvGly9ZLn1NH7130YDNbovC7xeeSmJcuGYVF1vYg/SGfOvJIFjp7k5KKNOskD9lAtD4BSi8Ar/+6YkYRv9uiHYSutMNeHqAjsjjhfut7WNlhx1nFC85ljw37XnDZqhxi1y3ZuVN2ZsdNJlZlWwkwk0UGEasE0Sd9gAZgAG+BFIrywrjtBXVjPkLZfj0FZUYdMu6r8O2NumoVz6mTYvnTEZHAnL9z472DHkqZXzYalRtJ8/T0WiWxiSI4nY/9NE/NWxdtEQAQSqV+xlkuVgpzuJcVERwdYmoZZ2oWht7iYPeG+0E0lrMwCRBCyezdMiFX+qJeYAWWsop25CZ+4OWzL8a7QT2AiEcf58gSPxT56+XKrbef4SNg3p6MF9YLx0vwLRO95q2N89wegAAuVOFsEoXhmEgpnXs+4K3vE5c7N/QnaafQ2eWBgfdbhtDXQdQjoIST6wJ0gUQKrL4YH3jNqhcTMEUsJDxfjuh3Nn5sNzPfl7my6+nn+gUoeplJpp2NmiIQwvqumANYT29upW0Vd5Js3+5qEpPT2EArrVDYoIkTj9On5W5TmByA94rurgQHlau2/E90g/NuRyRdKKFVjEvNPyGghNcA+rwNROsboPQieFmkqkq27ShcWTbQu5reowgAEOlqhOlQUL9pUbpBoNW9DPej99clJlT2GoCJnc8SAEWgQsQc6kGnZddm6xz3kJTF1aXMNePqnPJ5A2yZcQDeeTLu1We3yZ9cx7/XPUDR95GMN2tKMMBu1DwPsLkZJ1JiA04keLDVeJqTsmxdgAoTK0NMRByPDWgyx0d+VT5AFMWQXS9bKuoIJVPGaxdvQNQMrWA1yqlv7X0V6KBMtPb6vLLvYDXaPuE9wt/ghDeY+WW8NLG+Ne1ENUido6iCFY3ugfhghVKRDdgw367RV48+awrcEpwPCnKMZ5cBAxOs7CRDP+Ob5q8vsZvItR2BXFH4F1/tXHyiKJcYXUSmetpA+ieecf0DVO9NEeObNE2NL16VumqUHeBFb3yjHVOfEP618dkvSCTeXkqECu2KWDGhMBEoTbn3xaITFyiDh9Wb57YmMTcgftYk1w1r0yyOWyLZIQAVsXtaos9m0b5p17lu7aAGOoLJJ7Z+4crPmif+0vXXmnW1OYAiRmywlWXg+Ucd0KDFcDE+cptrKHwy2WRmOZDNPADAKdPnlO2BlF0voCtjZhBZGjDpkDxhXDtkIvsiyz57bUVUmmuL8mWNXv7Dwt343czlp9btr40DUP4VyFiwfu55tnVOCqrWIw8ppvNTqRFb1t6mVx43EzKXlFHI2qUaCKFGhL5pA5+0x0eCHDg5/MC4rWQz5EOPwySVKUaifH4WNlkhfNl+X2muveEtEyaxUGg3rJS5Af3QA6dRdY86Z7uBmR0ss9pHVxMKlIia2skzDmqFbRnVzpWeA0eHiaFz3OyJH3vjARRdocmJSwD55bCSXrr2Gte87ppBHyZN4OTY48zNA4tqExP4h1UUJa0FMNNv3rz+7wfVh5VelPe7dBbpCX1kybaruYaLRExAr5exEaab6LfZ3kj/UipEiupqc81IYNN9xT1EH/moSw45xEVbD3ex+oIt6FGJN9PGruxfM1nAojyQzAIcHdQMqFSWY96VQrYYBzWDtkyrSnObwmYrRwasjDFEPMaYH3u5cuvtZ/hIWm9Ppvbatre20wkj0pL9SN7J0nZ7lDeMyAiEGLFVH3AyQNKA5UWL7LiO9eDGMAl2uv/bSmX+6V3nB4m5YPR0A0zIfv1cwsrty2eqGPaVe/p2DivjjxsHBRflwRGRZ8YD1wLWldSD2HuiD3pts+104kqVUXLrOSOA0dejZ7Z+LtG3xv3NuH/8u5n000wyClJ1MVIt1yJ9P+fPUObZNzRA0REM2lge3ra7x4vLDFhjldni5rhe7DLA8QOdOgp6NNI46NeVq9fqy9zHtoZ7v23SUJ8/r2uL6i+4Zf/Q3OpI9EzGoQGK+T7pt375F1sk8skwxL2a2F1GRGP3VuK6pxifQHLBBbYDS3ryyVl5X8k8fopzLszOw3MS6qZswMB5fMZMmzbMLl7mmZZ/5cVJ1CGdtK3MmbPmfyXbGYvj7QHDn+e6cUQZX85/H/fb1+nL+99lPv09ylxD2UmvK3EfstaW8euLD5IoTu7CZW0jwsLBpbwDMNSN98uExNX7JrO0cZEB7SdtE22Za9IY7Uq1YOF9ChpquQBZHDYQbXyA0stCfAOg8rtCJirhC8bfsgmygd7wKj9KfIDSbEuvFxSVU1xrjRhUyoKbJ4KzJTuOCtOZSXStn3Ou9G6KZd57j3DMpPomRIk/lr+H/23eCMcfb0lix5X116zFJ0p82wzIL6ZqDIsv8eT1bS2aNrN7bgqAisX6x+Sjz68u0v90lPbIUhYVvPSZ9fpGrRhwkBtG/cJd5h9J3KuhJHAi6CDhm00HlSsIwDQuvcwyzPR1aLky9lPghOlEQtaTzCKDqEls9br8NEeCpSa2bZSce34qVmbqKLrdmh4jMOLbbxWKeF2pMkwsXtMGTv/mG4sfHNY/GqwRbjAklsztGHXffScNk6sVVDNlWA3V8RI9gKi08Mtftp3D1p23K2X9m71436mOCjOHugChocSgFgGyCBR0jEQBW/7d/+yWfni1ayo7siM1FFwE+nRlkInFeZHkoX6hIqMWhIth53Lhqp8XZ/QJt3T9dUrg+ure7C/cU7qvujZISC8ekc5MoDnXpF1lC86oPshTrDyAkZKtbjTaHACltxbvv58MOXumBNm3KMDqvvKKzAakLAfAiiZLtnz1fXwPAC7amGh84edcTVxSZ/czrkPWFSJWym8ylulDQuTHgP6m7BaBXU3RU7vKEN2FgxCQkBYrwXyCSakFaNh7MzDEOFU2YO3nnnPdN94wc5JY4MSETg7bKnMMhX32O53jn27tSshMpPvOO6nZSr4V6kvMSjYabQ6AYsv54wemge2il/fuoOltoiBvK/MwYl58qHZ9KppaD1i0TnEmydatMkjtRSxgAfB/oXeSjRoA45RQlFDKZuJR4DA7rDrEPbMFE6AZ+4VBJ7tdo0TQYZWt1XGxjZ3FPa4zBKCI7YUqY6PRptBB8dJwjDUlYp6NRw/1ktJHv7wcuDbai17T5wGQ0P/BpfDH70mI69C1lACngdtQBxzXegInHgK5lpjzUkkUkY1tnmuD6VI3DUBhE0NYlgE9Ay/0rZ8JoF5MLbuL3n51bDo9MCkwTefu67oWdpwxNLYNnYInQc9mi8AG6+NNA1CsumYXU7D6Eu6jrbxi3UmyohQMlupQ1QPT7oEIj4N33u65Vw3WHskjYmCXerDYujuyaQCKN5Ns2+YiLIxzhCsKSS+7r7+uMzgNVFT1wHz1QFcW5JZsFv1ZjtD1mbHrelD059o+7uemAii/g1SkA+myFQ5AFfg5jevE6nzVAzPvAYWT6bz6aqENFElK448rJv8GpE0FUGwnD0vt3X3/Pdd+9RUNgOXhZzfgO68eaT32APZfP32zUAluu5ToVzeYgpzXtKkACgV5cqy2qhXYLk+WWZbMrORW24AvOv+81e911AMajx3lvMPgtYgQ7/rO8EUF1vGxzQVQelGEXrEUVfmXhhLyLRkBYmleAVS+d6rfa9wDpiCXkWoRxTI23ai0uQBKwENMbkCqiDqyVO4IpNaUDBylqOcz/71/bBVa6O81zU82IHx92e/DjmXLrMIj+7axaVIY4WI12lB0DxZPknK+L6f2AiJ6RLTBwqz4x9wcluT+aWUjYk6k23e45h23D7gMsEoZQGlArKrrg01QGYy+pW3kN99I20C0To4TtE0ROnGojeTeEcsaeqbsvJ6987qA2swu5J6yAsLDvh+elr7Xf12fHLP3XMuqzx/jN7aZhx5mCVqnlWB02T39D55bIn7nhedlb/Sehf/FHcaxoMnGyBxx80a+/tpZf2octPVOhpGlW9uAO3g87+YCKJ5YLzLGMRQ9VH5FYgv3jdc1OBUaNx/5gGtnQRp8Hd2z/cgjrvXwg+lOjdm7LNeFmce/bF3qymXX+NTFco7df/qtoS3PP+cW//WfXfvZZ2UXtjKAmkYDI1l84+hdP/dcV7/40vS9TNkYEY6p/fhjrimH4vbTT0kPKf9MOeYCiJFCmCTblYH5hJNcfPQxzkBryvcf109mpPmG9E8snHnSOKWN684yPv8cQ35vToBSrKFYvkudHEARb4eVqr5apgYAwksvusXv/ptrP/iA7FyGDEK9PPFSzonNb2ryIKLWTjl1ulye2sLzN390m2vdfVfxdvaQQTTLw+lzywREfmj440WHHzH928lAt3W7nlsRE8hQ7IlIFyxY7Wd3u/bDD7va2edY/PrV5lgivRe4WuOofeN6n/G++6ZJMPT+isxncsXX3c/NpYPqvR4iD8ZHFAx0dA/YQ2kyrAZheLf4/e9pcvzIuKjCFTLbEABNTs3tn4i7UVunSnAFmFo8+0yqf5lq5SuvrKsJitg5C+oIiNryxywMpcvEV6SLtjhLwr4sfv0fXEuLyWpSVwEVh3o5KEhfpMgRGxGc6OPNCVCKJUSYjQGCixAX0/1guXg1UG6lBxj0Eidbd90hbuXOoe4LhbcRmw+ARtMGKN0sDcg/GGuosB2rfVDPayFbZnFfdm8RZ4tEKH8/Fgdt9Tfvucvt+av/amBl0S39+Vl9MiaJg5Xj9v3t0EduxEB1/vk2JUA5Zb6NpVcoIlaq7s9+WshOF5Wf6Ji4lbaiJxDMzeL7lK4EZbMJP6WvHHUBTFS3OacANarhKz2nvkTXNY4LUfdY2Bjskfb87d+4pe9/d5lIuNJmFF6vl2I2UENMDEitNuAAX1jR+jy4+XRQvCcGpMQ8ojBi+5SlrlbJYdu52XIr+q77d57/iWu/KSDMEyiBbxVKerLlSv+QJbLC2I7eDJT4YN7QUCZysuYccd1xXGVSwHGZ8p6dOUM3dS3aMto4aRk4xCJjWeokwN2MyERmOiCUxNE1b7zeguYlp52e9kPotSXLmQV5bhxYFeoTooqOA9aSt5ur4psToHixByiAnTIKDwAUCkkFsOsqMFo+C8y03hw2Nh1FdrRkDblJQdyqmsLYEtK2edutPQfmzJ1tomoHkm1lQxRb1zMFJv8K2HSJKVRAsZTT9TPOSk0cCs6v+BCPIXBCIY1OLi8+Adj0yayIRK0pyAaClPq+K31g6567XUJyBvRAsyDuM8SC3HakNY5X1SRmFs84os7NCVDqELgnnIfZRVtGmiQd+eRFgeN02bWhPwRQDG70UAMk8wGSDgBepozFgTlLAihj6acMTgZ24pBiJT1ocw/qz1By6KFKTqDY37LFmsmKzf3ksd+8Q3q5++5NQzBn7j/rr/0s0pkb2QJFHDEFyWNHL78xYdFYZTfFzm9tZgAl0GYxKyItKIh4/VyLRWXW+bHNqYPSS2MOmuNwwQskqkFetCooNvkhxB+lr+4bMWZrgjPSnymslb14gGi4iXc6lwORgbJlDvRAaZRuy25HuVmQ6u2aYaZEOT5XkxBb6fccddXP+G7WdwmYi0QpdYjtsLHYzIKoH9FuSP2RQvxaLrxZ3HtO6hx8K3PSsJk3QwPSMskW3Mji7swweB3AlF+NB5rBhEWfkycm0gxD1o40UJ0RNvlHhBMwo8RpAq+vfMSngTJ6tNx9AS2SMiSyfyIxaJEy2gw62VHNXTviduVOLSlmvrwLiiiWiiLap5c9uajABji2iQFK7LFWxSL3CUKvsHMyK+oruodxIwx2nSta1WmTgQjXDrt+kobrnqbn+ZAU0UPqVYtmNxFpM22wthcA8yTPFHiNZZge1p86TgYZMsAMA29r7ZA+C2xCcTHVaUkScHsqIukrI97XBqbNC1B6+ZZuSKtQnjA16MzS1AARTQZ23SGD2gBsyLl+W8ed7xcM/KL62KHrst2e5wbQdSgSqWVmnvZ9s82bZd3Z+xR9R5zOP3evHMAUi2stel+2oyrd3bBri25V6pjGodlB5S/SuyKTi0WIXct+y7dryr83L0CxWpOqZ9+CVFMor5VIYSbEJEBMY9IPGVisyF3pqFY9uuewCUo7mRBD2ju1frK+0cKhvlltsnvmn0+/0fMgUpPqqpDQJ6Inyl9bWLj8wa7GYZGFuwGjHJktfVb5atfNFZsXoJhwWOHuTz77QWr/5Ce2qzR4ZoVHGMghOijtpq324DPObcTjDZmiI66Y4JSAYKx+boJqJ7nEnlevi1dWuHmgE6Yzm6TykGsE2J33FGKlwAaKtiXs4MnoeCPT5gUovVUMD4dZ4pLMcyZsO1wCSlXzmB/iT0cZ/laZ2DbH/ks9s8p3XvvbjTLU5E0UMkh6Rxwfaty6wsfCFgybvCKKpCJwiqRJluWNTJsXoBhc2P0cOET5qa1d4gJNndLlWAA0omabDSowTKzg0lkAGHUSUXRk40a0e6WnPAr4z5XWF3i9cUdxj1UquMZE26I26RivcWYmKUoVT4yqIoo+LO6f9O2oCzYwbeynG/XiGHCyHo73+2jPrmh54Y528rr4P80CCOxWoxBKBdBtjLz3mOuXP07YL0RPTYq1IgMKA4JBDs4MKcf2yQQtp4/ROeKDOKy/7bj0UXn7LB23ls4KJCTadYcZaaIglxFpMWs3QT/M6SWbF6B4IQRDY6tWfnl5sp28vBV3vtBKfjPZ+CsizRlT2uJ+kSdA5H1xOQqoNnWi7nmNya4gghZlYtoPDRckUaqIC7JgedIFAkPRFolUBe/DsKtARzSNZnbIeD3ESTiWx0H8ES2uBujTuNt81lEwA+azoTNpFYpyMrKyG5In5H8M5HyI2vz5FfxmMjDZzKE2W48Gm+3OaFvbLMmLQAgQQX81DNyy9ZX8bjoouXTkybbX1aYIMWiGZKIUekE5S+cJHRET1ibkME4nf1HobwCm6D0DSNrBs8WCNhXpe+SeU6TEDr31qHLmhlUQXYL2EIfcosJWADWqC9f5Oc03cxcQF1VEJEqc+lY/k0uTIZIyumhnyBximRj8FQ0+AOodgQiK9ikTkRwcIl4OAAw0F5ioM3bd1H2JGU80hzyZMSWRJxDHivolf0Hob90TwLfnzl+D6IaNk/raQLPg+SO/65jrs3xVk/y2RJ1FwRMBTQxHC9KnTXKfeb5Gb2AzkxBKITxgl4ushC2qwbR1MkyuRfnhFdXLhGB3RlvHZoDH5MiTJotFYGCiTpksrGzBim23wWF2msBQ1HY4WkLNAFJ5EgBYMgdT4udPruC3+pHIEvnoCdTITpnFIBfHYvqeAg4KezXTVU55wSDkT+eFFwq5M6Jw2OZO0fhYQVfM46WbHKA0CDUhLKZOwaQgzCzmAFMlVmyMMBENcmQiDu1QCiEzEGSFzIMCAEXUz2m3S20hrEenqF7ELhxTCyZo7hFW/NPidMk+LU9mb6QdLTLvTI0APQFBV3HHCzkogGkLimjdUQpprMnzZOYJxK+aNkDJgrzz4vMD3Cz3jw4+WJlmDi4WOfMNXOe/K4DSoCNrSPThQUW5RTJUrrxpk62OhBXOEa4kKD5jcXU4gca0Ca4qQzZRifqJ+DlFgoNoE3qmiDPzHMSsc68BxrLst4w1uedG7CQtl3EV+j4V0v0M7NkpK9DpGSgTRoXNlH0/YvqogfuardIrUw9y2H7uudQfNP+sjBHSnG8CBTl9vXz0D/T+JjigQRorbY+99PzjShRrPfP01C2bTUQrijENEKCwJzAboo4G4oC4owFLLClCBhdNqvwjhP6mTSbiFXACZhRoXvOzHy5EzYzJQ4eLSY6Ixd5+6smUA82dm+SnKd7lMdAusjXiXZDOia189bl5HfBbx5eRgK3zuvLpwW1PiWyxePThdEc1VyccZnLkNtlAFetNc8XX/c/Zj7h57yKtSKzY0UFimfOrtkQx8tW5XFjglTyS51Q6BaJKLJEuVkosW7E1QZOtWwsnKjZaRJ4sdCKdpHGAHuJTESchACdrSCy3itUgFL/J4UpOqncyIN6KuyNvXUcZWPKK/NJtM6D/aZoHryC0jhnxfuIQ+WpK3GQR02d8oMYIjt456hBf/qEH08wrqndFpOs7zwk0lZdwYHeQdug9xJ/85ODCtaKbzu/FFUDp3bA62qTI2UOxlU8iy7a4qBVPCMYAg08rbUdpo4p0HnBMllSUsgxGcsANmahkwG0r8qcqpfSKqLu0mHKKBSYGgLZxmIg6atPMSfeIDjksDSaYXzB4Hy+/JDB4qFCpXapt4hQ7EqPaT4sjK9iwQBGdKAO17eJRsVQB8bYjU2V57kaI7EQ/7ex+ZsW6KHZSm/fek4KwnjdLBprKiUim5VV5F9mbr9H3CqDU8aYoFxjEiFe5SYhStnnXHSl3scLV0USUxx93HVbH3OAzINCESBAjehSLq0tYLQt2awhL3H7s0akYL3aUtbYjEDYjTX/z3ieiFolCi4xZc0Wn9hMn2OSYY1O9YP59vPuuaz3wY9fevXtyMNB7ZOet9eP7XfsVQD5Humd82GEmSvXP6JraUcdYkoT8GLGFR1zPkpKettENTjpOpM9qPfqIa+v5iNS5jABu2T7VTjjRuQJ96bKyG+hHBVC8TL18ViVjnXNggPFi6+GHNPiUwECTY2KS3VNHk6p52y1pBuFcRfhV1Y47Xron7dxBDEjpP2onniQ9iMSMHNGWtsQKS1G+AktmMqh0BHSIjAM7UXBP2kBIdhyVKognnXi5to/9KW6ldtLJeh9HDord4nzgepo3Xmfc1ERgIBHZMij/+L7C2OeAcu30M5YvWLwPLR7JyacUit2AO5mJSUVlDr5l+0pcXOvBB13zmh+4trjjgQVMuq9kx9EKQSzgLhAzx/bpOi1QAVTvxUX7a3VS/OmB3RENNBTIzVtvTlOCFym3x7181dF+QSnOr/5eKi4WKKIRJ5Ljdf+sWKPvydHHutoOiRrZ49xPHFj7ySesXcRQn2iiMtnFOTXvUGZjMofkJ5XAOlbGklgclHENmqSrRSwY9bPPtZhdA/cUqJJYYVFg0H6+YDIPXLD3AOLY0q23uKXrrpG4Xdxv8dHHuNrOU/eKd73L4WTrZ55l3N3eGvd+w4C2qRTqi9/5dg/wB01J9pbufWN8SQeGiLj0vX91rSceH9xJVb/D3dfPUladAi5/oM4NdCD5Q9EGep7JH4VIklq50Q91MC3ITtbeIOqi80E3IeVpkbK08Oa6Fo/0xa//vYkmhbonKYYXfunLrqbdmbz4EMmCm61/uLgBpSkuM7jjaAAnSuVuxp2FjSg4qHa1ZQi49K//XFw3k0IhkRc++wVT1lsNqwVQ3EeAjJ9kV+nO0Tstex80Rn2CK0hX5+y5cVnKcb/Lnhow1rtduu46t3S1Em4q7fxAnboATnbhF39Z4tzRg4sC59nVE4cF91r0Ls1dSO1qo48ib6AWPrtmWWN6P2QL135e7+CmGwRO/2bp1Qe4WIqKe6qfdbarf/oz6bOu1nsoavMqH5MHQXYmrvLd5/B25KLb87W/Syd+QfsYwI1LPm2ZPhB/jLPJDxi6VH+IT22lyl78vjgn2PYiUUzX1i/Y5bb8+/9gurA8QNEEzAo++Nu/cS2JmUWEDq12zrlu4QtXuYgteritfJusIrUL0mRtPvKwa3733wROmmh5fRhlJEY0Pv9Ft3DVz6/pjhGi5wd/9v8IpF6mVYXE8ycSB5NTTk0V2/L075MMT22XTdv2prMDmIYRz/zFq9yWX/jF4v7jOt6tgGXx6qvd0jf+QSYPIyz6BZiJxkgsvRGmAbYTqnsAbLixtB6SYl3PZ5zcsDbpeCwRe5/f+m2XSC+22agCqNwbRwRY/PrXLGvs0MEnAICLSnaeoklxWqrY1iQx0uDtyqCQFbR13z2u9fhjgyy7v6dABD3LPv/Lb7lk2zZ/dPBTk4LV/4Ov/L/pRGWS5EmrLO4PyUknufpp0p9gNiGO0OHgS3GBkhmIvviCbYm3H7hfho/ybSsiPV9Nz7XPbwg0tbO4pqRnbd4tkP+bv5burpjrWdY+gFkcqXFTcJhSPBdyJdmLdA3mDTWJlFt+9ddtV7cQ4P01alNHYtnSt/8pFbHRTRa9E1/ef/qFgwWB73onI0llMDvZ8u/+J4mcp4wsulFPVgCVfbO9QYaS84O/+kvXkT7AXBmyZbLfBQqw75al2Dsca1IQBQG9VWEKb3894CSQW/jiz7maOKixik/Vi2J3zz+IuxuSJ82q1gody1zCEjrabo8mrAhTAicdSUduHQa8wyYHQAdo/vr/KIXsccM5Cat1lf4Rx5GKQVJAY1RZxPFN2hTASf1UO+Ms1/jc58O38DVW0P0t/vBqvRdtoPBOQkAqsJ0WsUC6v4WrviSF/ZmDBqKB9az3YhVA5d8gg0w7bq2HH3GLYuFhwUeCVP76kN+sjAKnxqUSFS9UUkiJjSHEThG7RM2bb0otl0MmKhwFxCfPNmISwXWgFG9c+TlxYafP1aRg17J5952uee0PHW4gheJy+qTB/1qUhgMOdHWJx/ULLpTtlUQoAXQwqf8RzxC9l7SJ0pXu0uJKjejjkLrNmn77drdwxWfFEZ+8KaIWDOuXSkme7xkmMquqtpT5Y2KYQnUYx5G/ftxv9BLbtrvGZZe7+rnnpeDEPQMILis5TNblEke6pCPCAjoEpKh71KThebF30mRYEBeBrY1xdIHtCmj6iovg8kP6dbPm1jMjrpqSetRzDbsrz6tFAQ4RfWINcPL6xGHXFB2nHjhoWb4nBxxkge1IWW+Gn5O0C+5XonlNO4ULV1zpasefkOoli+69SY5VHNSIF81Ag4Nauv46Gc/1dDaTDDzdwyIVMClOkI7ovPPTwceOUFkQ0P0BzZba07zpRtkEycCSCASTtgsxVVxEsnOna4ibQ5lrO5Rl2zWiH6d6SqIufohtKfdbDz/sMDA1tyEdH0twrhLn4iOkUD/5ZAPiuAf4Y68dVYB3ImU5HFRbyvimTAYw37C4XaOU6L5OgElGmNib1cS5JlogzDeUdzCv78G3fcafFUCN6mAGHkrv18TG33+va91ztym/Tbc06rrcudS/7AhX01Yx9jWEy2DnaWKiXXKcxVWjdf99rimboDT64ogdpfzNNPCNa5LFNis2BqHGNc57GiOAmOfXDim6PhYQrMoxmei+JjMQHTewgLPkGQEl9IMyQ0DhnEiEZccvPkhZpX3a8GmBAPdkUVO72phHaKPEfCYR/cRZddQ245V5BhYG4oqrbQBTgh2cFgcL/YNpSVoy/9Y23e8KoMa9cj8hCKshPzqMI82CWwaCFqpjSAA19Dk4vMYCgLomPwMwOvgg7awpSoEmzTTIxyJiy7r9+KOuKbAiDEvnPe0qFTjAck+AMVIqb9pTO3mnjA6PSVdrtXfdrdYCBNP5CBQsjRfhWATcJvoSwjdRmGL6W+nBI6VoApAtSoQ4lpk+KwCKSkBjhoWEXV1ca6ytWvA0APS/AAobKXHV+P1Zu3gHFS3rgQqglnXHiB8AFcSkECgBCp2XtUrKjw12Hqdi0wdpRayxQuPUqdUay1/ziNeKObNJYROi5SJWb/mWteQX1nlJYtATj2lyaHcJEeKT21wiw0vPRZjfoZkhDLGZSp923f0LMJg4jW0FrwzuyP+txdP4ccO94bCMhbJ/1rZda9EXE9yzAqgJOq26pOqBqgdWpwemI2usTluru1Q9UPXAJuuBCqA22QuvHrfqgfXUAxVArae3VbW16oFN1gMVQG2yF149btUD66kHKoBaT2+ramvVA5usByqA2mQvvHrcqgfWUw9UALWe3lbV1qoHNlkPVAC1yV549bhVD6ynHqgAaj29raqtVQ9ssh6oAGqTvfDqcaseWE89UAHUenpbVVurHthkPVAB1CZ74dXjVj2wnnrg/wcvp5XLB40jBwAAAABJRU5ErkJggg==;" parent="J34aP4NqLfEWSbsF6mjq-1" vertex="1">
                    <mxGeometry x="90" y="581" width="72.21" height="50.5" as="geometry"/>
                </mxCell>
                <mxCell id="71" value="" style="shape=image;verticalLabelPosition=bottom;labelBackgroundColor=#ffffff;verticalAlign=top;aspect=fixed;imageAspect=0;image=data:image/png,iVBORw0KGgoAAAANSUhEUgAAAMgAAADICAYAAACtWK6eAAAAAXNSR0IArs4c6QAAAHhlWElmTU0AKgAAAAgABAEaAAUAAAABAAAAPgEbAAUAAAABAAAARgEoAAMAAAABAAIAAIdpAAQAAAABAAAATgAAAAAAAABIAAAAAQAAAEgAAAABAAOgAQADAAAAAQABAACgAgAEAAAAAQAAAMigAwAEAAAAAQAAAMgAAAAAqNQJogAAAAlwSFlzAAALEwAACxMBAJqcGAAANmtJREFUeAHtfQmcFMX1f1XPuTewy33uJXLvAQJesIAajRdR8Ke/JP+YaJSoxBtvV41nNP6MiVETY/IzioDm5xU0CLuAAh4sl+K1F0dEORRYYK+Z6fp/3+zOMjs708dM9/TsMrWf2e6uev3eq9f17ap6dTRjyZC0QNICSQskLZC0QNIC3dwC0ysr7d08Cz1Ofd7jcpQgGSqt/DLHx+25ksxzGZOHM8YHCsb6w+D9meB9GBeZUJV+6fg58AsGhwfXLaBv5Uw0c8b3Cyb2gcd3+O1jQt7LJWmbzMQ2SZbrWdbBHVUTJ9I9CRmKK+omcM5OZkKMgoIjGEe+BXPi/DDlB/n8CvncZJdbV300axTymDghCZAYn8XUtTtTmhubizi3lTIuj8cDH4UHPhqG7RMjaz23ywxg4Uz6BCdbUAC32AT7ZP2MvC/1MDGStnRV7TjhZb+ALheDbz+NvGE6tgYvkP/lje4Xq84Z1KjxPtPIkgDRadriZTsGcUfrKXiIp+DWk/Ebi59NJ5t4kR9AAV0H0K6RmG+NOJz2kdmFbmJlzVhZsPsh8xxkMpbytVdw9ljr3ubHt84d0xovg4XKiSUDobx65HXB0mpXpts+Hc2kM5BB+o3uxhmlgvY+F/xtL/e9vXlG4Vaj8jJm8VanK8d9H/hdj19wczEmESigXwFmv6gqy38/JkZR3pwESBjDnfT+FxmNLY6zucRmo618Jkion9ATw05k6k0h+KKNM/NWR5vBSatqhvpk/ipsNSlaHir3+bhgd1TNzH9Ihc7w5CRA2k1Kb0BHjvNMifFL2psHKYZbO6EZil1oNi4RQl60cVYhmmXaQvHy6tGSJP0bnYch2u6IieqZDTPyr4yJg86bj3mATKyoG+kT8uWc85/Cdn112q+nkn+BAv9nh9z6dyWvUumK6nyZS2tQiPrHyxDwhj2N5ta8uMmLl6BEk1NUUX0eZ7Zr4V6cnmi6JZA+LSj8/2x12K/65JTh+4P1mry0OtPjlqoQVxAcH59zsWDDjIJH4iHrmKpB/C7ZJs9lnMvXohmVFw8D9wAZm9GsKQrNR0ll7WL0OeaExsfp2ivhxbZ+RsEas+UdEwCht53XLV2FZsN1MKgVzahmyN2O3250NvfAfbkHnpk9TGYHhcSauewfFGxG84EGB1GpMackCaeQJQymiTQu8WxZiGwkZDPO+4LHCNANBT/DvEXgFSlcAID8MzixZEXNbOjRKS44PU7nX7bsax5vtgs4HgaOk726iqEao6W55ZpWxhfgTRCPgbsGFOiNKOMbcPwCBb3GZmfVH08rIG+RoWHOYmGrya4fYpN8uTKzjYEsDFLSQKU0jkBlhDDY7D9VIeAgZwbA8T9G8I+Rx0h3dsp88Hg0Rj6Kt/fIGoQKT23f2svglbkbuR+oaIFYEgX/HFNGKoRgazA4VrV5Vv5XsbAz6t4JFdVjbJyfzGT8aIoHYyOi4Q3HxW+qyvLuDL63ZEXd5cjzs8FxFp7vcbmdI9adOLTJLB16HECKK2tnoQnyOAxGI9xGh71g+BYA8a5dkio/Lsv91mgBZvArqqwfYRPyWZiG8kM88DLI0OTC5jY2vmpa/ifBOpVW1H6K5t2Y4Dgrz6HLLzbOyP+rWTr0GIC0D1Y9gabGbIONtQ1v4deEzP+v4LvcNUvmcp/B/OPKzt/sbPLMElz8FyZBnhe5OSZ2wVM0OFi5koqaUjQf1wfHWX8uVkHP6Wbp0e37INScqutbf63PJ8phJKNGvA/hzbEYneLngz0l6Fx0+9DeHHkTGXmz9M1dqSK98Rw0xX6MlwDNGDg6p0zwii6Z5fxsvIASLPBTUEP22lSWe8AMxbo1QEoqawpqRe0L6GtMMcg472PaxbNSo/tVsyf1GaRvTGza87gITBZRDez1SZfjpXAZrgfCc7apC3PBZnSJsz5C4kKcCjXeMEOVbgsQ9DWuBDDgwYjZY0PrKBaDz+Ooqmng65gM7Z62u7Bo696DYth5zMeqwxgCXrLECxKTJ0CrJEDo0ZSu3jZQ+HzPoapHkyCW+p4fwf1/9Anv7zfPHPl14j12azRaWVbmheRXQ6WP/3cNrenoFRqfCNeo9Y8zS49uVYPQAJXwev+MjmJ2DAZphJvyKWGTH9l4aiF5pZJBgwXsbns28yWof4LzHA1ZiIqk2wAE4PgNBqhuQy6j9bx5BON/csrsgQ9n5e+OylrH8E2y8KVLCZt/YZRzpksOEx4g5KHgQn4Rmp/VRXutEZy9LQl+nZVLULWqmqh0kpe3MCmWJq2pOWsxi3tCA4TWGnBZfg11RmE0BkBVQyPb12N69L+iuT95z1ELyDbeIGGENCEDZ5jiY05I2FqztLLmfOzc8UGU4PBiB437DzbL4zGXKAkOA8pOL7btP2BDHr+EC5g5UW+WUgkJEIzY/hKeCfKkZOjNOGqNTVjEM2nDzII7as4qNK3q1atXd6f3e7cEr0nIfHDMiTMpJBxAMNfnVvTDn0F+9ermAzjuzuA7JmFUtesgl0kGPKbYcvn9xMwvN02vhOqDFK+oeRSt3BuieAg7sYDm4uBpIVHwSN6iYgHBpWUYtb5chSzeyTurynK/MEtoQgDEPz09pw7jG+xSvRnFhLvXna2On6/7wdDv9d6bpNdnAbfL8a+W5lbqEGfqu9M8avQ/XjKPu/5mjOG6tIGjljKpFxw+rFe4sWpG3vlJcBj+WMIybJ/o+I+widZEyl7BTJvqTlnS28433Ay1OXVYfMPn6mR8EKPhZ2Mxz2M670uSx2gBOEB+CxY0HSUBgnjF7EVqlgKkpKL2d7Dyz3VZWrBqzqUpG8oK3tF1X5LYEAvAAbINrvc/GMIsNiYtGJu5IzYW6ndbBhB4q+6CerSJguaADvwaj9M+2cxOmWZljmFCR5N8NzyG/7HUBJw9uGlafrgZx4aqZQlASitrf43Cfo+enIB+qdvtPC10fyY9PJK0xljgw7MKG1CLXAxu1sxe5Oy9/L15vzEmN8pc4g6Q4oraCzBjgdaMaw4Ax0tS5v7zzVycr1mZJKHfArSZNLYvujre5kDNVW9j0tx4LX2GvPiFkuV14+EWWKtnkVO8t5qMlzVeurXheEeq73aHS3xw/s19/hgvuUbLKamowwxrcb/RfMPxo2Yd1tKXof8ZtxH9uAHkhOWfZ/sk58eoDXLDZT5cHJR7DnOpLguX1l3i3iwXqQ2eprEoREWYDFuEL0WVwAbjkLdUyoNAdbpv1yFvzlC+us8AxwNnXp2zorvkLaAnre7EeMSTuLYH4ow+wl5bJZs404w9xpR0hVzzA317r4ENW4YFgGWapQn2jw0z83+imT4BCBffeqivl/MiFJYJMmfFMG4R1BqJ39HNEMLouX93E9vx+QGYR7D+ec4jAwuc7/bqb7/3rHn9us0+ERMrak6SGV+I7A0Nk8WYorCO5+8+T+pVW84YgFWg8Q1xAUhpRd3v8fCv0Zw1zpagE3ZxvNqZmvUKInzxluY8xj1FaDIW45MJRagICAxDgkg0nx7c18K2ffq9HyCoU/y1Cr5NwgaPdO0fkOd6o1d/6Z4zLh9Qr5mhRYRjKremu4X7HtSQ9KwdMasBlz7WoMy30qVvOkCwyfF/45n/Q7uxxKqWfS2nm73nqlZ9FpcLp6+5cQzavmgeMXyL0A8EAoNh0y3CAcQPFBiOjhIaLsPGpHzbb7hzUUof6TfnXDFon1b9raArfbd2GLPxGwF1agH0ikKHDVg9+ngm2/5y+xr5Lizg7Jl5qFl+3+wZ26YCpHhF3XDOxWbkLqtLDsNHfOFx2E+0ypX7fPn+Xq4W+wRBzSQ0kaBiEcrnaBxjfxuGz68/Vg0g1PQK1CyOFC5GjE3d3m+Y82/OTNtvARbLP3QZKWv+z9e5+Fmw52mwJ75yy44DrSsM/R7EbUJhXCnL8uv4gM9nYWg6okorauaj2UWe0KexsfZVHQkmnJgKEIyUr4LOtGeRlrDHa7NN2TJtRL0W4lhpFt7eOBQFrwg7rBfj67SoHQAKHQ6EWOUH339gXzPb/ul+lJ+jQAiuQcLFU1xqpk0MH5vyec4g99MX3DiUOskJHyas+HKwze7KFD7ZKQnfYSZL+6pOyz+oRXFafo0tVJ+ClWgMxh9wfiG2Hn01cG300TSAYNHTzZhj9bCKwi1I34R5VR8LIf1l44w8qm0MDZXlwr679fDx6EASGIrgu0ftIIqxIKuPoYJiYHaQALJVP0A6QIQOUEaO3Td8dOqGnKHux2fPH0ad5R4VSlfUzUE5+R0AEdrPO4Ctm8aatXWTKQAB0uHSlD/EE3KGeUo+vPxewBv7eSnr+3VVEycatoxzcfmedF+Tezw1kWBI1AwAhX8Ta+EOo0fCRFETK1aAdNQyMG72IFfrsFEpa7IHuR887+rh7yZMRqNQBLtn/gBzau+C52Jq5NvFv7HpH+iMD4YDZHplvfuQkNejgIbbAXyPkOXz9XwkMlKWn7/p8AC7DbUBk/1AgGuVwFCIn+F5iqSDUfF+gHwWWw0SDJDgmmVAXsqRIYVpK7IGuu6d/avhVUbpbDaftm+7tH4EORhDUg9oGczbWJb/tDqlPgrDC1NxRd292N/1zjBqNGOT5MkbZuVtCZOmGPXCzQ0jsVcsOsz4ob8ADBTjRRm3D0cqKmdA4sHvWtgOkwASAA46yWzIyNQDg/JT38wYkHrP7CuG1RqguqksSlbUXovXndZpSYfQ1BpldFPLUICUVtYfj88IUz+iS9MKoLmrakbBfUoWfb5cuB3NDeMICGiCFftrBS7GAxBpSvd197R4ACQAFDraMGw5YkzG7v55KUvSejvu+9G8AvIiJWQASN4ESM7WpJxgr2FwebYmWo1EhgIEHfOVKMzTwsj2uVqd/UJX/tF8JJ+MzAMQUIT6DcfjXsVR5zC8u31UA9Ugn5vTxAoGRnDTKxDvTJEILNv7DU/9e1bvrIcTzW1cWvlljhD2TXjIg7U8aJnJ52+aUfi6FlotNIYBBJPWsCpQLAorVPCNG2bmlQSnvbCg4UQAoxL3dKltgumOhXOqQXa2TzXxF2J4pToKM974gcJM87YC8R1xSEUH9igNXfuv9MenZthF7tjML/oOTXn2kptG/0+i2J4GBVFQydmgobyKuoZmMdqoAURDprtTxxwP5ZGIBuViV2iakNmP8MCd9Mx76g/9Jn+21fLnL9OhBrLgurHBwz9du29U5aIdj99wRoX3DzdUrV/02NYfW6BKJ5EY51iBCCzN1hJ4XpZbul4LpRYaQwDSwARt1TM8kkDsPOINTQM4wo2ohpJ1j2vgwGaXmMMtMVeqjaVk2lhqLxwz0FrU8M5LxEyiVrNtWrW7dNnCbS8sOHdFy1O3VK1c/MRWU1ypWvLvaJYxrsZ2aqHFO/e2ycvrDHHixDw9maaxe4Ug5fUH5KQ7BfIESagVuI06uij8dAQwKD5ioDx2s3yG5mXf103OvV83TkNGpt1+4YrGoSOzKvoOct97wVVjPw6lNeuaVjFimfY8mPItDTLSPZLfk3q1BlpFkpgB4rU5bkEBiGriHjU9EjVwGwcYUAEAB3aAgMDgB0enKqENGUr5CDSvlPKpdL/SfVak7ao/nLqr/hC8SuLsuy6pODikIPOtPoNS77nwytHVZutD+yzDq/WWRq/W5eNXbXss1qlLMQGkeNmOQUx4okOpDHPCj5sowe6SmAQwSHbObH5khOoWqCZC49VyoJdejZ/16em9nHLfwan7s3JcdXaH1OBt9OVCK9MB4s+5JK6Dc+d0nKs5d5x2r482BrnUf1+U/2ICCHd4bkLtgQ56xIABTraNMbnLCK6/2CRQ2SF359GmknGKaalBIlrP4gRszMeyB7pbswem7M7Mdn2RluVYk5IivXHh/DGWLeSi5balK2ofR8FaoGoezn6MaU/3+LcqUiUOTxA1QIpXV/fF9mG/DGLbjPOtAMQmWfDNqBw2OVp9m/07YAQRmX3qbxpBCRtqAomaSfhx5LKpwcdoG75EDG3uW2s1c7ptrO9g9+Fe/Vw70ns7t6Rm2itcqY7XE3EQ0SdJD2GuH5W93ipWw2wkmYA0T4UuYnLUABFediKK3h/RTNrsE/Km3vw/X0Za3BJWOspqLMW1rbOMJpEfBG2AIHAAG10DyWr/dU08GmNKX0CD3KMaxOcso49Tzhns+j4j21GT0cvxsTvd+c6Fv85faqT0xdeJFF8qFpq1zZErbm3xnskFH/BN7eEl+/c0PfrwuvxPopWHGuEAxt0exVNV3SwC8i/FB0jv3nJGdLMFogZI+2hljCOW6hDB1HSAgPoHVBtQp1lC7YDj0faQRjuTLHV5GpnpINMgUwOJDoEdpGSzPgNdLX0GuL5N723/LCXL9n5GBn/j7HkFn3YQGXDyUnlDDm+VJiAbtMCsGCyLvPzI8TjHE2sLTlfbaWov+0/37xU/XTC15jO8zRbi8b780Dr9u5R4PalP2B1HrgX3vgEZEY4uu5NTDXJPhHTF6LAvXMU7DEr863X7n8QbRbGDn9rb7vccGSGy8aBXsYmV3geLBk2wRuN+D5PJIaEQDu1vZV9XH0R5IqTgv78qCzM6HhTfQUv3IN6RIom+Q52Hs/o6t6f3sm1KzZIqUtPsr//gMmN3vX/5jgP5srDRtKCiaNbif7+rke38qiHUGnAXi5ftQl50/zrtn+QuWlVbaJP5T2Gv/wLDglCmgWvourt1X/OwaJZxR12DBIRHOi6eI2ytBYdH2mhNBhe+i+/P6DwNBYWGioNSkKiWUCNSYhCcBj7+8hUcF3ROYsxwqpFMJbmkQjRZdKfZRN6E1M+y+tmXudMdb5939WCaimFYWHqNcDVkoInUNkcOM6ix+hLnAHsGCaF3STR6071hwiRwnOTltkdvObFmNey10OvyvfrYypH7wtB2RLVvPUozx+8sWlk7SZJppaG4CLwGdRDhBLr2d/V1z8Hpi8HxWs4NAQi1Nz2pTeO4LLA2g6pYUeRlR8bjDZNCRuRCWoJDZ4Bo0e5YodFZ0vJL03cMK0qffq5BO50sLj/Yx4MmEtUIge2KDogjo2B+Q8qHjsdI76hpKEPT7K22P6AZ9i42y1jIuO+1R9Ycf0iJz6bp+TRoSb/rS5fXlAmJXYwZ4RcAHH3oPqwgvQwH8wHy91sbsp1cQq3AimW0N6EAgWEkcmYjqOoJZrxZI8lXfZPjyZBP2uigKlenwOMmZdRf+WRens7bOsj/946mXIegHVp81F/AkRd5W9kwynrby6yD1OoTO8rTmXC7nMmEvXnBidX/Qi90odsp/at8ZS55TCOGqlkFlUisLF2//ipxqPcZeAYXY7nFuVidWKB3V0bFN0Rg7yfMrvAbEkKpmsVmBwj4F0t5onY5dcCVg1q68t1dU5X4KaV15aQ9Rp2vVjcvvE7ywPFpCktPj2pF2xV5Wo+MRox/KQEd/T/Zl9WmUdvTi+UZHpVm+hnG2vgF6Hdd0NTqO4Rm2Gt4mS1Mcex8t3xlWZd5fgFt2pdz09SUt0rf3JUqpbfonvHhB0iEvZ8m4DspWQQD9UccUEnnUY2xWroeccRLiZ9Smh45obRqckPpFa7zi9JWn3d5/92hJOG2K/ICHCj88Dz0uJABk/4Ez/InTa1Dv1twUs0rsiwW/nZd4SqlnFad498eqVGJJlya/cVbDz8BY87DDoF+Y8bzjWJWmQyXUbVySulm5F1NbjhdI8Wl97G9EpxGjhBvwZF3WCubRcr79Y+nUYOVseY8G0C5As6cKxacWLMLHY1F+LjSwofW+vsjhmhkh6PoKnDq8FcbwlULk3g/SCNLqpb8BdOo5VUtvZ2Xw2X7IpitZ2RDHpdts4LjjuHzQWizX4dm2HUASy1eFi9TB//hNYVbY7EJNbHiDw6/xsiKSq9YrROvJ+N+fCgURCNlBeulpZOuoFYwKyYkzF8ICtjri8ZOk6GrBfJh09vhdbkdYPkEbtSX0d99+aH3j6vrSqoco9hJV741tlQaOzOxdxNGOT9EwsSbHaWh+GsgMVvLHsyfNgEZh5fx/Qum1n4IU79st9sWPfDeiG+05NkygGCXQ8U+sxbl9dBoeZPr4aeV1iq5WvU7pui4mIym12Sfz/sYapZKzOR4SbSyVx+uirz1qXUAOaaejHJm26aNKNMkUw21AC01n4k+ykxspf0UPGFLAZYXw42xWAsQtaaFWroemxEvJX5KaXrkhNKqySV6s2SH6pK8DmcBF+w/Gy+p2RhjaUDN8k/BpZfqB+VWLFnCfZYBBLuaoBOiXDKMfLMSLyV+SmnhrKo1TlmqVi5JujhZgAYSf8aF/LO8r2u33Ty17iLLAOLPsDI+jLWJlje5sRLbuFkl14y8HFs8R3Au/8VSgKi6Vg0EkGpn2UBZweVIVS6IVe0QzDB5Hk8LjKXOijWBmljJkLRAYluAVmtbE7CHKl6d/skRERUw8qWu9iY3UlZwhtTk+mnNEh6sSPI8KgtYBpA2beNZMkhWPOUFnoe6TLMcBAENksfoLWAdQNTLjbHlWQ0fWvSJxs5qcqPhmbwnbhawDiDIolllMpz1rCqnmuTG0xDhjJOMi2gBywCiYRgkotJRJWgqqVFxVr7JKrnKWiVTNVrAMoBomYtlpPtTrbNspKxg26vJJVqzZAfrkTyPzgLWAcSvr1rbQi1dT6bVXuVGygrVy0zeobKS10ZawFqAxLPcaMGHstc5OruryfVzjachosvGsXqXZQCRsWuD/t0Ro39Mmspp9Owj3qlFbrKJFdF8lidYBhB/ztVenGrpesynqaTqYaiRVotcjaySZPG3gKUAURsgMxIf5FRWkmesrKMPsk2qCneV5KPckmfxtoB1APH7eeOcXaWCSGmW9UHibIekOM0WsAwg/rKqVGApC2rpmrPZ5kpVbesbKC9YNTW5JokNViF5HqUFrJvNG6XCPfK2JEIS9rFaVoMYWTtosi4VQqWCSGmWNbGUFNOUuySRSRawDiDIkFKnmfKrlq7HJmqdZSNlBeulJrctn8F3JM8TyQKWAYTWg2AnCWVbGPliJV5q/NTSlbUNn2qV3PDaJGN1WsAygGhYL6UzK8rkauWU0lXgqiwgQqqa3Ai3JaMTxALWAYQMQKUnXkGtpFqJkHjaIV727iFyLAWIqvvTwIJDsuIpL1A+NMkNECePCWcBywCi7QM6RtqL0KaEOEpLNrKMtHhP4GUZQPzGUyqvRls3kfGhVrUZbYskP80WsBQgSXxofk5JQossYB1AtMzFMhJBajUIPQAj5QUeqAa5yQokYKzEO1oHEJRGtfKoTqHdoNoG7NQ00i4vQKlFboA2eUw8C1gGEH9RNL48RrYwyVKSR2nJPnpk+x2jKZYBRLGwBh6GUoEO0Gg9agGIkfICeqnJBV2yiRUwVuIdrQMIFYw42kOtnFJ6sgKJ4wPpJqIsBUhcEUIPJJ6IDBQANWT69bJCsYCCyaOSBSwDCA0Uqn9AR0l1fWnqnWWiML4OUZerLx9J6vhawDKA+LOp9uJUS9djK7U3uVq6HlnBtBr4GpnNYNHJ89gtYClA4lkw1MoppRtff7S16lTzqUoQ+4NOcojOAtYBpG0yVnRaR3OXGkKi4anlHqvkatEtSaNqAcsAoqELYmynWq2gqqWrmjICgQa+RJIMiWkBywBC5qAOrFJQS1e6N1yaGj+19HA81eKIpypfZTOoiUimm2gB6wAS70JB8uItM/DgVOWqEgQ4JY9xtoB1AEFG41ksSJaSPEpLdtLjXPq6gTjLAJLsgxwtHUrAPUqVPLPCApYBhDZtUH6nG2wO1bWvJtUhqnINzmeSnaEWsA4gyIbam1MtXY8liJcaP7V0PfICtFrkqioWYJY8xt0CFgIEVUgi7YulqSRH8Xw08DUDmFFomrwljAUsA4jwd0LCaGRSlFo5pfRkJ90k43dftnssA4jfZvF8daohxKyHqEluPA1hVkZ7Hl88lfstBYjaAJpaup5H0jZcF7kgtpXjyOl6ZHWmbZPcOS55lcAW8KJP+Abj0hOPrM1bbR1AtDSxjCyvbQiI/FzU0iPfqZyigW9yRaGyCeOUuosz8WebkP98/7qRXwdkWgYQPz6MBEAgR0pHJXlKaUo81dI0AESNRTLdVAtUcMafcjt3vF6+sswbKskygJAiZpXJ0EwGZMVTXkCHJD4Clkio40Fo8zfBpT89sibvSyXNrAOIltKqhUYpd8FpWkqqkfICsjXITTaxAsYy/bgREv6U0pL6YnnVoEYt0qwDCOoPtfKolq4lgwEa9U46URjv6FWTG9AveTTNAs14qktkLp56ZE3hB3qlWAaQuPdB1N7kRqIx+CmoySXaZBUSbDGjzuvA6BnJ63nuwY9GfRctUwIIdUziDxQgRG0gPdpMhbtPSzkNd1+scUbKtcmyM1gfwRytjPmCo471cxkd7qUCtcXDawreNsIY9JXbWzCGTGiLfwiUnkQ4Uu4t0oPEagmtHnZ8MN1Pf5NSj1bhI4jrcEsGpx9D53vwOb8HmcRzH1qbf45R4CD72S95IP0xHB976bbD/QXnUyQhpuKB0W8i2m6pphpZtWmhteho0JJkKcnzizJQXkAlNblEp1Fsw17vXFA/GWBNx0vuT1+Aw4LFtzcO9sm+qfQM8Radgr5PCeJTiKYHh/cBjKfcDc2vlm8dg9pUOUxY8eVge9ahPVUTJ3qUKY+mdjStAJTdiH69/ccqy4V9V3PjBGaTp6ItNJWMjieZd/TW2M607NmgsdxoUoR4KfFTS9ckJAyRkXyrq46cuPSZ3flnXdG/NlTU3PtTqRZ5pf3nf37fehqL8LHUKVzGswNwYIH80Pu64fUh5OMfNoxdPLC24FMt+hdX1s7Cy/5XoB0CcJyg5Z4ATQdAAhGBY1k5p75JVfvvDxQfqGUw4jgF6znI6JOgbBqlRRWUSiwxVEvXI1RLSTVSXkA3DXKVKrYAGzo2HvRKX33c8EHlH/fkll3V73BwWuh5+/Nbj3j6+Z/f329tyHZy2xSZB0DDqLBkht6biNcwI8Ag/sS474VH1hwPkCiHce9t7+3weH8GYFwJ+x7npxb8GuW7uqZGBEhXUlTnIbXM4jnC5ik8Mk7C2wlV+hQUaLyl/MpAL/VgRnmMJFVDOY10a0zxRsvd8WljjqfJ980bv//6l+fOH7xQj3L/78FM8ub8q/3nv/WlOw+NEV5pCgdo0Bel5zcaP+qbJkKgZtM/ZS499ds1ee9pUQi1xUQu2Dzm8V4M+pSgMtbi8jhe0sIjmEYXQIJvpPO5Szi5UDa1/56muBdvOdDbJjn8bymMK0yBsuGrNA1tLCKRjHpUaiU1yJKUD0ODKm9Vgk7q7KptTv+6tumlBy/67LmcYc7PM7Idq1NTbYvOnT9Et5//kvsytoI5/Z4jIc/dvDcj1Z5ygv/ZcTEFb9/JiO5LaXEMO7At7TM+wf/y6NqCPWpyp67dmdLS0nIRAP4rvKQnRaB/Zd0Phn4fIS1itKY3fcS7NSYsvvVQ37kPZuwNJi8/bduT8MBcHRwX7tzulJjDLTGX28acKTZmd0kAjX61d29rZJ7myC7RQYXpTLLp5xtO5+C4b+sOM2+rMgB8XsFam2kSKdHhv7/NRVft14FjUHynNMTTX0Yfu6/fcNfuXn0dG9J7O95Oy7S9/IPL9BeKYP3p/OU7DuT7hB0vOz4ZcuAEYEWIdoTSabn+flcj2/lVQzhSAbf/v6kZhQG9N8IRhMaVvrkrlaU13QcrXYq03qHpwdecSVOqZuR+GByn5dz4EqFFKmjuJoAwdYCEY+cksAA0jhQJoLEzuxMuBPwphT0ASKsSQI4DQKIAnpJMStMEEJ8AeGMHiB9cATDhaLPh1T/MfSR7oKs2M8fxXkqGfcmP5ueuUtNZLf35cuF2e5pKBDkARHvzmrGhavdRehiAfIdH97wsxNO/XVtYq4VHgKZ4Rc0dnPP7AteRjgDQRxtn5FNNqDtE3cQqqaibK8lsP952H1Wdlk+Tv/QFejlGGVqbfIx+bD8xaIGvgPlrF6phnAQa1DI2J0pHcGh7GQfHdD6PQZ/OjEKu1OQSuUmyqWb6pq4x7Zu6I+Px5h8PQVfddPpauf8w957e/V2b03o533Gm85d+NE+9GROcq0vLeTOu17b//EkLbz4ySLYBMH5vGUOflJXisUQeJhAcb3PxVIrLtrh8ZS7x0xVKK7/MQZVzk5ab0Ep/QgtdOJqoASK4LMkSXwamorSi9jMcP5A5XycL3webZxRSm1Y1GFUuqOXR3Ojz/wJCqbnkAlgc/qaZxGSZGiHxDyTTCrmRcnr4gEc6vL91AKwxAJqdwSX2+F1z1jX1HeSuz8p2vp/Sy/nqnPmF9Fx1hYsfSduFG/7Z/vO7mXe3No4njxn1Z4RHnI6aom/jYXk5F+KWh9YV0MTBqIMQ9ttws6oHDiCtz+A7FkcrCPdHF+YsFrba7LrPkenCMBwOoj35EUrGOs7FOo/d8eEnpwz3v+8DtHfP2vYkah/VPkiA3uzj4JEZxjkEgpT9pvYI+iDwNigEH5K9LcY3sWhgtO21EHJUiU/NtIsBI1L39e6fsiW9t32ZM8Px4tx5RxcRKWQlLkml79YOEzb2FYS51ATCSfSrqpn5f1Kji5QedQ2yZC73FVfUPgSEPReGeRYUOw3xp9GEK6fHRwOQ5wfTkYdKpdsQTG76eXOjh7lTHVhpaawoTTUIVYEJFBobPLx2ywF4rvbPBLRmogn78K2zK5rzJvR+9fLy4h9braps4/diLE4VHNDz2wxJej4WfaMGCAmVMve/IBp6U1WXH5USCVQu9u2gZnAzsznQLGv3nJEHze8MQH+Gh3RpNOdXE0I0c4s7IdmiYEKf2sEF6Q9cfMOYv8ZdgRCBE1fUnSAz8ZOQ6LCX6KM8sHKG/v5NMLOYAEJzWoor4UkQXNeAVZsCCVaFtFvF55EZ/ZqPBJuJBQGHw2vW7kWLBTid2SfcVZ+BKZ6C8b2W9R2W9uvZV+jzLpmVmemVlfYGIZ4Ffy31/I7W75qeiVWXmABCwjeWFbxcUlFL3gSaHBc2oJrO6JrAaxOsZdFVxaAY6kfQr8k/wePoXLejNQ5HzYNxGrifnS5bR3+G8qiWT7X0IDVMPeVwc+eNy9o99LiMP/73gtH3sTdNFaebeYMYej1umqDlRpj9nq1z1ScwqvGKGSAkQJL5LbIklikIGxWaZpPZ0x4mxqAfMgf9lazQ9O5y7Wv1Mfo1h8yMIuDQ+IyM2kgVIRZnNr2XUy4ozvooZ3DaDXN+XUDu24QL41dty2U+392aFOPsk4K9eX+PyU3WLihqL1aooiWVtW/AZXJOaHzgGh29U6rK8t8PXAcf7yyrHiOEbQr685MBFpreQMDRUo0Gs+m257TLpM/rO+px8lcpIZ4nSg2Kp1RyIPuPiO90rTF+yHFph4aPTv+Hq5e4ee5VY0IgnljmLKmoeQdenTO0aAXLzMLA4AottGo0hgFk0vKv8nySjcY/3BGErt4wI39ahLRO0eXTt6Z7ZdcJ2HViChLoR6Og/ToR9aALDNEwOU4AIadDQXHm5wPzU+66YH7hK93BjMWVdb/A2MlftOiKGRWvV83I6+Qx1XJfJBrDAEICiivqyP12ZyRheAM+tnFmwY2R0pXibzl5e57N5gVQMOO0bdZwEXmQle7pLmlUM8he+Gbw568VgmqKjlqCUoPiO2jpHg01SPZgd0ve+PQ3swekXXvOvKFfdxfblKzaNgpNK5qyH3lU/mhmmmyyb+zHs46rOxoV25mhAPHPqmxu+RSFOE9BrVdtNnHdx9MKdirQqCZdc2a1K73RUcKZD4DxLwZCTcOHqd6YgAR+gGC0sKPQBwEhFoBIcE3njUv/z8DC1N9ddGP+4wmYdUWVplfWuxuETBMMMU1GPaB5fisGBR9Sp9ROYShASGzp8poyIXFq/ynxpvmty7GOpEJI0tIN00Z8rl3lyJQ3Ta8fYPf52uYD0SQ6TsuGY1jQFVmUoSmEB9lAgGRk230FEzLe6z/Ecd0Pr8ql5QjdMsA7+kco/iuNyn/KM/eX6FlOq4WvUiHWcn9YGkxkhP9Z/DJsYpdI8Z0QUunGmXnbuyTFGDEHC7oKv942zj+Jzt80E5MB25Fga0q+o1WXACIwtSDWGmToqNT9w45Pea5ff35n2aWxDZBFmxej7itZUTMbs1BpbpeW4INP56RoprOrMTeloExeWp3pdUtb8dyHqCnQnr4hk0snrSwz/6GWT6/vBa/sZFlg5imBhgla0NVHo56mkMFOUQPElSqJ/JK0Lf2Hum8579dD3zFFwTgznVBRPQYjSeRuVp2MSKrBfg/Ca0UzOgwPpgCEtGxvai3HqVZ37fPwcv3c8BxqYHjzSXUjbVjbgDfWZPQH0ERj4zAD1ZAxIg3i/SR6a5D+I1xNQ8ekvpLZz3H9OVcM2qdVTqLTjf93TT+7g6bCsxEadd3Ssq95khGDguHkmQYQEob1wQ+i43RLOMFh47i4ckNZQczTA8Ly1hFZXrortcnVPBGT5Kkfg1rG72YepIOFLlKAkaoQ1SaWzYFO94S0+n757gd/dO2gP+sS0g2IC5ZWuzJTbJXwyk3VqG4z5sidUDUt/xON9LrJTAVI6fr1DkxmpKpyokbNPFiLfC5AknBNhQUn1w7DuPhkIdPYjL+Woak1kcZ8NGa3jYyaWJ1ctSFerKx+du+I8anv9unPr/3h1UO+0sW8GxFjdviLKJCXaFUZL695G8vyn9ZKHw2dqQAhhUpXVOdjwI/82L00KtiI5sasjbMK12mkt4Tsl6XrHX1cvYvQsUbTjHZ08e8IouTeVtGTuuj+3oh/vIOm3Q8d7do76Dj3UxfcNLBc5eZun4xO+W/QxL1dc0Y4W7KhLH+uZvooCU0HCOmFFYc/xKOnqW+a5IH2e2x4dqrWlYlR5t3w2249pbqv1ytNttFuIG0zACZBiKaOJnU16S8lU5Lzitwf5wxx3vzDq/utNlzJBGQIryc62OJ+Hap96WiWT/jwrMIGHfdERaqpwEbFOeQmVJ/3QNhdIdFKl19jP6STN5XlblMiSvS0206sGYut96dQ0wybKk+GDUZDZ9QPncPAfOfhwaNcL6YNs9981o+zTX/wnaVbd1VaWXcDHCOP6tDgEOfSCVVluV/ouCdq0rgBhDRUm9AYkosWvFXmb5hR8GxIfLe+LJ9cndkoSZN6D7Bd2tokLnCl80OjpqZcf94N/f/RrTMWhfIlK+quRvOUdrfRGuDKkGdvmlFIK1TjEuIKkDGVW9Pdwv0emh9FyrkTH2D3q5+tn6H8eaxQHie9/0XGgV2+FrNcfqHyktfRWwAezivh4XwKHDSXQXTKb0Gn/OHopeq/U7Ny+lmHv4N22LZxO/m5B4enYE9hysC1SlMGaMsXJuynYy+lMnTsxiMTx4FXsBOgGZ3merydPkez/j0h5GXo9H8WQV4yOs4WKK2ouROu7Xv1iRV/Rmvil/ruiZ067gAhlYsq64skIa/CaacOLGqWGzAi+rtI2YKnYwbeN7/GS+dM0GBUQFfYjMw+m8Glv8ZjxF6XZscIsX8nnJw6ml91hb4s83cy+fZzVpZ1/QqtPj76qS0BCKlZvKLuVGwJROMdKXSNBfbzMR8rbHsUi2VKAYrfg+xEoo0xfIvNze6sKsvTtL4gRlnJ29stQDO9W5s9C+GpO0+nUdbyIymnVZ2j7aObOnmrklsGENKs3f37GrwYT4RbJ+IfaDzU6wE0l64HeRfPj2ruFAhQW62RfOwS7Aq5Q4EsmWSABdqnj/wfWOl9wW2GJ3M6PJkHDFAjKhaWAoQ0Llled8qGWV23ti9eXd2X+2yv65h2EI0B9gMoc4xanhmNAj39nuLl1VO5JC1BPiP1OSOZ4DOvR5RtOUPftqiRmEUbbzlAwik+aVXNUJ8Xa0rC79oY7pZY4mhtyiUAyauxMEne29UC7W5c6lPq6i+iUG71eMQMq8FBOUo4gJyw/PNsr+SkzR2OJwXjFDzY2+vsqpl5y+Ikr0eLoc8SiLQmGr/6b90ZxY4kwibP3HhqYafPZejmY9ANhrbrjdDJa3NSdRxPcJDaDoxyLymprCkwIg/HMg/6wpNIbaa5d/rBgR3jPXb7tEQBBz3HhAII+ccxblFmUQHLhDNgEe3eZ5H8bi12zOKtTppwiMG/dRh/GqU7M5y9Td6q0E3OdfMx+IaEAUjRqtpCDB7dbnD+9LIrOcSGY5wlGfRYgMa1XDnuj9tn40bzgvkrz9h/nlWuXKW8JkwfBPO0/onaY7aSsnFKO+Rx2Icn2pssTnnXJcbf10htvA3AuBk36uqItwtCy5bdZvROJLoyoUKcEDUIrUEGOM5X0TVeyRlOj/eaeAnrrnIwhnUJvg/4ZXutEQ04DpOLPZHBQc8mmurQ8GdqZ7YrMMKaMLUZdKGpEPcantEewLD9M8tPoHDrHfTryD0e9FeyLM/uDvPjLC+U7fNzvoX1cjosmAAngOtpmDlKm04kAywwYXntcTZJ3IGRgR/jMvpyI9hrXGY/i+q7lhY8CctrkPrsesyzSixw+J+DLH6A4zEPEIyEj5Yk6Q7UGBcBF7E0yVvQSLhxw8y8P1hQzqMWaTlA8JHHabG8kKLOucqN+FbGqSokPToZ+yxPkIS4AzXpBQBH9DUGWUnwz8HnYkxG3dzdjGY5QASTxmB70MSzm+C0NPaYCjSW4c5xX4jCfCXmwJ2CY6wBS3bE41mogbrrEgPLAYLXS0GsT8Gc+0Va6eptA6tOHfGNOfwTh2v7zjO0GOnneFVhMVrsugFbX+HF9/P1MwvWxM7NOg6WAwSN2l4GPA9TLIjtqWiVYo8ECK3sxOdKf4Q1ORfC/qcgn7HXF21PAX0N9tDBFvnBmrMKsa9A9w6WAwQuVSyYMurZGPswuNfjX8wV4Eoet8/YZ7buuua9/fviFyA/F+KH3QsNaEQFjNN2XIZN6q/ZPCv/q87R3ffKcoAAHI0Jaz7J3km3L/tvH+bypXyCLYxW4XuXy9CEWLG+rODTRNV/8vK6/h6bPB04KIOO01FTjDRJVwwYshuxkdtbJvG3jG0CAIRZtlpMzepo/nXSzck8vWQmpaG+OwvNr7NoT118w2I/mhRrMKKMSXryBmETVVbMRqXVl/xI1lifbCuRmJgI/U7FR1JHG19JdLLat+B/P8/6/hmlTTY63dHNLhIBINWw2ckJaLfDH5fl0gBmR8AirgHY+T009AZOzkZz5WwqjNzrB823iKMdVejDQDXwCG2T7GKbzWPbNez73H1L5nJfKBMt15gU2AsfjRrAfWKozNkITGTKhTojIXeUaBAFqCEc5BE0u08H/t9Lgv2WNab8PhEnGGqxpVYaywGCDRS2whWoVd940tEHSTsHzrVO4x6AUjoAN1PTBq1IbHuNT7zgU9msNqdORq3zHdIPAESHACz8eAssAGgJLwq7hOniDtzjhFmotsLOLwI/Du+S7CRLifbhug6sYsZfnAJeGOJ3qU7v02tOPh569/xgOUCwZ9VKPPxEtPSqUKVQDscZoCoV777g07eNf1veO/77T/APZb4tjqiOnrXdE+f/GOhjkvxEQ5P4W0/wTOmxnuUAwWZgVej07kYR6K9HcbNpJS6/3UUGZ9O7xPXcCBm4/Jfk40+un5X3bs/NpnLOLAcIqQdwvITDdcqqxjV1x/qywpXBEmlBF/OxEcFxPfNc1KFp97xPEn/bUlb4n56ZR+25SgiAwHf+tE2iHRMTYwkwAPt0qAm5V1xEfYkeGvYgX68wmb+8YVb+ez00j1FlKyEAQgNL+EYENmtAIbQ+HLA3y7Q9ZqcAZ8LPOkV0+wvUFEx6iwv59fzv8ldF61nr9mZQyUBCAIR0lDm/BbNHz8Vpp9FrFf2NTxb8znAfZkGf5DKfkE5HHXI6hBbj1+5LMl4FkziS12k1+v4VTJbfCV6stMEkgT2BbUK1GbAH703okTxinWHFB/n78k9We5vSeIRdyCdiMONkuGaxso4TYOCKTaiwDZ6wD+A0/oDLfF26tH2DFZs/J5RFolAmoQBC+mPzhqV4sGdGkZdYb9mPDbSLsWZhezSM/CvubKIYPEajqzIKecCYCc9FszEtGn4a75FBtxO/WvyqMYbyqeD8E69D2pLcdEKjBVXIEg4gmFCXJWxsNfQer6K7kcnNKNhnABwk19BA3zKRmX0ECu8gjKP0R8OsH0bWszE4moFPiWUAQOkQSJseYJBc2OEIoO9BY5YIa4V7rxVH+hzbQQzSH8T8r++h5zdMxgxjm/xNy96WHd114qShRjaRWcIBhPI6qbJ+gE/I5Hsfa2LeA6yb0Jm4cP2M/KWBiOQxaYGABRKyo0lzoLDtPa1RqAgoasYRHdbdmNh3WhIcZli3Z/BMSICQaembEPn78k5HE+MeXHqMNjeaLO/auVS0fkb3XvFmtF2S/DpbICGbWJ1VhE8VO2swm/Q/aMOfFpoWxfV2jBTfunFm/sIo7k3ecoxZoFsAJPBMSivqJ+MzwPOhNO3CmBqI13hci+Wlz2awnS8m3Z0aLZYko2lQ3S/Q556PtNpmSEIqg1doPGoWbHzNspETGmREc0zA88PrccSaDOk9WeLvosm2rfvlNKlx0gJJCyQtkLRA0gJJCyQtkLRA0gI9zgL/HwXvlJkPp8MDAAAAAElFTkSuQmCC;" parent="J34aP4NqLfEWSbsF6mjq-1" vertex="1">
                    <mxGeometry x="530" y="520" width="70" height="70" as="geometry"/>
                </mxCell>
            </root>
        </mxGraphModel>
    </diagram>
</mxfile>